<ttFont>
<head>
    <!-- Most of this table will be recalculated by the compiler -->
    <tableVersion value="1.0"/>
    <fontRevision value="2.0"/>
    <checkSumAdjustment value="0x6daf40f4"/>
    <magicNumber value="0x5f0f3cf5"/>
    <flags value="00000000 00000101"/>
    <unitsPerEm value="2000"/>
    <created value="Sat Dec 22 18:35:43 2018"/>
    <modified value="Tue Jan 15 00:57:56 2019"/>
    <xMin value="-260"/>
    <yMin value="-488"/>
    <xMax value="2287"/>
    <yMax value="1760"/>
    <macStyle value="00000000 00000000"/>
    <lowestRecPPEM value="6"/>
    <fontDirectionHint value="2"/>
    <indexToLocFormat value="0"/>
    <glyphDataFormat value="0"/>
  </head>
    <TTGlyph name="A" xMin="55" yMin="-12" xMax="1132" yMax="1372">
      <contour>
        <pt x="513" y="1366" on="1"/>
        <pt x="529" y="1369" on="0"/>
        <pt x="578" y="1372" on="0"/>
        <pt x="595" y="1372" on="1"/>
        <pt x="611" y="1372" on="0"/>
        <pt x="660" y="1369" on="0"/>
        <pt x="671" y="1366" on="1"/>
        <pt x="1132" y="8" on="1"/>
        <pt x="1116" y="-3" on="0"/>
        <pt x="1074" y="-12" on="0"/>
        <pt x="1048" y="-12" on="1"/>
        <pt x="1014" y="-12" on="0"/>
        <pt x="978" y="18" on="0"/>
        <pt x="963" y="60" on="1"/>
        <pt x="691" y="882" on="1"/>
        <pt x="661" y="970" on="0"/>
        <pt x="607" y="1145" on="0"/>
        <pt x="589" y="1210" on="1"/>
        <pt x="579" y="1210" on="1"/>
        <pt x="569" y="1172" on="0"/>
        <pt x="545" y="1085" on="0"/>
        <pt x="522" y="1007" on="0"/>
        <pt x="514" y="983" on="1"/>
        <pt x="190" y="-2" on="1"/>
        <pt x="177" y="-5" on="0"/>
        <pt x="143" y="-8" on="0"/>
        <pt x="127" y="-8" on="1"/>
        <pt x="105" y="-8" on="0"/>
        <pt x="75" y="-2" on="0"/>
        <pt x="58" y="2" on="1"/>
        <pt x="55" y="8" on="1"/>
      </contour>
      <contour>
        <pt x="451" y="359" on="1"/>
        <pt x="446" y="359" on="0"/>
        <pt x="375" y="360" on="0"/>
        <pt x="304" y="361" on="0"/>
        <pt x="297" y="361" on="1"/>
        <pt x="245" y="361" on="1"/>
        <pt x="290" y="483" on="1"/>
        <pt x="336" y="483" on="1"/>
        <pt x="343" y="483" on="0"/>
        <pt x="403" y="484" on="0"/>
        <pt x="463" y="485" on="0"/>
        <pt x="469" y="485" on="1"/>
        <pt x="704" y="485" on="1"/>
        <pt x="710" y="485" on="0"/>
        <pt x="771" y="484" on="0"/>
        <pt x="834" y="483" on="0"/>
        <pt x="841" y="483" on="1"/>
        <pt x="887" y="483" on="1"/>
        <pt x="928" y="361" on="1"/>
        <pt x="876" y="361" on="1"/>
        <pt x="869" y="361" on="0"/>
        <pt x="797" y="360" on="0"/>
        <pt x="725" y="359" on="0"/>
        <pt x="719" y="359" on="1"/>
      </contour>
    </TTGlyph>
    <TTGlyph name="AE" xMin="45" yMin="-8" xMax="1627" yMax="1366">
      <contour>
        <pt x="744" y="1350" on="1"/>
        <pt x="762" y="1359" on="0"/>
        <pt x="811" y="1366" on="0"/>
        <pt x="829" y="1366" on="1"/>
        <pt x="951" y="1366" on="1"/>
        <pt x="815" y="1210" on="1"/>
        <pt x="805" y="1210" on="1"/>
        <pt x="781" y="1154" on="0"/>
        <pt x="721" y="1030" on="0"/>
        <pt x="697" y="983" on="1"/>
        <pt x="190" y="-2" on="1"/>
        <pt x="175" y="-5" on="0"/>
        <pt x="131" y="-8" on="0"/>
        <pt x="115" y="-8" on="1"/>
        <pt x="93" y="-8" on="0"/>
        <pt x="65" y="-3" on="0"/>
        <pt x="48" y="2" on="1"/>
        <pt x="45" y="8" on="1"/>
      </contour>
      <contour>
        <pt x="501" y="359" on="1"/>
        <pt x="496" y="359" on="0"/>
        <pt x="433" y="360" on="0"/>
        <pt x="370" y="361" on="0"/>
        <pt x="363" y="361" on="1"/>
        <pt x="310" y="361" on="1"/>
        <pt x="374" y="483" on="1"/>
        <pt x="420" y="483" on="1"/>
        <pt x="427" y="483" on="0"/>
        <pt x="479" y="484" on="0"/>
        <pt x="531" y="485" on="0"/>
        <pt x="537" y="485" on="1"/>
        <pt x="684" y="485" on="1"/>
        <pt x="689" y="485" on="0"/>
        <pt x="756" y="484" on="0"/>
        <pt x="823" y="483" on="0"/>
        <pt x="830" y="483" on="1"/>
        <pt x="877" y="483" on="1"/>
        <pt x="877" y="361" on="1"/>
        <pt x="828" y="361" on="1"/>
        <pt x="821" y="361" on="0"/>
        <pt x="754" y="360" on="0"/>
        <pt x="687" y="359" on="0"/>
        <pt x="682" y="359" on="1"/>
      </contour>
      <contour>
        <pt x="817" y="1354" on="1"/>
        <pt x="829" y="1366" on="1"/>
        <pt x="952" y="1366" on="1"/>
        <pt x="952" y="1250" on="1"/>
        <pt x="952" y="1208" on="0"/>
        <pt x="954" y="1163" on="0"/>
        <pt x="954" y="1123" on="1"/>
        <pt x="954" y="191" on="1"/>
        <pt x="954" y="171" on="0"/>
        <pt x="952" y="138" on="0"/>
        <pt x="952" y="118" on="1"/>
        <pt x="952" y="0" on="1"/>
        <pt x="897" y="0" on="1"/>
        <pt x="860" y="0" on="0"/>
        <pt x="817" y="50" on="0"/>
        <pt x="817" y="95" on="1"/>
      </contour>
      <contour>
        <pt x="1493" y="753" on="1"/>
        <pt x="1496" y="737" on="0"/>
        <pt x="1499" y="704" on="0"/>
        <pt x="1499" y="692" on="1"/>
        <pt x="1499" y="680" on="0"/>
        <pt x="1496" y="647" on="0"/>
        <pt x="1493" y="631" on="1"/>
        <pt x="1072" y="631" on="1"/>
        <pt x="1050" y="631" on="0"/>
        <pt x="994" y="632" on="0"/>
        <pt x="934" y="633" on="0"/>
        <pt x="905" y="633" on="1"/>
        <pt x="905" y="751" on="1"/>
        <pt x="934" y="751" on="0"/>
        <pt x="994" y="752" on="0"/>
        <pt x="1050" y="753" on="0"/>
        <pt x="1072" y="753" on="1"/>
      </contour>
      <contour>
        <pt x="1595" y="1366" on="1"/>
        <pt x="1598" y="1350" on="0"/>
        <pt x="1599" y="1321" on="0"/>
        <pt x="1599" y="1309" on="1"/>
        <pt x="1599" y="1297" on="0"/>
        <pt x="1595" y="1261" on="0"/>
        <pt x="1589" y="1244" on="1"/>
        <pt x="1072" y="1244" on="1"/>
        <pt x="1050" y="1244" on="0"/>
        <pt x="994" y="1244" on="0"/>
        <pt x="934" y="1245" on="0"/>
        <pt x="905" y="1246" on="1"/>
        <pt x="905" y="1366" on="1"/>
      </contour>
      <contour>
        <pt x="1627" y="124" on="1"/>
        <pt x="1627" y="51" on="0"/>
        <pt x="1584" y="0" on="0"/>
        <pt x="1533" y="0" on="1"/>
        <pt x="905" y="0" on="1"/>
        <pt x="905" y="116" on="1"/>
        <pt x="942" y="119" on="0"/>
        <pt x="1020" y="124" on="0"/>
        <pt x="1073" y="124" on="1"/>
      </contour>
    </TTGlyph>
    <TTGlyph name="Aacute" xMin="55" yMin="-12" xMax="1132" yMax="1756">
      <component glyphName="A" x="0" y="0" flags="0x4"/>
      <component glyphName="glyph00443" x="195" y="0" flags="0x4"/>
    </TTGlyph>
    <TTGlyph name="Abreve" xMin="55" yMin="-12" xMax="1132" yMax="1724">
      <component glyphName="A" x="0" y="0" flags="0x4"/>
      <component glyphName="glyph00447" x="195" y="0" flags="0x4"/>
    </TTGlyph>
    <TTGlyph name="Acircumflex" xMin="55" yMin="-12" xMax="1132" yMax="1752">
      <component glyphName="A" x="0" y="0" flags="0x4"/>
      <component glyphName="glyph00445" x="195" y="0" flags="0x4"/>
    </TTGlyph>
    <TTGlyph name="Adieresis" xMin="55" yMin="-12" xMax="1132" yMax="1647">
      <component glyphName="A" x="0" y="0" flags="0x4"/>
      <component glyphName="glyph00440" x="195" y="0" flags="0x4"/>
    </TTGlyph>
    <TTGlyph name="Agrave" xMin="55" yMin="-12" xMax="1132" yMax="1756">
      <component glyphName="A" x="0" y="0" flags="0x4"/>
      <component glyphName="glyph00442" x="195" y="0" flags="0x4"/>
    </TTGlyph>
    <TTGlyph name="Amacron" xMin="55" yMin="-12" xMax="1132" yMax="1638">
      <component glyphName="A" x="0" y="0" flags="0x4"/>
      <component glyphName="glyph00450" x="195" y="0" flags="0x4"/>
    </TTGlyph>
    <TTGlyph name="Aogonek" xMin="55" yMin="-434" xMax="1222" yMax="1372">
      <contour>
        <pt x="1187" y="-295" on="1"/>
        <pt x="1201" y="-307" on="0"/>
        <pt x="1222" y="-345" on="0"/>
        <pt x="1222" y="-370" on="1"/>
        <pt x="1189" y="-397" on="0"/>
        <pt x="1082" y="-434" on="0"/>
        <pt x="1027" y="-434" on="1"/>
        <pt x="942" y="-434" on="0"/>
        <pt x="827" y="-341" on="0"/>
        <pt x="827" y="-254" on="1"/>
        <pt x="827" y="-196" on="0"/>
        <pt x="883" y="-85" on="0"/>
        <pt x="977" y="12" on="0"/>
        <pt x="1035" y="48" on="1"/>
        <pt x="1132" y="8" on="1"/>
        <pt x="1059" y="-42" on="0"/>
        <pt x="952" y="-158" on="0"/>
        <pt x="952" y="-229" on="1"/>
        <pt x="952" y="-279" on="0"/>
        <pt x="1011" y="-331" on="0"/>
        <pt x="1058" y="-331" on="1"/>
        <pt x="1094" y="-331" on="0"/>
        <pt x="1163" y="-309" on="0"/>
      </contour>
      <contour>
        <pt x="513" y="1366" on="1"/>
        <pt x="529" y="1369" on="0"/>
        <pt x="578" y="1372" on="0"/>
        <pt x="595" y="1372" on="1"/>
        <pt x="611" y="1372" on="0"/>
        <pt x="660" y="1369" on="0"/>
        <pt x="671" y="1366" on="1"/>
        <pt x="1132" y="8" on="1"/>
        <pt x="1116" y="-3" on="0"/>
        <pt x="1074" y="-12" on="0"/>
        <pt x="1048" y="-12" on="1"/>
        <pt x="1014" y="-12" on="0"/>
        <pt x="978" y="18" on="0"/>
        <pt x="963" y="60" on="1"/>
        <pt x="691" y="882" on="1"/>
        <pt x="661" y="970" on="0"/>
        <pt x="607" y="1145" on="0"/>
        <pt x="589" y="1210" on="1"/>
        <pt x="579" y="1210" on="1"/>
        <pt x="569" y="1172" on="0"/>
        <pt x="545" y="1085" on="0"/>
        <pt x="522" y="1007" on="0"/>
        <pt x="514" y="983" on="1"/>
        <pt x="190" y="-2" on="1"/>
        <pt x="177" y="-5" on="0"/>
        <pt x="143" y="-8" on="0"/>
        <pt x="127" y="-8" on="1"/>
        <pt x="105" y="-8" on="0"/>
        <pt x="75" y="-2" on="0"/>
        <pt x="58" y="2" on="1"/>
        <pt x="55" y="8" on="1"/>
      </contour>
      <contour>
        <pt x="451" y="359" on="1"/>
        <pt x="446" y="359" on="0"/>
        <pt x="375" y="360" on="0"/>
        <pt x="304" y="361" on="0"/>
        <pt x="297" y="361" on="1"/>
        <pt x="245" y="361" on="1"/>
        <pt x="290" y="483" on="1"/>
        <pt x="336" y="483" on="1"/>
        <pt x="343" y="483" on="0"/>
        <pt x="403" y="484" on="0"/>
        <pt x="463" y="485" on="0"/>
        <pt x="469" y="485" on="1"/>
        <pt x="704" y="485" on="1"/>
        <pt x="710" y="485" on="0"/>
        <pt x="771" y="484" on="0"/>
        <pt x="834" y="483" on="0"/>
        <pt x="841" y="483" on="1"/>
        <pt x="887" y="483" on="1"/>
        <pt x="928" y="361" on="1"/>
        <pt x="876" y="361" on="1"/>
        <pt x="869" y="361" on="0"/>
        <pt x="797" y="360" on="0"/>
        <pt x="725" y="359" on="0"/>
        <pt x="719" y="359" on="1"/>
      </contour>
    </TTGlyph>
    <TTGlyph name="Aring" xMin="55" yMin="-12" xMax="1132" yMax="1759">
      <component glyphName="A" x="0" y="0" flags="0x4"/>
      <component glyphName="glyph00448" x="195" y="0" flags="0x4"/>
    </TTGlyph>
    <TTGlyph name="Atilde" xMin="55" yMin="-12" xMax="1132" yMax="1712">
      <component glyphName="A" x="0" y="0" flags="0x4"/>
      <component glyphName="glyph00449" x="195" y="0" flags="0x4"/>
    </TTGlyph>
    <TTGlyph name="B" xMin="201" yMin="-6" xMax="1081" yMax="1372">
      <contour>
        <pt x="213" y="1366" on="1"/>
        <pt x="316" y="1367" on="0"/>
        <pt x="503" y="1372" on="0"/>
        <pt x="598" y="1372" on="1"/>
        <pt x="751" y="1372" on="0"/>
        <pt x="934" y="1278" on="0"/>
        <pt x="1015" y="1116" on="0"/>
        <pt x="1015" y="1012" on="1"/>
        <pt x="1015" y="934" on="0"/>
        <pt x="948" y="803" on="0"/>
        <pt x="825" y="719" on="0"/>
        <pt x="740" y="710" on="1"/>
        <pt x="740" y="738" on="1"/>
        <pt x="824" y="738" on="0"/>
        <pt x="981" y="646" on="0"/>
        <pt x="1081" y="483" on="0"/>
        <pt x="1081" y="376" on="1"/>
        <pt x="1081" y="283" on="0"/>
        <pt x="996" y="108" on="0"/>
        <pt x="795" y="-6" on="0"/>
        <pt x="619" y="-6" on="1"/>
        <pt x="495" y="-6" on="0"/>
        <pt x="316" y="-1" on="0"/>
        <pt x="213" y="0" on="1"/>
        <pt x="201" y="12" on="1"/>
        <pt x="201" y="1354" on="1"/>
      </contour>
      <contour>
        <pt x="342" y="112" on="1"/>
        <pt x="414" y="112" on="0"/>
        <pt x="561" y="114" on="0"/>
        <pt x="634" y="114" on="1"/>
        <pt x="728" y="114" on="0"/>
        <pt x="846" y="166" on="0"/>
        <pt x="908" y="249" on="0"/>
        <pt x="932" y="344" on="0"/>
        <pt x="932" y="386" on="1"/>
        <pt x="932" y="440" on="0"/>
        <pt x="877" y="566" on="0"/>
        <pt x="739" y="657" on="0"/>
        <pt x="614" y="657" on="1"/>
        <pt x="283" y="657" on="1"/>
        <pt x="283" y="779" on="1"/>
        <pt x="596" y="779" on="1"/>
        <pt x="707" y="779" on="0"/>
        <pt x="824" y="853" on="0"/>
        <pt x="865" y="963" on="0"/>
        <pt x="865" y="1016" on="1"/>
        <pt x="865" y="1072" on="0"/>
        <pt x="828" y="1180" on="0"/>
        <pt x="715" y="1252" on="0"/>
        <pt x="602" y="1252" on="1"/>
        <pt x="550" y="1252" on="0"/>
        <pt x="398" y="1252" on="0"/>
        <pt x="342" y="1254" on="1"/>
      </contour>
    </TTGlyph>
    <TTGlyph name="C" xMin="117" yMin="-24" xMax="1101" yMax="1390">
      <contour>
        <pt x="957" y="942" on="1"/>
        <pt x="957" y="1013" on="0"/>
        <pt x="899" y="1165" on="0"/>
        <pt x="760" y="1270" on="0"/>
        <pt x="640" y="1270" on="1"/>
        <pt x="462" y="1270" on="0"/>
        <pt x="266" y="968" on="0"/>
        <pt x="266" y="676" on="1"/>
        <pt x="266" y="405" on="0"/>
        <pt x="464" y="100" on="0"/>
        <pt x="635" y="100" on="1"/>
        <pt x="722" y="100" on="0"/>
        <pt x="906" y="174" on="0"/>
        <pt x="1004" y="260" on="1"/>
        <pt x="1030" y="244" on="0"/>
        <pt x="1074" y="193" on="0"/>
        <pt x="1083" y="168" on="1"/>
        <pt x="1030" y="114" on="0"/>
        <pt x="886" y="27" on="0"/>
        <pt x="713" y="-24" on="0"/>
        <pt x="616" y="-24" on="1"/>
        <pt x="481" y="-24" on="0"/>
        <pt x="291" y="91" on="0"/>
        <pt x="172" y="289" on="0"/>
        <pt x="117" y="540" on="0"/>
        <pt x="117" y="676" on="1"/>
        <pt x="117" y="923" on="0"/>
        <pt x="262" y="1239" on="0"/>
        <pt x="500" y="1390" on="0"/>
        <pt x="640" y="1390" on="1"/>
        <pt x="784" y="1390" on="0"/>
        <pt x="990" y="1278" on="0"/>
        <pt x="1101" y="1106" on="0"/>
        <pt x="1101" y="1017" on="1"/>
        <pt x="1101" y="988" on="0"/>
        <pt x="1073" y="932" on="0"/>
        <pt x="1023" y="932" on="1"/>
        <pt x="1005" y="932" on="0"/>
        <pt x="978" y="936" on="0"/>
      </contour>
    </TTGlyph>
    <TTGlyph name="Cacute" xMin="117" yMin="-24" xMax="1101" yMax="1758">
      <component glyphName="C" x="0" y="0" flags="0x204"/>
      <component glyphName="glyph00443" x="238" y="2" flags="0x4"/>
    </TTGlyph>
    <TTGlyph name="Ccaron" xMin="117" yMin="-24" xMax="1101" yMax="1751">
      <component glyphName="C" x="0" y="0" flags="0x204"/>
      <component glyphName="glyph00446" x="238" y="2" flags="0x4"/>
    </TTGlyph>
    <TTGlyph name="Ccedilla" xMin="117" yMin="-436" xMax="1101" yMax="1390">
      <component glyphName="C" x="0" y="0" flags="0x204"/>
      <component glyphName="uni0327" x="230" y="0" flags="0x4"/>
    </TTGlyph>
    <TTGlyph name="Ccircumflex" xMin="117" yMin="-24" xMax="1101" yMax="1754">
      <component glyphName="C" x="0" y="0" flags="0x204"/>
      <component glyphName="glyph00445" x="238" y="2" flags="0x4"/>
    </TTGlyph>
    <TTGlyph name="Cdotaccent" xMin="117" yMin="-24" xMax="1101" yMax="1672">
      <component glyphName="C" x="0" y="0" flags="0x204"/>
      <component glyphName="glyph00441" x="238" y="2" flags="0x4"/>
    </TTGlyph>
    <TTGlyph name="D" xMin="201" yMin="-8" xMax="1150" yMax="1372">
      <contour>
        <pt x="1150" y="682" on="1"/>
        <pt x="1150" y="565" on="0"/>
        <pt x="1121" y="352" on="0"/>
        <pt x="1033" y="168" on="0"/>
        <pt x="947" y="94" on="1"/>
        <pt x="905" y="58" on="0"/>
        <pt x="786" y="13" on="0"/>
        <pt x="662" y="-8" on="0"/>
        <pt x="611" y="-8" on="1"/>
        <pt x="533" y="-8" on="0"/>
        <pt x="420" y="-6" on="0"/>
        <pt x="300" y="-2" on="0"/>
        <pt x="213" y="0" on="1"/>
        <pt x="201" y="12" on="1"/>
        <pt x="201" y="1354" on="1"/>
        <pt x="213" y="1366" on="1"/>
        <pt x="300" y="1369" on="0"/>
        <pt x="420" y="1371" on="0"/>
        <pt x="533" y="1372" on="0"/>
        <pt x="611" y="1372" on="1"/>
        <pt x="662" y="1372" on="0"/>
        <pt x="786" y="1351" on="0"/>
        <pt x="905" y="1306" on="0"/>
        <pt x="947" y="1270" on="1"/>
        <pt x="1032" y="1196" on="0"/>
        <pt x="1120" y="1011" on="0"/>
        <pt x="1150" y="798" on="0"/>
      </contour>
      <contour>
        <pt x="1001" y="682" on="1"/>
        <pt x="1001" y="781" on="0"/>
        <pt x="973" y="982" on="0"/>
        <pt x="893" y="1150" on="0"/>
        <pt x="737" y="1252" on="0"/>
        <pt x="609" y="1252" on="1"/>
        <pt x="538" y="1252" on="0"/>
        <pt x="420" y="1254" on="0"/>
        <pt x="342" y="1254" on="1"/>
        <pt x="342" y="114" on="1"/>
        <pt x="420" y="114" on="0"/>
        <pt x="538" y="112" on="0"/>
        <pt x="609" y="112" on="1"/>
        <pt x="737" y="112" on="0"/>
        <pt x="893" y="215" on="0"/>
        <pt x="973" y="383" on="0"/>
        <pt x="1001" y="584" on="0"/>
      </contour>
    </TTGlyph>
    <TTGlyph name="Dcaron" xMin="201" yMin="-8" xMax="1150" yMax="1749">
      <component glyphName="D" x="0" y="0" flags="0x204"/>
      <component glyphName="glyph00446" x="203" y="0" flags="0x4"/>
    </TTGlyph>
    <TTGlyph name="Dcroat" xMin="60" yMin="-8" xMax="1182" yMax="1372">
      <component glyphName="Eth" x="0" y="0" flags="0x204"/>
    </TTGlyph>
    <TTGlyph name="Delta" xMin="52" yMin="0" xMax="1134" yMax="1372">
      <contour>
        <pt x="74" y="0" on="1"/>
        <pt x="59" y="46" on="0"/>
        <pt x="52" y="83" on="0"/>
        <pt x="52" y="96" on="1"/>
        <pt x="52" y="110" on="0"/>
        <pt x="57" y="132" on="0"/>
        <pt x="60" y="142" on="1"/>
        <pt x="513" y="1366" on="1"/>
        <pt x="529" y="1369" on="0"/>
        <pt x="578" y="1372" on="0"/>
        <pt x="595" y="1372" on="1"/>
        <pt x="611" y="1372" on="0"/>
        <pt x="660" y="1369" on="0"/>
        <pt x="671" y="1366" on="1"/>
        <pt x="1126" y="142" on="1"/>
        <pt x="1129" y="132" on="0"/>
        <pt x="1134" y="110" on="0"/>
        <pt x="1134" y="96" on="1"/>
        <pt x="1134" y="83" on="0"/>
        <pt x="1127" y="46" on="0"/>
        <pt x="1113" y="0" on="1"/>
      </contour>
      <contour>
        <pt x="975" y="136" on="1"/>
        <pt x="701" y="882" on="1"/>
        <pt x="673" y="958" on="0"/>
        <pt x="609" y="1144" on="0"/>
        <pt x="589" y="1210" on="1"/>
        <pt x="579" y="1210" on="1"/>
        <pt x="563" y="1154" on="0"/>
        <pt x="517" y="1021" on="0"/>
        <pt x="504" y="985" on="1"/>
        <pt x="193" y="136" on="1"/>
        <pt x="199" y="128" on="1"/>
        <pt x="246" y="131" on="0"/>
        <pt x="367" y="134" on="0"/>
        <pt x="411" y="134" on="1"/>
        <pt x="766" y="134" on="1"/>
        <pt x="810" y="134" on="0"/>
        <pt x="924" y="129" on="0"/>
        <pt x="969" y="128" on="1"/>
      </contour>
    </TTGlyph>
    <TTGlyph name="E" xMin="201" yMin="0" xMax="1011" yMax="1366">
      <contour>
        <pt x="201" y="1354" on="1"/>
        <pt x="213" y="1366" on="1"/>
        <pt x="336" y="1366" on="1"/>
        <pt x="336" y="1250" on="1"/>
        <pt x="336" y="1208" on="0"/>
        <pt x="338" y="1163" on="0"/>
        <pt x="338" y="1123" on="1"/>
        <pt x="338" y="191" on="1"/>
        <pt x="338" y="171" on="0"/>
        <pt x="336" y="138" on="0"/>
        <pt x="336" y="118" on="1"/>
        <pt x="336" y="0" on="1"/>
        <pt x="281" y="0" on="1"/>
        <pt x="244" y="0" on="0"/>
        <pt x="201" y="50" on="0"/>
        <pt x="201" y="95" on="1"/>
      </contour>
      <contour>
        <pt x="878" y="753" on="1"/>
        <pt x="880" y="737" on="0"/>
        <pt x="883" y="704" on="0"/>
        <pt x="883" y="692" on="1"/>
        <pt x="883" y="680" on="0"/>
        <pt x="880" y="647" on="0"/>
        <pt x="878" y="631" on="1"/>
        <pt x="456" y="631" on="1"/>
        <pt x="434" y="631" on="0"/>
        <pt x="378" y="632" on="0"/>
        <pt x="318" y="633" on="0"/>
        <pt x="289" y="633" on="1"/>
        <pt x="289" y="751" on="1"/>
        <pt x="318" y="751" on="0"/>
        <pt x="378" y="752" on="0"/>
        <pt x="434" y="753" on="0"/>
        <pt x="456" y="753" on="1"/>
      </contour>
      <contour>
        <pt x="979" y="1366" on="1"/>
        <pt x="982" y="1350" on="0"/>
        <pt x="983" y="1321" on="0"/>
        <pt x="983" y="1309" on="1"/>
        <pt x="983" y="1297" on="0"/>
        <pt x="979" y="1261" on="0"/>
        <pt x="973" y="1244" on="1"/>
        <pt x="456" y="1244" on="1"/>
        <pt x="434" y="1244" on="0"/>
        <pt x="378" y="1244" on="0"/>
        <pt x="318" y="1245" on="0"/>
        <pt x="289" y="1246" on="1"/>
        <pt x="289" y="1366" on="1"/>
      </contour>
      <contour>
        <pt x="1011" y="124" on="1"/>
        <pt x="1011" y="50" on="0"/>
        <pt x="967" y="0" on="0"/>
        <pt x="917" y="0" on="1"/>
        <pt x="289" y="0" on="1"/>
        <pt x="289" y="116" on="1"/>
        <pt x="326" y="119" on="0"/>
        <pt x="404" y="124" on="0"/>
        <pt x="458" y="124" on="1"/>
      </contour>
    </TTGlyph>
    <TTGlyph name="Eacute" xMin="201" yMin="0" xMax="1011" yMax="1756">
      <component glyphName="E" x="0" y="0" flags="0x204"/>
      <component glyphName="glyph00443" x="200" y="0" flags="0x4"/>
    </TTGlyph>
    <TTGlyph name="Ebreve" xMin="201" yMin="0" xMax="1011" yMax="1724">
      <component glyphName="E" x="0" y="0" flags="0x204"/>
      <component glyphName="glyph00447" x="200" y="0" flags="0x4"/>
    </TTGlyph>
    <TTGlyph name="Ecaron" xMin="201" yMin="0" xMax="1011" yMax="1749">
      <component glyphName="E" x="0" y="0" flags="0x204"/>
      <component glyphName="glyph00446" x="200" y="0" flags="0x4"/>
    </TTGlyph>
    <TTGlyph name="Ecircumflex" xMin="201" yMin="0" xMax="1011" yMax="1752">
      <component glyphName="E" x="0" y="0" flags="0x204"/>
      <component glyphName="glyph00445" x="200" y="0" flags="0x4"/>
    </TTGlyph>
    <TTGlyph name="Edieresis" xMin="201" yMin="0" xMax="1011" yMax="1647">
      <component glyphName="E" x="0" y="0" flags="0x204"/>
      <component glyphName="glyph00440" x="200" y="0" flags="0x4"/>
    </TTGlyph>
    <TTGlyph name="Edotaccent" xMin="201" yMin="0" xMax="1011" yMax="1670">
      <component glyphName="E" x="0" y="0" flags="0x204"/>
      <component glyphName="glyph00441" x="200" y="0" flags="0x4"/>
    </TTGlyph>
    <TTGlyph name="Egrave" xMin="201" yMin="0" xMax="1011" yMax="1756">
      <component glyphName="E" x="0" y="0" flags="0x204"/>
      <component glyphName="glyph00442" x="200" y="0" flags="0x4"/>
    </TTGlyph>
    <TTGlyph name="Emacron" xMin="201" yMin="0" xMax="1011" yMax="1638">
      <component glyphName="E" x="0" y="0" flags="0x204"/>
      <component glyphName="glyph00450" x="200" y="0" flags="0x4"/>
    </TTGlyph>
    <TTGlyph name="Eng" xMin="201" yMin="-448" xMax="1138" yMax="1372">
      <contour>
        <pt x="658" y="-296" on="1"/>
        <pt x="738" y="-330" on="0"/>
        <pt x="806" y="-330" on="1"/>
        <pt x="911" y="-330" on="0"/>
        <pt x="1011" y="-177" on="0"/>
        <pt x="1011" y="-30" on="1"/>
        <pt x="1011" y="79" on="1"/>
        <pt x="1037" y="84" on="0"/>
        <pt x="1078" y="84" on="1"/>
        <pt x="1094" y="84" on="0"/>
        <pt x="1127" y="81" on="0"/>
        <pt x="1138" y="79" on="1"/>
        <pt x="1138" y="0" on="1"/>
        <pt x="1138" y="-147" on="0"/>
        <pt x="1065" y="-347" on="0"/>
        <pt x="916" y="-448" on="0"/>
        <pt x="804" y="-448" on="1"/>
        <pt x="766" y="-448" on="0"/>
        <pt x="657" y="-425" on="0"/>
        <pt x="612" y="-404" on="1"/>
        <pt x="624" y="-341" on="0"/>
      </contour>
      <contour>
        <pt x="201" y="1366" on="1"/>
        <pt x="218" y="1369" on="0"/>
        <pt x="273" y="1372" on="0"/>
        <pt x="285" y="1372" on="1"/>
        <pt x="300" y="1372" on="0"/>
        <pt x="356" y="1369" on="0"/>
        <pt x="374" y="1366" on="1"/>
        <pt x="334" y="1195" on="1"/>
        <pt x="320" y="1195" on="1"/>
        <pt x="322" y="1136" on="0"/>
        <pt x="328" y="993" on="0"/>
        <pt x="332" y="845" on="0"/>
        <pt x="332" y="776" on="1"/>
        <pt x="332" y="0" on="1"/>
        <pt x="313" y="-3" on="0"/>
        <pt x="280" y="-6" on="0"/>
        <pt x="265" y="-6" on="1"/>
        <pt x="251" y="-6" on="0"/>
        <pt x="218" y="-3" on="0"/>
        <pt x="201" y="0" on="1"/>
      </contour>
      <contour>
        <pt x="465" y="921" on="1"/>
        <pt x="426" y="993" on="0"/>
        <pt x="359" y="1127" on="0"/>
        <pt x="326" y="1195" on="1"/>
        <pt x="201" y="1346" on="1"/>
        <pt x="374" y="1366" on="1"/>
        <pt x="873" y="445" on="1"/>
        <pt x="912" y="373" on="0"/>
        <pt x="980" y="231" on="0"/>
        <pt x="1013" y="165" on="1"/>
        <pt x="1138" y="40" on="1"/>
        <pt x="964" y="0" on="1"/>
      </contour>
      <contour>
        <pt x="1138" y="1362" on="1"/>
        <pt x="1138" y="0" on="1"/>
        <pt x="1121" y="-3" on="0"/>
        <pt x="1065" y="-6" on="0"/>
        <pt x="1052" y="-6" on="1"/>
        <pt x="1039" y="-6" on="0"/>
        <pt x="981" y="-3" on="0"/>
        <pt x="964" y="0" on="1"/>
        <pt x="1005" y="165" on="1"/>
        <pt x="1019" y="165" on="1"/>
        <pt x="1016" y="237" on="0"/>
        <pt x="1010" y="390" on="0"/>
        <pt x="1007" y="542" on="0"/>
        <pt x="1007" y="611" on="1"/>
        <pt x="1007" y="1280" on="1"/>
        <pt x="1007" y="1325" on="0"/>
        <pt x="1032" y="1372" on="0"/>
        <pt x="1079" y="1372" on="1"/>
        <pt x="1126" y="1372" on="1"/>
      </contour>
    </TTGlyph>
    <TTGlyph name="Eogonek" xMin="201" yMin="-434" xMax="1024" yMax="1366">
      <contour>
        <pt x="988" y="-295" on="1"/>
        <pt x="1003" y="-307" on="0"/>
        <pt x="1024" y="-345" on="0"/>
        <pt x="1024" y="-370" on="1"/>
        <pt x="991" y="-397" on="0"/>
        <pt x="883" y="-434" on="0"/>
        <pt x="828" y="-434" on="1"/>
        <pt x="743" y="-434" on="0"/>
        <pt x="629" y="-341" on="0"/>
        <pt x="629" y="-254" on="1"/>
        <pt x="629" y="-168" on="0"/>
        <pt x="752" y="-11" on="0"/>
        <pt x="845" y="34" on="1"/>
        <pt x="873" y="40" on="0"/>
        <pt x="945" y="21" on="0"/>
        <pt x="960" y="6" on="1"/>
        <pt x="868" y="-33" on="0"/>
        <pt x="753" y="-166" on="0"/>
        <pt x="753" y="-229" on="1"/>
        <pt x="753" y="-279" on="0"/>
        <pt x="813" y="-331" on="0"/>
        <pt x="860" y="-331" on="1"/>
        <pt x="896" y="-331" on="0"/>
        <pt x="962" y="-309" on="0"/>
      </contour>
      <contour>
        <pt x="201" y="1354" on="1"/>
        <pt x="213" y="1366" on="1"/>
        <pt x="336" y="1366" on="1"/>
        <pt x="336" y="1250" on="1"/>
        <pt x="336" y="1208" on="0"/>
        <pt x="338" y="1163" on="0"/>
        <pt x="338" y="1123" on="1"/>
        <pt x="338" y="191" on="1"/>
        <pt x="338" y="171" on="0"/>
        <pt x="336" y="138" on="0"/>
        <pt x="336" y="118" on="1"/>
        <pt x="336" y="0" on="1"/>
        <pt x="281" y="0" on="1"/>
        <pt x="244" y="0" on="0"/>
        <pt x="201" y="50" on="0"/>
        <pt x="201" y="95" on="1"/>
      </contour>
      <contour>
        <pt x="878" y="753" on="1"/>
        <pt x="880" y="737" on="0"/>
        <pt x="883" y="704" on="0"/>
        <pt x="883" y="692" on="1"/>
        <pt x="883" y="680" on="0"/>
        <pt x="880" y="647" on="0"/>
        <pt x="878" y="631" on="1"/>
        <pt x="456" y="631" on="1"/>
        <pt x="434" y="631" on="0"/>
        <pt x="378" y="632" on="0"/>
        <pt x="318" y="633" on="0"/>
        <pt x="289" y="633" on="1"/>
        <pt x="289" y="751" on="1"/>
        <pt x="318" y="751" on="0"/>
        <pt x="378" y="752" on="0"/>
        <pt x="434" y="753" on="0"/>
        <pt x="456" y="753" on="1"/>
      </contour>
      <contour>
        <pt x="979" y="1366" on="1"/>
        <pt x="982" y="1350" on="0"/>
        <pt x="983" y="1321" on="0"/>
        <pt x="983" y="1309" on="1"/>
        <pt x="983" y="1297" on="0"/>
        <pt x="979" y="1261" on="0"/>
        <pt x="973" y="1244" on="1"/>
        <pt x="456" y="1244" on="1"/>
        <pt x="434" y="1244" on="0"/>
        <pt x="378" y="1244" on="0"/>
        <pt x="318" y="1245" on="0"/>
        <pt x="289" y="1246" on="1"/>
        <pt x="289" y="1366" on="1"/>
      </contour>
      <contour>
        <pt x="1011" y="124" on="1"/>
        <pt x="1011" y="64" on="0"/>
        <pt x="986" y="16" on="0"/>
        <pt x="960" y="6" on="1"/>
        <pt x="942" y="0" on="0"/>
        <pt x="917" y="0" on="1"/>
        <pt x="289" y="0" on="1"/>
        <pt x="289" y="116" on="1"/>
        <pt x="326" y="119" on="0"/>
        <pt x="404" y="124" on="0"/>
        <pt x="458" y="124" on="1"/>
      </contour>
    </TTGlyph>
    <TTGlyph name="Eth" xMin="60" yMin="-8" xMax="1182" yMax="1372">
      <contour>
        <pt x="1182" y="684" on="1"/>
        <pt x="1182" y="567" on="0"/>
        <pt x="1153" y="353" on="0"/>
        <pt x="1065" y="168" on="0"/>
        <pt x="979" y="94" on="1"/>
        <pt x="937" y="58" on="0"/>
        <pt x="818" y="13" on="0"/>
        <pt x="694" y="-8" on="0"/>
        <pt x="643" y="-8" on="1"/>
        <pt x="565" y="-8" on="0"/>
        <pt x="452" y="-6" on="0"/>
        <pt x="332" y="-2" on="0"/>
        <pt x="245" y="0" on="1"/>
        <pt x="233" y="12" on="1"/>
        <pt x="233" y="1354" on="1"/>
        <pt x="245" y="1366" on="1"/>
        <pt x="332" y="1369" on="0"/>
        <pt x="452" y="1371" on="0"/>
        <pt x="565" y="1372" on="0"/>
        <pt x="643" y="1372" on="1"/>
        <pt x="694" y="1372" on="0"/>
        <pt x="818" y="1351" on="0"/>
        <pt x="937" y="1306" on="0"/>
        <pt x="979" y="1270" on="1"/>
        <pt x="1064" y="1196" on="0"/>
        <pt x="1152" y="1012" on="0"/>
        <pt x="1182" y="800" on="0"/>
      </contour>
      <contour>
        <pt x="1033" y="684" on="1"/>
        <pt x="1033" y="783" on="0"/>
        <pt x="1005" y="983" on="0"/>
        <pt x="925" y="1150" on="0"/>
        <pt x="769" y="1252" on="0"/>
        <pt x="641" y="1252" on="1"/>
        <pt x="570" y="1252" on="0"/>
        <pt x="452" y="1254" on="0"/>
        <pt x="374" y="1254" on="1"/>
        <pt x="374" y="114" on="1"/>
        <pt x="452" y="114" on="0"/>
        <pt x="570" y="112" on="0"/>
        <pt x="641" y="112" on="1"/>
        <pt x="769" y="112" on="0"/>
        <pt x="925" y="215" on="0"/>
        <pt x="1005" y="385" on="0"/>
        <pt x="1033" y="586" on="0"/>
      </contour>
      <contour>
        <pt x="66" y="631" on="1"/>
        <pt x="63" y="644" on="0"/>
        <pt x="60" y="671" on="0"/>
        <pt x="60" y="690" on="1"/>
        <pt x="60" y="711" on="0"/>
        <pt x="63" y="738" on="0"/>
        <pt x="66" y="753" on="1"/>
        <pt x="720" y="753" on="1"/>
        <pt x="722" y="738" on="0"/>
        <pt x="725" y="711" on="0"/>
        <pt x="725" y="690" on="1"/>
        <pt x="725" y="671" on="0"/>
        <pt x="722" y="644" on="0"/>
        <pt x="720" y="631" on="1"/>
      </contour>
    </TTGlyph>
    <TTGlyph name="Euro" xMin="63" yMin="-24" xMax="1073" yMax="1320">
      <contour>
        <pt x="69" y="732" on="1"/>
        <pt x="66" y="746" on="0"/>
        <pt x="63" y="764" on="0"/>
        <pt x="63" y="784" on="1"/>
        <pt x="63" y="805" on="0"/>
        <pt x="66" y="824" on="0"/>
        <pt x="69" y="839" on="1"/>
        <pt x="832" y="839" on="1"/>
        <pt x="835" y="824" on="0"/>
        <pt x="838" y="805" on="0"/>
        <pt x="838" y="784" on="1"/>
        <pt x="838" y="764" on="0"/>
        <pt x="835" y="746" on="0"/>
        <pt x="832" y="732" on="1"/>
      </contour>
      <contour>
        <pt x="69" y="449" on="1"/>
        <pt x="66" y="462" on="0"/>
        <pt x="63" y="481" on="0"/>
        <pt x="63" y="500" on="1"/>
        <pt x="63" y="521" on="0"/>
        <pt x="66" y="541" on="0"/>
        <pt x="69" y="556" on="1"/>
        <pt x="832" y="556" on="1"/>
        <pt x="835" y="541" on="0"/>
        <pt x="838" y="521" on="0"/>
        <pt x="838" y="500" on="1"/>
        <pt x="838" y="481" on="0"/>
        <pt x="835" y="462" on="0"/>
        <pt x="832" y="449" on="1"/>
      </contour>
      <contour>
        <pt x="998" y="1074" on="1"/>
        <pt x="922" y="1131" on="0"/>
        <pt x="755" y="1194" on="0"/>
        <pt x="686" y="1194" on="1"/>
        <pt x="517" y="1194" on="0"/>
        <pt x="354" y="919" on="0"/>
        <pt x="354" y="648" on="1"/>
        <pt x="354" y="377" on="0"/>
        <pt x="517" y="102" on="0"/>
        <pt x="686" y="102" on="1"/>
        <pt x="755" y="102" on="0"/>
        <pt x="922" y="165" on="0"/>
        <pt x="998" y="222" on="1"/>
        <pt x="1025" y="206" on="0"/>
        <pt x="1064" y="153" on="0"/>
        <pt x="1073" y="128" on="1"/>
        <pt x="979" y="50" on="0"/>
        <pt x="767" y="-24" on="0"/>
        <pt x="670" y="-24" on="1"/>
        <pt x="538" y="-24" on="0"/>
        <pt x="360" y="83" on="0"/>
        <pt x="254" y="269" on="0"/>
        <pt x="209" y="512" on="0"/>
        <pt x="209" y="648" on="1"/>
        <pt x="209" y="784" on="0"/>
        <pt x="254" y="1027" on="0"/>
        <pt x="360" y="1213" on="0"/>
        <pt x="538" y="1320" on="0"/>
        <pt x="670" y="1320" on="1"/>
        <pt x="767" y="1320" on="0"/>
        <pt x="980" y="1243" on="0"/>
        <pt x="1073" y="1168" on="1"/>
        <pt x="1064" y="1143" on="0"/>
        <pt x="1025" y="1090" on="0"/>
      </contour>
    </TTGlyph>
    <TTGlyph name="F" xMin="201" yMin="-6" xMax="973" yMax="1366">
      <contour>
        <pt x="342" y="0" on="1"/>
        <pt x="327" y="-3" on="0"/>
        <pt x="290" y="-6" on="0"/>
        <pt x="269" y="-6" on="1"/>
        <pt x="250" y="-6" on="0"/>
        <pt x="214" y="-3" on="0"/>
        <pt x="201" y="0" on="1"/>
        <pt x="201" y="1354" on="1"/>
        <pt x="213" y="1366" on="1"/>
        <pt x="340" y="1366" on="1"/>
        <pt x="340" y="1254" on="1"/>
        <pt x="340" y="1180" on="0"/>
        <pt x="342" y="1032" on="0"/>
        <pt x="342" y="958" on="1"/>
      </contour>
      <contour>
        <pt x="963" y="1366" on="1"/>
        <pt x="968" y="1353" on="0"/>
        <pt x="973" y="1322" on="0"/>
        <pt x="973" y="1307" on="1"/>
        <pt x="973" y="1273" on="0"/>
        <pt x="931" y="1242" on="0"/>
        <pt x="886" y="1242" on="1"/>
        <pt x="563" y="1242" on="1"/>
        <pt x="476" y="1242" on="0"/>
        <pt x="340" y="1246" on="0"/>
        <pt x="289" y="1250" on="1"/>
        <pt x="289" y="1366" on="1"/>
      </contour>
      <contour>
        <pt x="867" y="753" on="1"/>
        <pt x="870" y="737" on="0"/>
        <pt x="873" y="704" on="0"/>
        <pt x="873" y="692" on="1"/>
        <pt x="873" y="680" on="0"/>
        <pt x="870" y="648" on="0"/>
        <pt x="867" y="631" on="1"/>
        <pt x="457" y="631" on="1"/>
        <pt x="424" y="631" on="0"/>
        <pt x="333" y="633" on="0"/>
        <pt x="289" y="633" on="1"/>
        <pt x="289" y="751" on="1"/>
        <pt x="333" y="751" on="0"/>
        <pt x="424" y="753" on="0"/>
        <pt x="457" y="753" on="1"/>
      </contour>
    </TTGlyph>
    <TTGlyph name="G" xMin="117" yMin="-24" xMax="1129" yMax="1390">
      <contour>
        <pt x="1127" y="1240" on="1"/>
        <pt x="1118" y="1203" on="0"/>
        <pt x="1072" y="1144" on="0"/>
        <pt x="1050" y="1130" on="1"/>
        <pt x="975" y="1190" on="0"/>
        <pt x="782" y="1262" on="0"/>
        <pt x="669" y="1262" on="1"/>
        <pt x="565" y="1262" on="0"/>
        <pt x="381" y="1152" on="0"/>
        <pt x="266" y="894" on="0"/>
        <pt x="266" y="672" on="1"/>
        <pt x="266" y="391" on="0"/>
        <pt x="475" y="102" on="0"/>
        <pt x="683" y="102" on="1"/>
        <pt x="820" y="102" on="0"/>
        <pt x="1009" y="156" on="0"/>
        <pt x="1058" y="181" on="1"/>
        <pt x="1129" y="64" on="1"/>
        <pt x="1037" y="27" on="0"/>
        <pt x="794" y="-24" on="0"/>
        <pt x="658" y="-24" on="1"/>
        <pt x="502" y="-24" on="0"/>
        <pt x="293" y="98" on="0"/>
        <pt x="170" y="300" on="0"/>
        <pt x="117" y="548" on="0"/>
        <pt x="117" y="674" on="1"/>
        <pt x="117" y="870" on="0"/>
        <pt x="214" y="1143" on="0"/>
        <pt x="377" y="1312" on="0"/>
        <pt x="578" y="1390" on="0"/>
        <pt x="682" y="1390" on="1"/>
        <pt x="801" y="1390" on="0"/>
        <pt x="1045" y="1310" on="0"/>
      </contour>
      <contour>
        <pt x="989" y="433" on="1"/>
        <pt x="989" y="502" on="0"/>
        <pt x="996" y="595" on="0"/>
        <pt x="1003" y="627" on="1"/>
        <pt x="1129" y="582" on="1"/>
        <pt x="1129" y="64" on="1"/>
        <pt x="989" y="60" on="1"/>
      </contour>
      <contour>
        <pt x="1016" y="680" on="1"/>
        <pt x="1078" y="680" on="0"/>
        <pt x="1129" y="634" on="0"/>
        <pt x="1129" y="582" on="1"/>
        <pt x="1129" y="557" on="1"/>
        <pt x="1072" y="556" on="0"/>
        <pt x="942" y="554" on="0"/>
        <pt x="816" y="553" on="0"/>
        <pt x="765" y="553" on="1"/>
        <pt x="733" y="553" on="0"/>
        <pt x="701" y="586" on="0"/>
        <pt x="701" y="620" on="1"/>
        <pt x="701" y="631" on="0"/>
        <pt x="708" y="667" on="0"/>
        <pt x="713" y="680" on="1"/>
      </contour>
    </TTGlyph>
    <TTGlyph name="Gbreve" xMin="117" yMin="-24" xMax="1129" yMax="1724">
      <component glyphName="G" x="0" y="0" flags="0x204"/>
      <component glyphName="glyph00447" x="284" y="0" flags="0x4"/>
    </TTGlyph>
    <TTGlyph name="Gcircumflex" xMin="117" yMin="-24" xMax="1129" yMax="1752">
      <component glyphName="G" x="0" y="0" flags="0x204"/>
      <component glyphName="glyph00445" x="284" y="0" flags="0x4"/>
    </TTGlyph>
    <TTGlyph name="Gdotaccent" xMin="117" yMin="-24" xMax="1129" yMax="1670">
      <component glyphName="G" x="0" y="0" flags="0x204"/>
      <component glyphName="glyph00441" x="284" y="0" flags="0x4"/>
    </TTGlyph>
    <TTGlyph name="H" xMin="201" yMin="-6" xMax="1133" yMax="1372">
      <contour>
        <pt x="462" y="643" on="1"/>
        <pt x="456" y="643" on="0"/>
        <pt x="402" y="644" on="0"/>
        <pt x="347" y="645" on="0"/>
        <pt x="340" y="645" on="1"/>
        <pt x="319" y="645" on="0"/>
        <pt x="278" y="643" on="0"/>
        <pt x="258" y="643" on="1"/>
        <pt x="258" y="769" on="1"/>
        <pt x="278" y="769" on="0"/>
        <pt x="319" y="767" on="0"/>
        <pt x="340" y="767" on="1"/>
        <pt x="347" y="767" on="0"/>
        <pt x="402" y="768" on="0"/>
        <pt x="456" y="769" on="0"/>
        <pt x="462" y="769" on="1"/>
        <pt x="871" y="769" on="1"/>
        <pt x="877" y="769" on="0"/>
        <pt x="931" y="768" on="0"/>
        <pt x="987" y="767" on="0"/>
        <pt x="993" y="767" on="1"/>
        <pt x="1014" y="767" on="0"/>
        <pt x="1055" y="769" on="0"/>
        <pt x="1076" y="769" on="1"/>
        <pt x="1076" y="643" on="1"/>
        <pt x="1055" y="643" on="0"/>
        <pt x="1014" y="645" on="0"/>
        <pt x="993" y="645" on="1"/>
        <pt x="987" y="645" on="0"/>
        <pt x="931" y="644" on="0"/>
        <pt x="877" y="643" on="0"/>
        <pt x="871" y="643" on="1"/>
      </contour>
      <contour>
        <pt x="342" y="0" on="1"/>
        <pt x="327" y="-3" on="0"/>
        <pt x="290" y="-6" on="0"/>
        <pt x="269" y="-6" on="1"/>
        <pt x="250" y="-6" on="0"/>
        <pt x="214" y="-3" on="0"/>
        <pt x="201" y="0" on="1"/>
        <pt x="201" y="1366" on="1"/>
        <pt x="214" y="1369" on="0"/>
        <pt x="250" y="1372" on="0"/>
        <pt x="269" y="1372" on="1"/>
        <pt x="290" y="1372" on="0"/>
        <pt x="327" y="1369" on="0"/>
        <pt x="342" y="1366" on="1"/>
        <pt x="342" y="915" on="1"/>
        <pt x="342" y="873" on="0"/>
        <pt x="340" y="807" on="0"/>
        <pt x="340" y="767" on="1"/>
        <pt x="340" y="645" on="1"/>
        <pt x="340" y="605" on="0"/>
        <pt x="342" y="539" on="0"/>
        <pt x="342" y="497" on="1"/>
      </contour>
      <contour>
        <pt x="991" y="497" on="1"/>
        <pt x="991" y="539" on="0"/>
        <pt x="993" y="605" on="0"/>
        <pt x="993" y="645" on="1"/>
        <pt x="993" y="767" on="1"/>
        <pt x="993" y="807" on="0"/>
        <pt x="991" y="873" on="0"/>
        <pt x="991" y="915" on="1"/>
        <pt x="991" y="1366" on="1"/>
        <pt x="1005" y="1369" on="0"/>
        <pt x="1041" y="1372" on="0"/>
        <pt x="1060" y="1372" on="1"/>
        <pt x="1081" y="1372" on="0"/>
        <pt x="1118" y="1369" on="0"/>
        <pt x="1133" y="1366" on="1"/>
        <pt x="1133" y="0" on="1"/>
        <pt x="1118" y="-3" on="0"/>
        <pt x="1081" y="-6" on="0"/>
        <pt x="1060" y="-6" on="1"/>
        <pt x="1041" y="-6" on="0"/>
        <pt x="1005" y="-3" on="0"/>
        <pt x="991" y="0" on="1"/>
      </contour>
    </TTGlyph>
    <TTGlyph name="Hbar" xMin="55" yMin="-6" xMax="1299" yMax="1372">
      <contour>
        <pt x="60" y="996" on="1"/>
        <pt x="55" y="1023" on="0"/>
        <pt x="55" y="1055" on="1"/>
        <pt x="55" y="1076" on="0"/>
        <pt x="58" y="1104" on="0"/>
        <pt x="60" y="1119" on="1"/>
        <pt x="1293" y="1119" on="1"/>
        <pt x="1296" y="1104" on="0"/>
        <pt x="1299" y="1076" on="0"/>
        <pt x="1299" y="1055" on="1"/>
        <pt x="1299" y="1023" on="0"/>
        <pt x="1293" y="996" on="1"/>
      </contour>
      <contour>
        <pt x="472" y="643" on="1"/>
        <pt x="466" y="643" on="0"/>
        <pt x="412" y="644" on="0"/>
        <pt x="357" y="645" on="0"/>
        <pt x="350" y="645" on="1"/>
        <pt x="329" y="645" on="0"/>
        <pt x="288" y="643" on="0"/>
        <pt x="268" y="643" on="1"/>
        <pt x="268" y="769" on="1"/>
        <pt x="288" y="769" on="0"/>
        <pt x="329" y="767" on="0"/>
        <pt x="350" y="767" on="1"/>
        <pt x="357" y="767" on="0"/>
        <pt x="412" y="768" on="0"/>
        <pt x="466" y="769" on="0"/>
        <pt x="472" y="769" on="1"/>
        <pt x="881" y="769" on="1"/>
        <pt x="887" y="769" on="0"/>
        <pt x="941" y="768" on="0"/>
        <pt x="997" y="767" on="0"/>
        <pt x="1004" y="767" on="1"/>
        <pt x="1024" y="767" on="0"/>
        <pt x="1065" y="769" on="0"/>
        <pt x="1086" y="769" on="1"/>
        <pt x="1086" y="643" on="1"/>
        <pt x="1065" y="643" on="0"/>
        <pt x="1024" y="645" on="0"/>
        <pt x="1004" y="645" on="1"/>
        <pt x="997" y="645" on="0"/>
        <pt x="941" y="644" on="0"/>
        <pt x="887" y="643" on="0"/>
        <pt x="881" y="643" on="1"/>
      </contour>
      <contour>
        <pt x="352" y="0" on="1"/>
        <pt x="337" y="-3" on="0"/>
        <pt x="300" y="-6" on="0"/>
        <pt x="279" y="-6" on="1"/>
        <pt x="260" y="-6" on="0"/>
        <pt x="224" y="-3" on="0"/>
        <pt x="211" y="0" on="1"/>
        <pt x="211" y="1366" on="1"/>
        <pt x="224" y="1369" on="0"/>
        <pt x="260" y="1372" on="0"/>
        <pt x="279" y="1372" on="1"/>
        <pt x="300" y="1372" on="0"/>
        <pt x="337" y="1369" on="0"/>
        <pt x="352" y="1366" on="1"/>
        <pt x="352" y="915" on="1"/>
        <pt x="352" y="873" on="0"/>
        <pt x="350" y="808" on="0"/>
        <pt x="350" y="767" on="1"/>
        <pt x="350" y="645" on="1"/>
        <pt x="350" y="605" on="0"/>
        <pt x="352" y="539" on="0"/>
        <pt x="352" y="497" on="1"/>
      </contour>
      <contour>
        <pt x="1002" y="497" on="1"/>
        <pt x="1002" y="539" on="0"/>
        <pt x="1004" y="605" on="0"/>
        <pt x="1004" y="645" on="1"/>
        <pt x="1004" y="767" on="1"/>
        <pt x="1004" y="808" on="0"/>
        <pt x="1002" y="873" on="0"/>
        <pt x="1002" y="915" on="1"/>
        <pt x="1002" y="1366" on="1"/>
        <pt x="1015" y="1369" on="0"/>
        <pt x="1051" y="1372" on="0"/>
        <pt x="1070" y="1372" on="1"/>
        <pt x="1091" y="1372" on="0"/>
        <pt x="1128" y="1369" on="0"/>
        <pt x="1143" y="1366" on="1"/>
        <pt x="1143" y="0" on="1"/>
        <pt x="1128" y="-3" on="0"/>
        <pt x="1091" y="-6" on="0"/>
        <pt x="1070" y="-6" on="1"/>
        <pt x="1051" y="-6" on="0"/>
        <pt x="1015" y="-3" on="0"/>
        <pt x="1002" y="0" on="1"/>
      </contour>
    </TTGlyph>
    <TTGlyph name="Hcircumflex" xMin="201" yMin="-6" xMax="1133" yMax="1752">
      <component glyphName="H" x="0" y="0" flags="0x204"/>
      <component glyphName="glyph00445" x="268" y="0" flags="0x4"/>
    </TTGlyph>
    <TTGlyph name="I" xMin="209" yMin="-6" xMax="350" yMax="1372">
      <contour>
        <pt x="209" y="1366" on="1"/>
        <pt x="222" y="1369" on="0"/>
        <pt x="258" y="1372" on="0"/>
        <pt x="277" y="1372" on="1"/>
        <pt x="298" y="1372" on="0"/>
        <pt x="335" y="1369" on="0"/>
        <pt x="350" y="1366" on="1"/>
        <pt x="350" y="0" on="1"/>
        <pt x="335" y="-3" on="0"/>
        <pt x="298" y="-6" on="0"/>
        <pt x="277" y="-6" on="1"/>
        <pt x="258" y="-6" on="0"/>
        <pt x="222" y="-3" on="0"/>
        <pt x="209" y="0" on="1"/>
      </contour>
    </TTGlyph>
    <TTGlyph name="IJ" xMin="209" yMin="-20" xMax="1253" yMax="1372">
      <component glyphName="I" x="0" y="0" flags="0x4"/>
      <component glyphName="J" x="559" y="0" flags="0x4"/>
    </TTGlyph>
    <TTGlyph name="Iacute" xMin="108" yMin="-6" xMax="558" yMax="1756">
      <component glyphName="I" x="0" y="0" flags="0x204"/>
      <component glyphName="glyph00443" x="-119" y="0" flags="0x4"/>
    </TTGlyph>
    <TTGlyph name="Ibreve" xMin="-30" yMin="-6" xMax="588" yMax="1724">
      <component glyphName="I" x="0" y="0" flags="0x204"/>
      <component glyphName="glyph00447" x="-119" y="0" flags="0x4"/>
    </TTGlyph>
    <TTGlyph name="Icircumflex" xMin="-8" yMin="-6" xMax="566" yMax="1752">
      <component glyphName="I" x="0" y="0" flags="0x204"/>
      <component glyphName="glyph00445" x="-119" y="0" flags="0x4"/>
    </TTGlyph>
    <TTGlyph name="Idieresis" xMin="-10" yMin="-6" xMax="568" yMax="1647">
      <component glyphName="I" x="0" y="0" flags="0x204"/>
      <component glyphName="glyph00440" x="-119" y="0" flags="0x4"/>
    </TTGlyph>
    <TTGlyph name="Idotaccent" xMin="180" yMin="-6" xMax="378" yMax="1670">
      <component glyphName="I" x="0" y="0" flags="0x204"/>
      <component glyphName="glyph00441" x="-119" y="0" flags="0x4"/>
    </TTGlyph>
    <TTGlyph name="Igrave" xMin="30" yMin="-6" xMax="480" yMax="1756">
      <component glyphName="I" x="0" y="0" flags="0x204"/>
      <component glyphName="glyph00442" x="-119" y="0" flags="0x4"/>
    </TTGlyph>
    <TTGlyph name="Imacron" xMin="-6" yMin="-6" xMax="564" yMax="1638">
      <component glyphName="I" x="0" y="0" flags="0x204"/>
      <component glyphName="glyph00450" x="-119" y="0" flags="0x4"/>
    </TTGlyph>
    <TTGlyph name="Iogonek" xMin="65" yMin="-434" xMax="459" yMax="1372">
      <component glyphName="I" x="0" y="0" flags="0x204"/>
      <component glyphName="glyph00453" x="-125" y="0" flags="0x4"/>
    </TTGlyph>
    <TTGlyph name="Itilde" xMin="-56" yMin="-6" xMax="614" yMax="1712">
      <component glyphName="I" x="0" y="0" flags="0x204"/>
      <component glyphName="glyph00449" x="-119" y="0" flags="0x4"/>
    </TTGlyph>
    <TTGlyph name="J" xMin="20" yMin="-20" xMax="694" yMax="1372">
      <contour>
        <pt x="79" y="170" on="1"/>
        <pt x="126" y="141" on="0"/>
        <pt x="256" y="102" on="0"/>
        <pt x="316" y="102" on="1"/>
        <pt x="448" y="102" on="0"/>
        <pt x="553" y="261" on="0"/>
        <pt x="553" y="449" on="1"/>
        <pt x="553" y="1366" on="1"/>
        <pt x="568" y="1369" on="0"/>
        <pt x="605" y="1372" on="0"/>
        <pt x="626" y="1372" on="1"/>
        <pt x="645" y="1372" on="0"/>
        <pt x="681" y="1369" on="0"/>
        <pt x="694" y="1366" on="1"/>
        <pt x="694" y="479" on="1"/>
        <pt x="694" y="375" on="0"/>
        <pt x="669" y="194" on="0"/>
        <pt x="593" y="57" on="0"/>
        <pt x="444" y="-20" on="0"/>
        <pt x="322" y="-20" on="1"/>
        <pt x="245" y="-20" on="0"/>
        <pt x="81" y="25" on="0"/>
        <pt x="20" y="62" on="1"/>
        <pt x="27" y="94" on="0"/>
        <pt x="57" y="148" on="0"/>
      </contour>
    </TTGlyph>
    <TTGlyph name="Jcircumflex" xMin="20" yMin="-20" xMax="913" yMax="1752">
      <component glyphName="J" x="0" y="0" flags="0x204"/>
      <component glyphName="glyph00445" x="228" y="0" flags="0x4"/>
    </TTGlyph>
    <TTGlyph name="K" xMin="201" yMin="-10" xMax="1114" yMax="1372">
      <contour>
        <pt x="201" y="1366" on="1"/>
        <pt x="214" y="1369" on="0"/>
        <pt x="250" y="1372" on="0"/>
        <pt x="269" y="1372" on="1"/>
        <pt x="290" y="1372" on="0"/>
        <pt x="327" y="1369" on="0"/>
        <pt x="342" y="1366" on="1"/>
        <pt x="342" y="0" on="1"/>
        <pt x="327" y="-3" on="0"/>
        <pt x="290" y="-6" on="0"/>
        <pt x="269" y="-6" on="1"/>
        <pt x="250" y="-6" on="0"/>
        <pt x="214" y="-3" on="0"/>
        <pt x="201" y="0" on="1"/>
      </contour>
      <contour>
        <pt x="1114" y="39" on="1"/>
        <pt x="1099" y="16" on="0"/>
        <pt x="1039" y="-10" on="0"/>
        <pt x="1016" y="-10" on="1"/>
        <pt x="969" y="-10" on="0"/>
        <pt x="929" y="39" on="0"/>
        <pt x="911" y="85" on="1"/>
        <pt x="781" y="416" on="1"/>
        <pt x="731" y="543" on="0"/>
        <pt x="610" y="641" on="0"/>
        <pt x="509" y="641" on="1"/>
        <pt x="487" y="641" on="0"/>
        <pt x="368" y="640" on="0"/>
        <pt x="267" y="635" on="1"/>
        <pt x="267" y="738" on="1"/>
        <pt x="574" y="738" on="1"/>
        <pt x="670" y="738" on="0"/>
        <pt x="790" y="683" on="0"/>
        <pt x="871" y="566" on="0"/>
        <pt x="908" y="473" on="1"/>
        <pt x="1035" y="156" on="1"/>
        <pt x="1054" y="109" on="0"/>
        <pt x="1093" y="56" on="0"/>
      </contour>
      <contour>
        <pt x="863" y="1299" on="1"/>
        <pt x="884" y="1333" on="0"/>
        <pt x="923" y="1370" on="0"/>
        <pt x="966" y="1370" on="1"/>
        <pt x="985" y="1370" on="0"/>
        <pt x="1020" y="1367" on="0"/>
        <pt x="1040" y="1366" on="1"/>
        <pt x="1052" y="1350" on="1"/>
        <pt x="708" y="801" on="1"/>
        <pt x="673" y="744" on="0"/>
        <pt x="568" y="676" on="0"/>
        <pt x="499" y="676" on="1"/>
        <pt x="267" y="676" on="1"/>
        <pt x="267" y="761" on="1"/>
        <pt x="316" y="764" on="0"/>
        <pt x="448" y="767" on="0"/>
        <pt x="494" y="767" on="1"/>
        <pt x="519" y="767" on="0"/>
        <pt x="546" y="791" on="0"/>
        <pt x="561" y="815" on="1"/>
      </contour>
    </TTGlyph>
    <TTGlyph name="L" xMin="201" yMin="0" xMax="945" yMax="1372">
      <contour>
        <pt x="342" y="0" on="1"/>
        <pt x="283" y="0" on="1"/>
        <pt x="249" y="0" on="0"/>
        <pt x="201" y="48" on="0"/>
        <pt x="201" y="97" on="1"/>
        <pt x="201" y="1360" on="1"/>
        <pt x="213" y="1372" on="1"/>
        <pt x="270" y="1372" on="1"/>
        <pt x="317" y="1372" on="0"/>
        <pt x="342" y="1325" on="0"/>
        <pt x="342" y="1280" on="1"/>
      </contour>
      <contour>
        <pt x="945" y="126" on="1"/>
        <pt x="945" y="48" on="0"/>
        <pt x="900" y="0" on="0"/>
        <pt x="851" y="0" on="1"/>
        <pt x="283" y="0" on="1"/>
        <pt x="215" y="106" on="1"/>
        <pt x="281" y="116" on="0"/>
        <pt x="447" y="126" on="0"/>
        <pt x="514" y="126" on="1"/>
      </contour>
    </TTGlyph>
    <TTGlyph name="Lacute" xMin="98" yMin="0" xMax="945" yMax="1756">
      <component glyphName="L" x="0" y="0" flags="0x204"/>
      <component glyphName="glyph00443" x="-129" y="0" flags="0x4"/>
    </TTGlyph>
    <TTGlyph name="Lcaron" xMin="201" yMin="0" xMax="945" yMax="1425">
      <component glyphName="L" x="0" y="0" flags="0x204"/>
      <component glyphName="glyph00128" x="169" y="-110" flags="0x4"/>
    </TTGlyph>
    <TTGlyph name="Ldot" xMin="201" yMin="0" xMax="945" yMax="1372">
      <component glyphName="L" x="0" y="0" flags="0x204"/>
      <component glyphName="glyph00439" x="371" y="0" flags="0x4"/>
    </TTGlyph>
    <TTGlyph name="Lslash" xMin="55" yMin="0" xMax="953" yMax="1372">
      <contour>
        <pt x="330" y="634" on="1"/>
        <pt x="330" y="634" on="0"/>
        <pt x="305" y="628" on="0"/>
        <pt x="273" y="619" on="0"/>
        <pt x="248" y="613" on="0"/>
        <pt x="248" y="613" on="1"/>
        <pt x="73" y="553" on="1"/>
        <pt x="63" y="559" on="1"/>
        <pt x="55" y="586" on="0"/>
        <pt x="55" y="648" on="0"/>
        <pt x="61" y="673" on="1"/>
        <pt x="248" y="735" on="1"/>
        <pt x="330" y="756" on="1"/>
        <pt x="731" y="886" on="1"/>
        <pt x="741" y="880" on="1"/>
        <pt x="748" y="854" on="0"/>
        <pt x="749" y="791" on="0"/>
        <pt x="743" y="766" on="1"/>
      </contour>
      <contour>
        <pt x="350" y="0" on="1"/>
        <pt x="291" y="0" on="1"/>
        <pt x="257" y="0" on="0"/>
        <pt x="209" y="48" on="0"/>
        <pt x="209" y="97" on="1"/>
        <pt x="209" y="1360" on="1"/>
        <pt x="221" y="1372" on="1"/>
        <pt x="278" y="1372" on="1"/>
        <pt x="325" y="1372" on="0"/>
        <pt x="350" y="1325" on="0"/>
        <pt x="350" y="1280" on="1"/>
      </contour>
      <contour>
        <pt x="953" y="126" on="1"/>
        <pt x="953" y="48" on="0"/>
        <pt x="908" y="0" on="0"/>
        <pt x="859" y="0" on="1"/>
        <pt x="291" y="0" on="1"/>
        <pt x="223" y="106" on="1"/>
        <pt x="289" y="116" on="0"/>
        <pt x="455" y="126" on="0"/>
        <pt x="521" y="126" on="1"/>
      </contour>
    </TTGlyph>
    <TTGlyph name="M" xMin="173" yMin="-8" xMax="1408" yMax="1372">
      <contour>
        <pt x="279" y="1366" on="1"/>
        <pt x="306" y="1370" on="0"/>
        <pt x="362" y="1372" on="0"/>
        <pt x="375" y="1372" on="1"/>
        <pt x="390" y="1372" on="0"/>
        <pt x="440" y="1370" on="0"/>
        <pt x="465" y="1366" on="1"/>
        <pt x="703" y="648" on="1"/>
        <pt x="712" y="622" on="0"/>
        <pt x="739" y="534" on="0"/>
        <pt x="765" y="442" on="0"/>
        <pt x="784" y="371" on="0"/>
        <pt x="785" y="362" on="1"/>
        <pt x="795" y="362" on="1"/>
        <pt x="797" y="371" on="0"/>
        <pt x="815" y="442" on="0"/>
        <pt x="842" y="534" on="0"/>
        <pt x="868" y="622" on="0"/>
        <pt x="877" y="648" on="1"/>
        <pt x="1115" y="1366" on="1"/>
        <pt x="1145" y="1370" on="0"/>
        <pt x="1191" y="1372" on="0"/>
        <pt x="1206" y="1372" on="1"/>
        <pt x="1219" y="1372" on="0"/>
        <pt x="1272" y="1370" on="0"/>
        <pt x="1302" y="1366" on="1"/>
        <pt x="1408" y="2" on="1"/>
        <pt x="1393" y="-2" on="0"/>
        <pt x="1353" y="-8" on="0"/>
        <pt x="1335" y="-8" on="1"/>
        <pt x="1317" y="-8" on="0"/>
        <pt x="1286" y="-5" on="0"/>
        <pt x="1270" y="-2" on="1"/>
        <pt x="1212" y="847" on="1"/>
        <pt x="1209" y="890" on="0"/>
        <pt x="1203" y="1022" on="0"/>
        <pt x="1198" y="1161" on="0"/>
        <pt x="1196" y="1217" on="1"/>
        <pt x="1186" y="1217" on="1"/>
        <pt x="860" y="214" on="1"/>
        <pt x="844" y="211" on="0"/>
        <pt x="807" y="208" on="0"/>
        <pt x="789" y="208" on="1"/>
        <pt x="770" y="208" on="0"/>
        <pt x="736" y="211" on="0"/>
        <pt x="721" y="214" on="1"/>
        <pt x="395" y="1217" on="1"/>
        <pt x="385" y="1217" on="1"/>
        <pt x="382" y="1161" on="0"/>
        <pt x="377" y="1022" on="0"/>
        <pt x="372" y="890" on="0"/>
        <pt x="369" y="847" on="1"/>
        <pt x="310" y="-2" on="1"/>
        <pt x="294" y="-5" on="0"/>
        <pt x="259" y="-8" on="0"/>
        <pt x="242" y="-8" on="1"/>
        <pt x="224" y="-8" on="0"/>
        <pt x="186" y="-2" on="0"/>
        <pt x="173" y="2" on="1"/>
      </contour>
    </TTGlyph>
    <TTGlyph name="N" xMin="201" yMin="-6" xMax="1138" yMax="1372">
      <contour>
        <pt x="201" y="1366" on="1"/>
        <pt x="218" y="1369" on="0"/>
        <pt x="273" y="1372" on="0"/>
        <pt x="285" y="1372" on="1"/>
        <pt x="300" y="1372" on="0"/>
        <pt x="356" y="1369" on="0"/>
        <pt x="374" y="1366" on="1"/>
        <pt x="334" y="1195" on="1"/>
        <pt x="320" y="1195" on="1"/>
        <pt x="322" y="1136" on="0"/>
        <pt x="328" y="993" on="0"/>
        <pt x="332" y="845" on="0"/>
        <pt x="332" y="776" on="1"/>
        <pt x="332" y="0" on="1"/>
        <pt x="313" y="-3" on="0"/>
        <pt x="280" y="-6" on="0"/>
        <pt x="265" y="-6" on="1"/>
        <pt x="251" y="-6" on="0"/>
        <pt x="218" y="-3" on="0"/>
        <pt x="201" y="0" on="1"/>
      </contour>
      <contour>
        <pt x="465" y="921" on="1"/>
        <pt x="426" y="993" on="0"/>
        <pt x="359" y="1127" on="0"/>
        <pt x="326" y="1195" on="1"/>
        <pt x="201" y="1346" on="1"/>
        <pt x="374" y="1366" on="1"/>
        <pt x="873" y="445" on="1"/>
        <pt x="912" y="373" on="0"/>
        <pt x="980" y="231" on="0"/>
        <pt x="1013" y="165" on="1"/>
        <pt x="1138" y="40" on="1"/>
        <pt x="964" y="0" on="1"/>
      </contour>
      <contour>
        <pt x="1138" y="1362" on="1"/>
        <pt x="1138" y="0" on="1"/>
        <pt x="1121" y="-3" on="0"/>
        <pt x="1065" y="-6" on="0"/>
        <pt x="1052" y="-6" on="1"/>
        <pt x="1039" y="-6" on="0"/>
        <pt x="981" y="-3" on="0"/>
        <pt x="964" y="0" on="1"/>
        <pt x="1005" y="165" on="1"/>
        <pt x="1019" y="165" on="1"/>
        <pt x="1016" y="237" on="0"/>
        <pt x="1010" y="390" on="0"/>
        <pt x="1007" y="542" on="0"/>
        <pt x="1007" y="611" on="1"/>
        <pt x="1007" y="1280" on="1"/>
        <pt x="1007" y="1325" on="0"/>
        <pt x="1032" y="1372" on="0"/>
        <pt x="1079" y="1372" on="1"/>
        <pt x="1126" y="1372" on="1"/>
      </contour>
    </TTGlyph>
    <TTGlyph name="Nacute" xMin="201" yMin="-6" xMax="1138" yMax="1756">
      <component glyphName="N" x="0" y="0" flags="0x204"/>
      <component glyphName="glyph00443" x="276" y="0" flags="0x4"/>
    </TTGlyph>
    <TTGlyph name="Ncaron" xMin="201" yMin="-6" xMax="1138" yMax="1749">
      <component glyphName="N" x="0" y="0" flags="0x204"/>
      <component glyphName="glyph00446" x="276" y="0" flags="0x4"/>
    </TTGlyph>
    <TTGlyph name="Ntilde" xMin="201" yMin="-6" xMax="1138" yMax="1712">
      <component glyphName="N" x="0" y="0" flags="0x204"/>
      <component glyphName="glyph00449" x="276" y="0" flags="0x4"/>
    </TTGlyph>
    <TTGlyph name="O" xMin="117" yMin="-24" xMax="1187" yMax="1390">
      <contour>
        <pt x="266" y="684" on="1"/>
        <pt x="266" y="585" on="0"/>
        <pt x="300" y="379" on="0"/>
        <pt x="384" y="204" on="0"/>
        <pt x="535" y="96" on="0"/>
        <pt x="652" y="96" on="1"/>
        <pt x="768" y="96" on="0"/>
        <pt x="919" y="204" on="0"/>
        <pt x="1002" y="379" on="0"/>
        <pt x="1036" y="585" on="0"/>
        <pt x="1036" y="684" on="1"/>
        <pt x="1036" y="783" on="0"/>
        <pt x="1002" y="988" on="0"/>
        <pt x="919" y="1163" on="0"/>
        <pt x="768" y="1270" on="0"/>
        <pt x="652" y="1270" on="1"/>
        <pt x="535" y="1270" on="0"/>
        <pt x="384" y="1163" on="0"/>
        <pt x="300" y="988" on="0"/>
        <pt x="266" y="783" on="0"/>
      </contour>
      <contour>
        <pt x="117" y="684" on="1"/>
        <pt x="117" y="878" on="0"/>
        <pt x="233" y="1198" on="0"/>
        <pt x="470" y="1390" on="0"/>
        <pt x="652" y="1390" on="1"/>
        <pt x="789" y="1390" on="0"/>
        <pt x="990" y="1279" on="0"/>
        <pt x="1122" y="1084" on="0"/>
        <pt x="1187" y="829" on="0"/>
        <pt x="1187" y="684" on="1"/>
        <pt x="1187" y="489" on="0"/>
        <pt x="1071" y="168" on="0"/>
        <pt x="834" y="-24" on="0"/>
        <pt x="652" y="-24" on="1"/>
        <pt x="514" y="-24" on="0"/>
        <pt x="313" y="87" on="0"/>
        <pt x="181" y="283" on="0"/>
        <pt x="117" y="539" on="0"/>
      </contour>
    </TTGlyph>
    <TTGlyph name="OE" xMin="117" yMin="-24" xMax="1652" yMax="1390">
      <contour>
        <pt x="930" y="4" on="1"/>
        <pt x="893" y="1" on="0"/>
        <pt x="806" y="-12" on="0"/>
        <pt x="708" y="-24" on="0"/>
        <pt x="654" y="-24" on="1"/>
        <pt x="470" y="-24" on="0"/>
        <pt x="232" y="168" on="0"/>
        <pt x="117" y="490" on="0"/>
        <pt x="117" y="684" on="1"/>
        <pt x="117" y="879" on="0"/>
        <pt x="233" y="1199" on="0"/>
        <pt x="471" y="1390" on="0"/>
        <pt x="654" y="1390" on="1"/>
        <pt x="704" y="1390" on="0"/>
        <pt x="803" y="1379" on="0"/>
        <pt x="893" y="1365" on="0"/>
        <pt x="930" y="1362" on="1"/>
        <pt x="930" y="1229" on="1"/>
        <pt x="900" y="1238" on="0"/>
        <pt x="808" y="1257" on="0"/>
        <pt x="702" y="1270" on="0"/>
        <pt x="654" y="1270" on="1"/>
        <pt x="536" y="1270" on="0"/>
        <pt x="385" y="1163" on="0"/>
        <pt x="300" y="988" on="0"/>
        <pt x="266" y="783" on="0"/>
        <pt x="266" y="684" on="1"/>
        <pt x="266" y="585" on="0"/>
        <pt x="300" y="379" on="0"/>
        <pt x="384" y="204" on="0"/>
        <pt x="535" y="96" on="0"/>
        <pt x="652" y="96" on="1"/>
        <pt x="704" y="96" on="0"/>
        <pt x="810" y="109" on="0"/>
        <pt x="900" y="128" on="0"/>
        <pt x="930" y="137" on="1"/>
      </contour>
      <contour>
        <pt x="842" y="1366" on="1"/>
        <pt x="977" y="1366" on="1"/>
        <pt x="977" y="1250" on="1"/>
        <pt x="977" y="1208" on="0"/>
        <pt x="979" y="1163" on="0"/>
        <pt x="979" y="1123" on="1"/>
        <pt x="979" y="191" on="1"/>
        <pt x="979" y="171" on="0"/>
        <pt x="977" y="138" on="0"/>
        <pt x="977" y="118" on="1"/>
        <pt x="977" y="0" on="1"/>
        <pt x="842" y="0" on="1"/>
      </contour>
      <contour>
        <pt x="1518" y="753" on="1"/>
        <pt x="1521" y="737" on="0"/>
        <pt x="1524" y="704" on="0"/>
        <pt x="1524" y="692" on="1"/>
        <pt x="1524" y="680" on="0"/>
        <pt x="1521" y="647" on="0"/>
        <pt x="1518" y="631" on="1"/>
        <pt x="1097" y="631" on="1"/>
        <pt x="1075" y="631" on="0"/>
        <pt x="1019" y="632" on="0"/>
        <pt x="959" y="633" on="0"/>
        <pt x="930" y="633" on="1"/>
        <pt x="930" y="751" on="1"/>
        <pt x="959" y="751" on="0"/>
        <pt x="1019" y="752" on="0"/>
        <pt x="1075" y="753" on="0"/>
        <pt x="1097" y="753" on="1"/>
      </contour>
      <contour>
        <pt x="1620" y="1366" on="1"/>
        <pt x="1623" y="1350" on="0"/>
        <pt x="1624" y="1321" on="0"/>
        <pt x="1624" y="1309" on="1"/>
        <pt x="1624" y="1297" on="0"/>
        <pt x="1620" y="1261" on="0"/>
        <pt x="1614" y="1244" on="1"/>
        <pt x="1097" y="1244" on="1"/>
        <pt x="1075" y="1244" on="0"/>
        <pt x="1019" y="1244" on="0"/>
        <pt x="959" y="1245" on="0"/>
        <pt x="930" y="1246" on="1"/>
        <pt x="930" y="1366" on="1"/>
      </contour>
      <contour>
        <pt x="1652" y="124" on="1"/>
        <pt x="1652" y="51" on="0"/>
        <pt x="1607" y="0" on="0"/>
        <pt x="1558" y="0" on="1"/>
        <pt x="930" y="0" on="1"/>
        <pt x="930" y="116" on="1"/>
        <pt x="967" y="119" on="0"/>
        <pt x="1045" y="124" on="0"/>
        <pt x="1098" y="124" on="1"/>
      </contour>
    </TTGlyph>
    <TTGlyph name="Oacute" xMin="117" yMin="-24" xMax="1187" yMax="1756">
      <component glyphName="O" x="0" y="0" flags="0x204"/>
      <component glyphName="glyph00443" x="254" y="0" flags="0x4"/>
    </TTGlyph>
    <TTGlyph name="Obreve" xMin="117" yMin="-24" xMax="1187" yMax="1724">
      <component glyphName="O" x="0" y="0" flags="0x204"/>
      <component glyphName="glyph00447" x="254" y="0" flags="0x4"/>
    </TTGlyph>
    <TTGlyph name="Ocircumflex" xMin="117" yMin="-24" xMax="1187" yMax="1752">
      <component glyphName="O" x="0" y="0" flags="0x204"/>
      <component glyphName="glyph00445" x="254" y="0" flags="0x4"/>
    </TTGlyph>
    <TTGlyph name="Odieresis" xMin="117" yMin="-24" xMax="1187" yMax="1647">
      <component glyphName="O" x="0" y="0" flags="0x204"/>
      <component glyphName="glyph00440" x="254" y="0" flags="0x4"/>
    </TTGlyph>
    <TTGlyph name="Ograve" xMin="117" yMin="-24" xMax="1187" yMax="1756">
      <component glyphName="O" x="0" y="0" flags="0x204"/>
      <component glyphName="glyph00442" x="254" y="0" flags="0x4"/>
    </TTGlyph>
    <TTGlyph name="Ohungarumlaut" xMin="117" yMin="-24" xMax="1187" yMax="1760">
      <component glyphName="O" x="0" y="0" flags="0x204"/>
      <component glyphName="glyph00444" x="254" y="0" flags="0x4"/>
    </TTGlyph>
    <TTGlyph name="Omacron" xMin="117" yMin="-24" xMax="1187" yMax="1638">
      <component glyphName="O" x="0" y="0" flags="0x204"/>
      <component glyphName="glyph00450" x="254" y="0" flags="0x4"/>
    </TTGlyph>
    <TTGlyph name="Omega" xMin="137" yMin="0" xMax="1367" yMax="1390">
      <contour>
        <pt x="575" y="146" on="1"/>
        <pt x="609" y="115" on="0"/>
        <pt x="609" y="89" on="1"/>
        <pt x="609" y="72" on="0"/>
        <pt x="590" y="23" on="0"/>
        <pt x="573" y="0" on="1"/>
        <pt x="565" y="22" on="0"/>
        <pt x="511" y="90" on="0"/>
        <pt x="435" y="148" on="1"/>
        <pt x="342" y="220" on="0"/>
        <pt x="208" y="407" on="0"/>
        <pt x="137" y="625" on="0"/>
        <pt x="137" y="744" on="1"/>
        <pt x="137" y="878" on="0"/>
        <pt x="228" y="1113" on="0"/>
        <pt x="393" y="1290" on="0"/>
        <pt x="618" y="1390" on="0"/>
        <pt x="752" y="1390" on="1"/>
        <pt x="886" y="1390" on="0"/>
        <pt x="1111" y="1289" on="0"/>
        <pt x="1276" y="1111" on="0"/>
        <pt x="1367" y="877" on="0"/>
        <pt x="1367" y="744" on="1"/>
        <pt x="1367" y="625" on="0"/>
        <pt x="1296" y="407" on="0"/>
        <pt x="1162" y="220" on="0"/>
        <pt x="1069" y="148" on="1"/>
        <pt x="993" y="90" on="0"/>
        <pt x="939" y="22" on="0"/>
        <pt x="930" y="0" on="1"/>
        <pt x="914" y="23" on="0"/>
        <pt x="895" y="72" on="0"/>
        <pt x="895" y="89" on="1"/>
        <pt x="895" y="115" on="0"/>
        <pt x="928" y="146" on="1"/>
        <pt x="1031" y="239" on="0"/>
        <pt x="1158" y="427" on="0"/>
        <pt x="1218" y="627" on="0"/>
        <pt x="1218" y="736" on="1"/>
        <pt x="1218" y="875" on="0"/>
        <pt x="1107" y="1120" on="0"/>
        <pt x="898" y="1272" on="0"/>
        <pt x="752" y="1272" on="1"/>
        <pt x="605" y="1272" on="0"/>
        <pt x="397" y="1120" on="0"/>
        <pt x="286" y="875" on="0"/>
        <pt x="286" y="736" on="1"/>
        <pt x="286" y="627" on="0"/>
        <pt x="345" y="427" on="0"/>
        <pt x="473" y="239" on="0"/>
      </contour>
      <contour>
        <pt x="930" y="0" on="1"/>
        <pt x="930" y="106" on="1"/>
        <pt x="973" y="111" on="0"/>
        <pt x="1103" y="126" on="0"/>
        <pt x="1177" y="126" on="1"/>
        <pt x="1357" y="126" on="1"/>
        <pt x="1360" y="114" on="0"/>
        <pt x="1363" y="82" on="0"/>
        <pt x="1363" y="61" on="1"/>
        <pt x="1363" y="42" on="0"/>
        <pt x="1360" y="10" on="0"/>
        <pt x="1357" y="0" on="1"/>
      </contour>
      <contour>
        <pt x="147" y="0" on="1"/>
        <pt x="144" y="10" on="0"/>
        <pt x="141" y="42" on="0"/>
        <pt x="141" y="61" on="1"/>
        <pt x="141" y="82" on="0"/>
        <pt x="144" y="114" on="0"/>
        <pt x="147" y="126" on="1"/>
        <pt x="327" y="126" on="1"/>
        <pt x="401" y="126" on="0"/>
        <pt x="531" y="111" on="0"/>
        <pt x="574" y="106" on="1"/>
        <pt x="573" y="0" on="1"/>
      </contour>
    </TTGlyph>
    <TTGlyph name="Oslash" xMin="117" yMin="-79" xMax="1187" yMax="1445">
      <contour>
        <pt x="882" y="1251" on="1"/>
        <pt x="992" y="1445" on="1"/>
        <pt x="1019" y="1442" on="0"/>
        <pt x="1080" y="1409" on="0"/>
        <pt x="1095" y="1390" on="1"/>
        <pt x="965" y="1156" on="1"/>
        <pt x="421" y="115" on="1"/>
        <pt x="311" y="-79" on="1"/>
        <pt x="285" y="-76" on="0"/>
        <pt x="224" y="-43" on="0"/>
        <pt x="209" y="-24" on="1"/>
        <pt x="339" y="210" on="1"/>
      </contour>
      <contour>
        <pt x="266" y="684" on="1"/>
        <pt x="266" y="585" on="0"/>
        <pt x="300" y="379" on="0"/>
        <pt x="384" y="204" on="0"/>
        <pt x="535" y="96" on="0"/>
        <pt x="652" y="96" on="1"/>
        <pt x="768" y="96" on="0"/>
        <pt x="918" y="204" on="0"/>
        <pt x="1002" y="379" on="0"/>
        <pt x="1035" y="585" on="0"/>
        <pt x="1035" y="684" on="1"/>
        <pt x="1035" y="783" on="0"/>
        <pt x="1002" y="988" on="0"/>
        <pt x="918" y="1163" on="0"/>
        <pt x="768" y="1270" on="0"/>
        <pt x="652" y="1270" on="1"/>
        <pt x="535" y="1270" on="0"/>
        <pt x="384" y="1163" on="0"/>
        <pt x="300" y="988" on="0"/>
        <pt x="266" y="783" on="0"/>
      </contour>
      <contour>
        <pt x="117" y="684" on="1"/>
        <pt x="117" y="878" on="0"/>
        <pt x="233" y="1198" on="0"/>
        <pt x="470" y="1390" on="0"/>
        <pt x="652" y="1390" on="1"/>
        <pt x="789" y="1390" on="0"/>
        <pt x="990" y="1279" on="0"/>
        <pt x="1122" y="1084" on="0"/>
        <pt x="1187" y="829" on="0"/>
        <pt x="1187" y="684" on="1"/>
        <pt x="1187" y="489" on="0"/>
        <pt x="1071" y="168" on="0"/>
        <pt x="834" y="-24" on="0"/>
        <pt x="652" y="-24" on="1"/>
        <pt x="514" y="-24" on="0"/>
        <pt x="313" y="87" on="0"/>
        <pt x="181" y="283" on="0"/>
        <pt x="117" y="539" on="0"/>
      </contour>
    </TTGlyph>
    <TTGlyph name="Otilde" xMin="117" yMin="-24" xMax="1187" yMax="1712">
      <component glyphName="O" x="0" y="0" flags="0x4"/>
      <component glyphName="glyph00449" x="254" y="0" flags="0x4"/>
    </TTGlyph>
    <TTGlyph name="P" xMin="201" yMin="-6" xMax="1027" yMax="1372">
      <contour>
        <pt x="1027" y="947" on="1"/>
        <pt x="1027" y="807" on="0"/>
        <pt x="915" y="617" on="0"/>
        <pt x="718" y="519" on="0"/>
        <pt x="589" y="519" on="1"/>
        <pt x="283" y="519" on="1"/>
        <pt x="283" y="638" on="1"/>
        <pt x="320" y="639" on="0"/>
        <pt x="442" y="639" on="0"/>
        <pt x="562" y="639" on="0"/>
        <pt x="596" y="639" on="1"/>
        <pt x="708" y="639" on="0"/>
        <pt x="829" y="736" on="0"/>
        <pt x="875" y="878" on="0"/>
        <pt x="875" y="947" on="1"/>
        <pt x="875" y="1017" on="0"/>
        <pt x="829" y="1158" on="0"/>
        <pt x="708" y="1252" on="0"/>
        <pt x="596" y="1252" on="1"/>
        <pt x="545" y="1252" on="0"/>
        <pt x="398" y="1252" on="0"/>
        <pt x="342" y="1254" on="1"/>
        <pt x="342" y="0" on="1"/>
        <pt x="327" y="-3" on="0"/>
        <pt x="290" y="-6" on="0"/>
        <pt x="269" y="-6" on="1"/>
        <pt x="250" y="-6" on="0"/>
        <pt x="214" y="-3" on="0"/>
        <pt x="201" y="0" on="1"/>
        <pt x="201" y="1354" on="1"/>
        <pt x="213" y="1366" on="1"/>
        <pt x="316" y="1367" on="0"/>
        <pt x="495" y="1372" on="0"/>
        <pt x="589" y="1372" on="1"/>
        <pt x="716" y="1372" on="0"/>
        <pt x="914" y="1277" on="0"/>
        <pt x="1027" y="1087" on="0"/>
      </contour>
    </TTGlyph>
    <TTGlyph name="Q" xMin="117" yMin="-233" xMax="1162" yMax="1390">
      <contour>
        <pt x="266" y="684" on="1"/>
        <pt x="266" y="584" on="0"/>
        <pt x="296" y="379" on="0"/>
        <pt x="376" y="207" on="0"/>
        <pt x="523" y="102" on="0"/>
        <pt x="640" y="102" on="1"/>
        <pt x="756" y="102" on="0"/>
        <pt x="903" y="207" on="0"/>
        <pt x="982" y="379" on="0"/>
        <pt x="1011" y="584" on="0"/>
        <pt x="1011" y="684" on="1"/>
        <pt x="1011" y="784" on="0"/>
        <pt x="982" y="990" on="0"/>
        <pt x="903" y="1164" on="0"/>
        <pt x="756" y="1270" on="0"/>
        <pt x="640" y="1270" on="1"/>
        <pt x="523" y="1270" on="0"/>
        <pt x="376" y="1164" on="0"/>
        <pt x="296" y="990" on="0"/>
        <pt x="266" y="784" on="0"/>
      </contour>
      <contour>
        <pt x="117" y="684" on="1"/>
        <pt x="117" y="882" on="0"/>
        <pt x="223" y="1202" on="0"/>
        <pt x="454" y="1390" on="0"/>
        <pt x="640" y="1390" on="1"/>
        <pt x="826" y="1390" on="0"/>
        <pt x="1057" y="1201" on="0"/>
        <pt x="1162" y="880" on="0"/>
        <pt x="1162" y="684" on="1"/>
        <pt x="1162" y="568" on="0"/>
        <pt x="1114" y="331" on="0"/>
        <pt x="1016" y="133" on="0"/>
        <pt x="866" y="11" on="0"/>
        <pt x="765" y="7" on="1"/>
        <pt x="739" y="-4" on="0"/>
        <pt x="700" y="-24" on="0"/>
        <pt x="652" y="-24" on="1"/>
        <pt x="458" y="-24" on="0"/>
        <pt x="223" y="163" on="0"/>
        <pt x="117" y="483" on="0"/>
      </contour>
      <contour>
        <pt x="613" y="25" on="1"/>
        <pt x="781" y="77" on="1"/>
        <pt x="894" y="-5" on="1"/>
        <pt x="964" y="-55" on="0"/>
        <pt x="1054" y="-107" on="0"/>
        <pt x="1117" y="-126" on="0"/>
        <pt x="1148" y="-127" on="1"/>
        <pt x="1143" y="-186" on="0"/>
        <pt x="1077" y="-233" on="0"/>
        <pt x="1043" y="-233" on="1"/>
        <pt x="1009" y="-233" on="0"/>
        <pt x="956" y="-213" on="0"/>
        <pt x="929" y="-196" on="1"/>
      </contour>
    </TTGlyph>
    <TTGlyph name="R" xMin="201" yMin="-12" xMax="1102" yMax="1372">
      <contour>
        <pt x="1043" y="979" on="1"/>
        <pt x="1043" y="889" on="0"/>
        <pt x="979" y="742" on="0"/>
        <pt x="861" y="639" on="0"/>
        <pt x="778" y="615" on="1"/>
        <pt x="823" y="600" on="0"/>
        <pt x="891" y="509" on="0"/>
        <pt x="912" y="455" on="1"/>
        <pt x="1019" y="177" on="1"/>
        <pt x="1044" y="110" on="0"/>
        <pt x="1079" y="54" on="0"/>
        <pt x="1102" y="35" on="1"/>
        <pt x="1088" y="10" on="0"/>
        <pt x="1028" y="-12" on="0"/>
        <pt x="1004" y="-12" on="1"/>
        <pt x="961" y="-12" on="0"/>
        <pt x="920" y="37" on="0"/>
        <pt x="902" y="83" on="1"/>
        <pt x="783" y="394" on="1"/>
        <pt x="753" y="474" on="0"/>
        <pt x="660" y="581" on="0"/>
        <pt x="558" y="581" on="1"/>
        <pt x="283" y="581" on="1"/>
        <pt x="283" y="699" on="1"/>
        <pt x="330" y="701" on="0"/>
        <pt x="445" y="704" on="0"/>
        <pt x="561" y="705" on="0"/>
        <pt x="612" y="705" on="1"/>
        <pt x="724" y="705" on="0"/>
        <pt x="846" y="788" on="0"/>
        <pt x="893" y="914" on="0"/>
        <pt x="893" y="979" on="1"/>
        <pt x="893" y="1045" on="0"/>
        <pt x="846" y="1170" on="0"/>
        <pt x="724" y="1252" on="0"/>
        <pt x="612" y="1252" on="1"/>
        <pt x="578" y="1252" on="0"/>
        <pt x="479" y="1252" on="0"/>
        <pt x="379" y="1253" on="0"/>
        <pt x="342" y="1254" on="1"/>
        <pt x="342" y="0" on="1"/>
        <pt x="327" y="-3" on="0"/>
        <pt x="290" y="-6" on="0"/>
        <pt x="269" y="-6" on="1"/>
        <pt x="250" y="-6" on="0"/>
        <pt x="214" y="-3" on="0"/>
        <pt x="201" y="0" on="1"/>
        <pt x="201" y="1354" on="1"/>
        <pt x="213" y="1366" on="1"/>
        <pt x="316" y="1367" on="0"/>
        <pt x="517" y="1372" on="0"/>
        <pt x="611" y="1372" on="1"/>
        <pt x="750" y="1372" on="0"/>
        <pt x="943" y="1276" on="0"/>
        <pt x="1043" y="1099" on="0"/>
      </contour>
    </TTGlyph>
    <TTGlyph name="Racute" xMin="201" yMin="-12" xMax="1102" yMax="1756">
      <component glyphName="R" x="0" y="0" flags="0x204"/>
      <component glyphName="glyph00443" x="192" y="0" flags="0x4"/>
    </TTGlyph>
    <TTGlyph name="Rcaron" xMin="201" yMin="-12" xMax="1102" yMax="1749">
      <component glyphName="R" x="0" y="0" flags="0x204"/>
      <component glyphName="glyph00446" x="192" y="0" flags="0x4"/>
    </TTGlyph>
    <TTGlyph name="S" xMin="81" yMin="-24" xMax="1009" yMax="1390">
      <contour>
        <pt x="81" y="126" on="1"/>
        <pt x="84" y="159" on="0"/>
        <pt x="124" y="222" on="0"/>
        <pt x="148" y="240" on="1"/>
        <pt x="236" y="178" on="0"/>
        <pt x="447" y="102" on="0"/>
        <pt x="548" y="102" on="1"/>
        <pt x="691" y="102" on="0"/>
        <pt x="864" y="222" on="0"/>
        <pt x="864" y="327" on="1"/>
        <pt x="864" y="423" on="0"/>
        <pt x="735" y="548" on="0"/>
        <pt x="645" y="587" on="1"/>
        <pt x="411" y="689" on="1"/>
        <pt x="283" y="745" on="0"/>
        <pt x="143" y="905" on="0"/>
        <pt x="143" y="1023" on="1"/>
        <pt x="143" y="1121" on="0"/>
        <pt x="247" y="1288" on="0"/>
        <pt x="439" y="1390" on="0"/>
        <pt x="572" y="1390" on="1"/>
        <pt x="686" y="1390" on="0"/>
        <pt x="887" y="1332" on="0"/>
        <pt x="965" y="1294" on="1"/>
        <pt x="965" y="1263" on="0"/>
        <pt x="933" y="1197" on="0"/>
        <pt x="908" y="1176" on="1"/>
        <pt x="828" y="1217" on="0"/>
        <pt x="653" y="1268" on="0"/>
        <pt x="578" y="1268" on="1"/>
        <pt x="450" y="1268" on="0"/>
        <pt x="286" y="1139" on="0"/>
        <pt x="286" y="1034" on="1"/>
        <pt x="286" y="949" on="0"/>
        <pt x="406" y="851" on="0"/>
        <pt x="485" y="817" on="1"/>
        <pt x="711" y="719" on="1"/>
        <pt x="789" y="685" on="0"/>
        <pt x="925" y="588" on="0"/>
        <pt x="1009" y="451" on="0"/>
        <pt x="1009" y="359" on="1"/>
        <pt x="1009" y="249" on="0"/>
        <pt x="908" y="75" on="0"/>
        <pt x="701" y="-24" on="0"/>
        <pt x="542" y="-24" on="1"/>
        <pt x="416" y="-24" on="0"/>
        <pt x="174" y="59" on="0"/>
      </contour>
    </TTGlyph>
    <TTGlyph name="Sacute" xMin="81" yMin="-24" xMax="1009" yMax="1756">
      <component glyphName="S" x="0" y="0" flags="0x204"/>
      <component glyphName="glyph00443" x="178" y="0" flags="0x4"/>
    </TTGlyph>
    <TTGlyph name="Scaron" xMin="81" yMin="-24" xMax="1009" yMax="1749">
      <component glyphName="S" x="0" y="0" flags="0x204"/>
      <component glyphName="glyph00446" x="178" y="0" flags="0x4"/>
    </TTGlyph>
    <TTGlyph name="Scedilla" xMin="81" yMin="-436" xMax="1009" yMax="1390">
      <component glyphName="S" x="0" y="0" flags="0x204"/>
      <component glyphName="uni0327" x="128" y="0" flags="0x4"/>
    </TTGlyph>
    <TTGlyph name="Scircumflex" xMin="81" yMin="-24" xMax="1009" yMax="1752">
      <component glyphName="S" x="0" y="0" flags="0x204"/>
      <component glyphName="glyph00445" x="178" y="0" flags="0x4"/>
    </TTGlyph>
    <TTGlyph name="T" xMin="39" yMin="-6" xMax="926" yMax="1366">
      <contour>
        <pt x="44" y="1244" on="1"/>
        <pt x="41" y="1259" on="0"/>
        <pt x="39" y="1290" on="0"/>
        <pt x="39" y="1305" on="1"/>
        <pt x="39" y="1320" on="0"/>
        <pt x="41" y="1350" on="0"/>
        <pt x="44" y="1366" on="1"/>
        <pt x="917" y="1366" on="1"/>
        <pt x="921" y="1353" on="0"/>
        <pt x="926" y="1322" on="0"/>
        <pt x="926" y="1307" on="1"/>
        <pt x="926" y="1273" on="0"/>
        <pt x="884" y="1244" on="0"/>
        <pt x="840" y="1244" on="1"/>
        <pt x="660" y="1244" on="1"/>
        <pt x="642" y="1244" on="0"/>
        <pt x="572" y="1246" on="0"/>
        <pt x="552" y="1246" on="1"/>
        <pt x="411" y="1246" on="1"/>
        <pt x="392" y="1246" on="0"/>
        <pt x="323" y="1244" on="0"/>
        <pt x="303" y="1244" on="1"/>
      </contour>
      <contour>
        <pt x="411" y="1098" on="1"/>
        <pt x="411" y="1139" on="0"/>
        <pt x="411" y="1204" on="0"/>
        <pt x="411" y="1246" on="1"/>
        <pt x="411" y="1305" on="1"/>
        <pt x="552" y="1305" on="1"/>
        <pt x="552" y="1246" on="1"/>
        <pt x="552" y="1204" on="0"/>
        <pt x="552" y="1139" on="0"/>
        <pt x="552" y="1098" on="1"/>
        <pt x="552" y="0" on="1"/>
        <pt x="538" y="-3" on="0"/>
        <pt x="499" y="-6" on="0"/>
        <pt x="482" y="-6" on="1"/>
        <pt x="464" y="-6" on="0"/>
        <pt x="426" y="-3" on="0"/>
        <pt x="411" y="0" on="1"/>
      </contour>
    </TTGlyph>
    <TTGlyph name="Tbar" xMin="39" yMin="-6" xMax="926" yMax="1366">
      <contour>
        <pt x="157" y="618" on="1"/>
        <pt x="151" y="644" on="0"/>
        <pt x="151" y="677" on="1"/>
        <pt x="151" y="697" on="0"/>
        <pt x="154" y="725" on="0"/>
        <pt x="157" y="740" on="1"/>
        <pt x="806" y="740" on="1"/>
        <pt x="809" y="725" on="0"/>
        <pt x="812" y="697" on="0"/>
        <pt x="812" y="677" on="1"/>
        <pt x="812" y="644" on="0"/>
        <pt x="806" y="618" on="1"/>
      </contour>
      <contour>
        <pt x="44" y="1244" on="1"/>
        <pt x="41" y="1259" on="0"/>
        <pt x="39" y="1290" on="0"/>
        <pt x="39" y="1305" on="1"/>
        <pt x="39" y="1320" on="0"/>
        <pt x="41" y="1350" on="0"/>
        <pt x="44" y="1366" on="1"/>
        <pt x="917" y="1366" on="1"/>
        <pt x="921" y="1353" on="0"/>
        <pt x="926" y="1322" on="0"/>
        <pt x="926" y="1307" on="1"/>
        <pt x="926" y="1273" on="0"/>
        <pt x="884" y="1244" on="0"/>
        <pt x="840" y="1244" on="1"/>
        <pt x="660" y="1244" on="1"/>
        <pt x="642" y="1244" on="0"/>
        <pt x="572" y="1246" on="0"/>
        <pt x="552" y="1246" on="1"/>
        <pt x="411" y="1246" on="1"/>
        <pt x="392" y="1246" on="0"/>
        <pt x="323" y="1244" on="0"/>
        <pt x="303" y="1244" on="1"/>
      </contour>
      <contour>
        <pt x="411" y="1098" on="1"/>
        <pt x="411" y="1139" on="0"/>
        <pt x="411" y="1204" on="0"/>
        <pt x="411" y="1246" on="1"/>
        <pt x="411" y="1305" on="1"/>
        <pt x="552" y="1305" on="1"/>
        <pt x="552" y="1246" on="1"/>
        <pt x="552" y="1204" on="0"/>
        <pt x="552" y="1139" on="0"/>
        <pt x="552" y="1098" on="1"/>
        <pt x="552" y="0" on="1"/>
        <pt x="538" y="-3" on="0"/>
        <pt x="499" y="-6" on="0"/>
        <pt x="482" y="-6" on="1"/>
        <pt x="464" y="-6" on="0"/>
        <pt x="426" y="-3" on="0"/>
        <pt x="411" y="0" on="1"/>
      </contour>
    </TTGlyph>
    <TTGlyph name="Tcaron" xMin="39" yMin="-6" xMax="926" yMax="1749">
      <component glyphName="T" x="0" y="0" flags="0x204"/>
      <component glyphName="glyph00446" x="81" y="0" flags="0x4"/>
    </TTGlyph>
    <TTGlyph name="Thorn" xMin="201" yMin="-6" xMax="1022" yMax="1372">
      <contour>
        <pt x="273" y="1150" on="1"/>
        <pt x="347" y="1151" on="0"/>
        <pt x="506" y="1156" on="0"/>
        <pt x="585" y="1156" on="1"/>
        <pt x="712" y="1156" on="0"/>
        <pt x="910" y="1060" on="0"/>
        <pt x="1022" y="871" on="0"/>
        <pt x="1022" y="730" on="1"/>
        <pt x="1022" y="590" on="0"/>
        <pt x="911" y="400" on="0"/>
        <pt x="714" y="303" on="0"/>
        <pt x="585" y="303" on="1"/>
        <pt x="273" y="303" on="1"/>
        <pt x="273" y="421" on="1"/>
        <pt x="301" y="421" on="0"/>
        <pt x="387" y="422" on="0"/>
        <pt x="482" y="422" on="0"/>
        <pt x="566" y="422" on="0"/>
        <pt x="592" y="422" on="1"/>
        <pt x="704" y="422" on="0"/>
        <pt x="825" y="519" on="0"/>
        <pt x="871" y="662" on="0"/>
        <pt x="871" y="730" on="1"/>
        <pt x="871" y="800" on="0"/>
        <pt x="825" y="941" on="0"/>
        <pt x="704" y="1036" on="0"/>
        <pt x="592" y="1036" on="1"/>
        <pt x="553" y="1036" on="0"/>
        <pt x="439" y="1037" on="0"/>
        <pt x="321" y="1039" on="0"/>
        <pt x="273" y="1040" on="1"/>
      </contour>
      <contour>
        <pt x="201" y="1366" on="1"/>
        <pt x="214" y="1369" on="0"/>
        <pt x="250" y="1372" on="0"/>
        <pt x="269" y="1372" on="1"/>
        <pt x="290" y="1372" on="0"/>
        <pt x="327" y="1369" on="0"/>
        <pt x="342" y="1366" on="1"/>
        <pt x="342" y="0" on="1"/>
        <pt x="327" y="-3" on="0"/>
        <pt x="290" y="-6" on="0"/>
        <pt x="269" y="-6" on="1"/>
        <pt x="250" y="-6" on="0"/>
        <pt x="214" y="-3" on="0"/>
        <pt x="201" y="0" on="1"/>
      </contour>
    </TTGlyph>
    <TTGlyph name="U" xMin="185" yMin="-24" xMax="1147" yMax="1372">
      <contour>
        <pt x="1147" y="463" on="1"/>
        <pt x="1147" y="300" on="0"/>
        <pt x="1022" y="84" on="0"/>
        <pt x="804" y="-24" on="0"/>
        <pt x="664" y="-24" on="1"/>
        <pt x="525" y="-24" on="0"/>
        <pt x="309" y="84" on="0"/>
        <pt x="185" y="300" on="0"/>
        <pt x="185" y="463" on="1"/>
        <pt x="185" y="1360" on="1"/>
        <pt x="197" y="1372" on="1"/>
        <pt x="254" y="1372" on="1"/>
        <pt x="301" y="1372" on="0"/>
        <pt x="326" y="1325" on="0"/>
        <pt x="326" y="1280" on="1"/>
        <pt x="326" y="465" on="1"/>
        <pt x="326" y="283" on="0"/>
        <pt x="506" y="94" on="0"/>
        <pt x="666" y="94" on="1"/>
        <pt x="826" y="94" on="0"/>
        <pt x="1006" y="283" on="0"/>
        <pt x="1006" y="465" on="1"/>
        <pt x="1006" y="1366" on="1"/>
        <pt x="1019" y="1369" on="0"/>
        <pt x="1055" y="1372" on="0"/>
        <pt x="1074" y="1372" on="1"/>
        <pt x="1095" y="1372" on="0"/>
        <pt x="1132" y="1369" on="0"/>
        <pt x="1147" y="1366" on="1"/>
      </contour>
    </TTGlyph>
    <TTGlyph name="Uacute" xMin="185" yMin="-24" xMax="1147" yMax="1756">
      <component glyphName="U" x="0" y="0" flags="0x204"/>
      <component glyphName="glyph00443" x="268" y="0" flags="0x4"/>
    </TTGlyph>
    <TTGlyph name="Ubreve" xMin="185" yMin="-24" xMax="1147" yMax="1724">
      <component glyphName="U" x="0" y="0" flags="0x204"/>
      <component glyphName="glyph00447" x="268" y="0" flags="0x4"/>
    </TTGlyph>
    <TTGlyph name="Ucircumflex" xMin="185" yMin="-24" xMax="1147" yMax="1752">
      <component glyphName="U" x="0" y="0" flags="0x204"/>
      <component glyphName="glyph00445" x="268" y="0" flags="0x4"/>
    </TTGlyph>
    <TTGlyph name="Udieresis" xMin="185" yMin="-24" xMax="1147" yMax="1647">
      <component glyphName="U" x="0" y="0" flags="0x204"/>
      <component glyphName="glyph00440" x="268" y="0" flags="0x4"/>
    </TTGlyph>
    <TTGlyph name="Ugrave" xMin="185" yMin="-24" xMax="1147" yMax="1756">
      <component glyphName="U" x="0" y="0" flags="0x204"/>
      <component glyphName="glyph00442" x="268" y="0" flags="0x4"/>
    </TTGlyph>
    <TTGlyph name="Uhungarumlaut" xMin="185" yMin="-24" xMax="1147" yMax="1760">
      <component glyphName="U" x="0" y="0" flags="0x204"/>
      <component glyphName="glyph00444" x="268" y="0" flags="0x4"/>
    </TTGlyph>
    <TTGlyph name="Umacron" xMin="185" yMin="-24" xMax="1147" yMax="1638">
      <component glyphName="U" x="0" y="0" flags="0x204"/>
      <component glyphName="glyph00450" x="268" y="0" flags="0x4"/>
    </TTGlyph>
    <TTGlyph name="Uogonek" xMin="185" yMin="-434" xMax="1147" yMax="1372">
      <component glyphName="U" x="0" y="0" flags="0x204"/>
      <component glyphName="glyph00453" x="309" y="0" flags="0x4"/>
    </TTGlyph>
    <TTGlyph name="Uring" xMin="185" yMin="-24" xMax="1147" yMax="1759">
      <component glyphName="U" x="0" y="0" flags="0x204"/>
      <component glyphName="glyph00448" x="268" y="0" flags="0x4"/>
    </TTGlyph>
    <TTGlyph name="Utilde" xMin="185" yMin="-24" xMax="1147" yMax="1712">
      <component glyphName="U" x="0" y="0" flags="0x204"/>
      <component glyphName="glyph00449" x="268" y="0" flags="0x4"/>
    </TTGlyph>
    <TTGlyph name="V" xMin="57" yMin="-8" xMax="1062" yMax="1378">
      <contour>
        <pt x="931" y="1366" on="1"/>
        <pt x="942" y="1369" on="0"/>
        <pt x="972" y="1372" on="0"/>
        <pt x="991" y="1372" on="1"/>
        <pt x="1011" y="1372" on="0"/>
        <pt x="1044" y="1367" on="0"/>
        <pt x="1056" y="1364" on="1"/>
        <pt x="1062" y="1352" on="1"/>
        <pt x="651" y="-2" on="1"/>
        <pt x="623" y="-5" on="0"/>
        <pt x="576" y="-8" on="0"/>
        <pt x="548" y="-8" on="1"/>
        <pt x="505" y="-8" on="0"/>
        <pt x="460" y="24" on="0"/>
        <pt x="448" y="67" on="1"/>
        <pt x="57" y="1354" on="1"/>
        <pt x="77" y="1365" on="0"/>
        <pt x="123" y="1378" on="0"/>
        <pt x="145" y="1378" on="1"/>
        <pt x="171" y="1378" on="0"/>
        <pt x="212" y="1351" on="0"/>
        <pt x="223" y="1309" on="1"/>
        <pt x="467" y="487" on="1"/>
        <pt x="480" y="445" on="0"/>
        <pt x="513" y="327" on="0"/>
        <pt x="547" y="205" on="0"/>
        <pt x="561" y="156" on="1"/>
        <pt x="564" y="145" on="0"/>
        <pt x="571" y="140" on="0"/>
        <pt x="577" y="140" on="1"/>
      </contour>
    </TTGlyph>
    <TTGlyph name="W" xMin="81" yMin="-8" xMax="1563" yMax="1378">
      <contour>
        <pt x="81" y="1360" on="1"/>
        <pt x="106" y="1372" on="0"/>
        <pt x="144" y="1378" on="0"/>
        <pt x="163" y="1378" on="1"/>
        <pt x="196" y="1378" on="0"/>
        <pt x="228" y="1343" on="0"/>
        <pt x="236" y="1304" on="1"/>
        <pt x="389" y="517" on="1"/>
        <pt x="397" y="475" on="0"/>
        <pt x="423" y="331" on="0"/>
        <pt x="450" y="183" on="0"/>
        <pt x="459" y="135" on="1"/>
        <pt x="462" y="121" on="0"/>
        <pt x="468" y="116" on="0"/>
        <pt x="475" y="116" on="1"/>
        <pt x="728" y="1336" on="1"/>
        <pt x="749" y="1339" on="0"/>
        <pt x="805" y="1342" on="0"/>
        <pt x="823" y="1342" on="1"/>
        <pt x="842" y="1342" on="0"/>
        <pt x="900" y="1339" on="0"/>
        <pt x="915" y="1336" on="1"/>
        <pt x="1146" y="135" on="1"/>
        <pt x="1149" y="122" on="0"/>
        <pt x="1155" y="116" on="0"/>
        <pt x="1162" y="116" on="1"/>
        <pt x="1173" y="181" on="0"/>
        <pt x="1203" y="335" on="0"/>
        <pt x="1231" y="475" on="0"/>
        <pt x="1240" y="517" on="1"/>
        <pt x="1421" y="1366" on="1"/>
        <pt x="1435" y="1369" on="0"/>
        <pt x="1470" y="1372" on="0"/>
        <pt x="1486" y="1372" on="1"/>
        <pt x="1502" y="1372" on="0"/>
        <pt x="1539" y="1369" on="0"/>
        <pt x="1555" y="1364" on="1"/>
        <pt x="1563" y="1354" on="1"/>
        <pt x="1262" y="2" on="1"/>
        <pt x="1234" y="-4" on="0"/>
        <pt x="1153" y="-8" on="0"/>
        <pt x="1126" y="-8" on="1"/>
        <pt x="1094" y="-8" on="0"/>
        <pt x="1047" y="20" on="0"/>
        <pt x="1038" y="69" on="1"/>
        <pt x="923" y="674" on="1"/>
        <pt x="907" y="759" on="0"/>
        <pt x="854" y="1036" on="0"/>
        <pt x="827" y="1187" on="1"/>
        <pt x="815" y="1187" on="1"/>
        <pt x="786" y="1036" on="0"/>
        <pt x="732" y="762" on="0"/>
        <pt x="712" y="674" on="1"/>
        <pt x="567" y="0" on="1"/>
        <pt x="541" y="-5" on="0"/>
        <pt x="466" y="-8" on="0"/>
        <pt x="442" y="-8" on="1"/>
        <pt x="409" y="-8" on="0"/>
        <pt x="352" y="21" on="0"/>
        <pt x="341" y="71" on="1"/>
      </contour>
    </TTGlyph>
    <TTGlyph name="Wacute" xMin="81" yMin="-8" xMax="1563" yMax="1756">
      <component glyphName="W" x="0" y="0" flags="0x204"/>
      <component glyphName="glyph00443" x="425" y="0" flags="0x4"/>
    </TTGlyph>
    <TTGlyph name="Wcircumflex" xMin="81" yMin="-8" xMax="1563" yMax="1752">
      <component glyphName="W" x="0" y="0" flags="0x204"/>
      <component glyphName="glyph00445" x="425" y="0" flags="0x4"/>
    </TTGlyph>
    <TTGlyph name="Wdieresis" xMin="81" yMin="-8" xMax="1563" yMax="1647">
      <component glyphName="W" x="0" y="0" flags="0x204"/>
      <component glyphName="glyph00440" x="425" y="0" flags="0x4"/>
    </TTGlyph>
    <TTGlyph name="Wgrave" xMin="81" yMin="-8" xMax="1563" yMax="1756">
      <component glyphName="W" x="0" y="0" flags="0x204"/>
      <component glyphName="glyph00442" x="425" y="0" flags="0x4"/>
    </TTGlyph>
    <TTGlyph name="X" xMin="49" yMin="-12" xMax="1088" yMax="1378">
      <contour>
        <pt x="107" y="1344" on="1"/>
        <pt x="131" y="1362" on="0"/>
        <pt x="181" y="1378" on="0"/>
        <pt x="203" y="1378" on="1"/>
        <pt x="225" y="1378" on="0"/>
        <pt x="271" y="1351" on="0"/>
        <pt x="291" y="1319" on="1"/>
        <pt x="1088" y="22" on="1"/>
        <pt x="1064" y="4" on="0"/>
        <pt x="1014" y="-12" on="0"/>
        <pt x="992" y="-12" on="1"/>
        <pt x="970" y="-12" on="0"/>
        <pt x="924" y="15" on="0"/>
        <pt x="904" y="47" on="1"/>
      </contour>
      <contour>
        <pt x="907" y="1366" on="1"/>
        <pt x="914" y="1369" on="0"/>
        <pt x="951" y="1374" on="0"/>
        <pt x="965" y="1374" on="1"/>
        <pt x="988" y="1374" on="0"/>
        <pt x="1028" y="1366" on="0"/>
        <pt x="1038" y="1360" on="1"/>
        <pt x="1044" y="1348" on="1"/>
        <pt x="638" y="697" on="1"/>
        <pt x="579" y="638" on="1"/>
        <pt x="190" y="0" on="1"/>
        <pt x="183" y="-3" on="0"/>
        <pt x="141" y="-8" on="0"/>
        <pt x="127" y="-8" on="1"/>
        <pt x="105" y="-8" on="0"/>
        <pt x="65" y="0" on="0"/>
        <pt x="54" y="6" on="1"/>
        <pt x="49" y="18" on="1"/>
        <pt x="506" y="749" on="1"/>
        <pt x="565" y="810" on="1"/>
      </contour>
    </TTGlyph>
    <TTGlyph name="Y" xMin="33" yMin="-6" xMax="925" yMax="1380">
      <contour>
        <pt x="408" y="537" on="1"/>
        <pt x="550" y="537" on="1"/>
        <pt x="550" y="0" on="1"/>
        <pt x="535" y="-3" on="0"/>
        <pt x="498" y="-6" on="0"/>
        <pt x="477" y="-6" on="1"/>
        <pt x="458" y="-6" on="0"/>
        <pt x="422" y="-3" on="0"/>
        <pt x="408" y="0" on="1"/>
      </contour>
      <contour>
        <pt x="788" y="1366" on="1"/>
        <pt x="803" y="1370" on="0"/>
        <pt x="836" y="1374" on="0"/>
        <pt x="851" y="1374" on="1"/>
        <pt x="870" y="1374" on="0"/>
        <pt x="903" y="1369" on="0"/>
        <pt x="919" y="1364" on="1"/>
        <pt x="925" y="1352" on="1"/>
        <pt x="532" y="404" on="1"/>
        <pt x="428" y="404" on="1"/>
        <pt x="33" y="1350" on="1"/>
        <pt x="64" y="1368" on="0"/>
        <pt x="107" y="1380" on="0"/>
        <pt x="125" y="1380" on="1"/>
        <pt x="154" y="1380" on="0"/>
        <pt x="190" y="1345" on="0"/>
        <pt x="204" y="1311" on="1"/>
        <pt x="403" y="829" on="1"/>
        <pt x="423" y="783" on="0"/>
        <pt x="468" y="651" on="0"/>
        <pt x="483" y="604" on="1"/>
        <pt x="493" y="604" on="1"/>
        <pt x="503" y="637" on="0"/>
        <pt x="536" y="729" on="0"/>
        <pt x="568" y="811" on="0"/>
        <pt x="575" y="829" on="1"/>
      </contour>
    </TTGlyph>
    <TTGlyph name="Yacute" xMin="33" yMin="-6" xMax="925" yMax="1756">
      <component glyphName="Y" x="0" y="0" flags="0x204"/>
      <component glyphName="glyph00443" x="87" y="0" flags="0x4"/>
    </TTGlyph>
    <TTGlyph name="Ycircumflex" xMin="33" yMin="-6" xMax="925" yMax="1752">
      <component glyphName="Y" x="0" y="0" flags="0x204"/>
      <component glyphName="glyph00445" x="87" y="0" flags="0x4"/>
    </TTGlyph>
    <TTGlyph name="Ydieresis" xMin="33" yMin="-6" xMax="925" yMax="1647">
      <component glyphName="Y" x="0" y="0" flags="0x204"/>
      <component glyphName="glyph00440" x="87" y="0" flags="0x4"/>
    </TTGlyph>
    <TTGlyph name="Ygrave" xMin="33" yMin="-6" xMax="925" yMax="1756">
      <component glyphName="Y" x="0" y="0" flags="0x204"/>
      <component glyphName="glyph00442" x="87" y="0" flags="0x4"/>
    </TTGlyph>
    <TTGlyph name="Z" xMin="109" yMin="0" xMax="993" yMax="1366">
      <contour>
        <pt x="676" y="1026" on="1"/>
        <pt x="709" y="1077" on="0"/>
        <pt x="785" y="1183" on="0"/>
        <pt x="830" y="1248" on="1"/>
        <pt x="824" y="1254" on="1"/>
        <pt x="807" y="1250" on="0"/>
        <pt x="720" y="1245" on="0"/>
        <pt x="616" y="1242" on="0"/>
        <pt x="527" y="1240" on="0"/>
        <pt x="510" y="1240" on="1"/>
        <pt x="165" y="1240" on="1"/>
        <pt x="162" y="1252" on="0"/>
        <pt x="159" y="1277" on="0"/>
        <pt x="159" y="1289" on="1"/>
        <pt x="159" y="1308" on="0"/>
        <pt x="165" y="1347" on="0"/>
        <pt x="171" y="1366" on="1"/>
        <pt x="955" y="1366" on="1"/>
        <pt x="964" y="1337" on="0"/>
        <pt x="973" y="1300" on="0"/>
        <pt x="977" y="1277" on="0"/>
        <pt x="977" y="1268" on="1"/>
        <pt x="977" y="1253" on="0"/>
        <pt x="965" y="1220" on="0"/>
        <pt x="953" y="1200" on="1"/>
        <pt x="413" y="357" on="1"/>
        <pt x="379" y="302" on="0"/>
        <pt x="294" y="181" on="0"/>
        <pt x="255" y="124" on="1"/>
        <pt x="261" y="118" on="1"/>
        <pt x="324" y="124" on="0"/>
        <pt x="428" y="128" on="0"/>
        <pt x="464" y="128" on="1"/>
        <pt x="736" y="128" on="1"/>
        <pt x="819" y="128" on="0"/>
        <pt x="940" y="142" on="0"/>
        <pt x="979" y="160" on="1"/>
        <pt x="985" y="142" on="0"/>
        <pt x="993" y="104" on="0"/>
        <pt x="993" y="85" on="1"/>
        <pt x="993" y="46" on="0"/>
        <pt x="947" y="0" on="0"/>
        <pt x="886" y="0" on="1"/>
        <pt x="130" y="0" on="1"/>
        <pt x="120" y="30" on="0"/>
        <pt x="111" y="66" on="0"/>
        <pt x="109" y="88" on="0"/>
        <pt x="109" y="96" on="1"/>
        <pt x="109" y="113" on="0"/>
        <pt x="118" y="150" on="0"/>
        <pt x="130" y="170" on="1"/>
      </contour>
    </TTGlyph>
    <TTGlyph name="Zacute" xMin="109" yMin="0" xMax="993" yMax="1756">
      <component glyphName="Z" x="0" y="0" flags="0x204"/>
      <component glyphName="glyph00443" x="164" y="0" flags="0x4"/>
    </TTGlyph>
    <TTGlyph name="Zcaron" xMin="109" yMin="0" xMax="993" yMax="1749">
      <component glyphName="Z" x="0" y="0" flags="0x204"/>
      <component glyphName="glyph00446" x="164" y="0" flags="0x4"/>
    </TTGlyph>
    <TTGlyph name="Zdotaccent" xMin="109" yMin="0" xMax="993" yMax="1670">
      <component glyphName="Z" x="0" y="0" flags="0x204"/>
      <component glyphName="glyph00441" x="164" y="0" flags="0x4"/>
    </TTGlyph>
    <TTGlyph name="a" xMin="38" yMin="-12" xMax="1008" yMax="1092">
      <contour>
        <pt x="443" y="1084" on="1"/>
        <pt x="453" y="1087" on="0"/>
        <pt x="507" y="1092" on="0"/>
        <pt x="525" y="1092" on="1"/>
        <pt x="541" y="1092" on="0"/>
        <pt x="593" y="1087" on="0"/>
        <pt x="601" y="1084" on="1"/>
        <pt x="1008" y="6" on="1"/>
        <pt x="992" y="-3" on="0"/>
        <pt x="951" y="-12" on="0"/>
        <pt x="925" y="-12" on="1"/>
        <pt x="891" y="-12" on="0"/>
        <pt x="859" y="18" on="0"/>
        <pt x="843" y="61" on="1"/>
        <pt x="619" y="667" on="1"/>
        <pt x="605" y="704" on="0"/>
        <pt x="568" y="809" on="0"/>
        <pt x="532" y="915" on="0"/>
        <pt x="519" y="956" on="1"/>
        <pt x="511" y="956" on="1"/>
        <pt x="495" y="897" on="0"/>
        <pt x="451" y="765" on="0"/>
        <pt x="438" y="730" on="1"/>
        <pt x="168" y="-2" on="1"/>
        <pt x="155" y="-5" on="0"/>
        <pt x="122" y="-8" on="0"/>
        <pt x="107" y="-8" on="1"/>
        <pt x="88" y="-8" on="0"/>
        <pt x="54" y="-3" on="0"/>
        <pt x="42" y="2" on="1"/>
        <pt x="38" y="8" on="1"/>
      </contour>
      <contour>
        <pt x="406" y="275" on="1"/>
        <pt x="400" y="275" on="0"/>
        <pt x="335" y="276" on="0"/>
        <pt x="270" y="277" on="0"/>
        <pt x="263" y="277" on="1"/>
        <pt x="208" y="277" on="1"/>
        <pt x="255" y="393" on="1"/>
        <pt x="304" y="393" on="1"/>
        <pt x="311" y="393" on="0"/>
        <pt x="365" y="394" on="0"/>
        <pt x="419" y="395" on="0"/>
        <pt x="425" y="395" on="1"/>
        <pt x="622" y="395" on="1"/>
        <pt x="628" y="395" on="0"/>
        <pt x="675" y="394" on="0"/>
        <pt x="724" y="393" on="0"/>
        <pt x="730" y="393" on="1"/>
        <pt x="781" y="393" on="1"/>
        <pt x="826" y="277" on="1"/>
        <pt x="770" y="277" on="1"/>
        <pt x="764" y="277" on="0"/>
        <pt x="705" y="276" on="0"/>
        <pt x="645" y="275" on="0"/>
        <pt x="639" y="275" on="1"/>
      </contour>
    </TTGlyph>
    <TTGlyph name="aacute" xMin="38" yMin="-12" xMax="1008" yMax="1540">
      <component glyphName="a" x="0" y="0" flags="0x204"/>
      <component glyphName="acutecomb" x="125" y="104" flags="0x4"/>
    </TTGlyph>
    <TTGlyph name="abreve" xMin="38" yMin="-12" xMax="1008" yMax="1471">
      <component glyphName="a" x="0" y="0" flags="0x204"/>
      <component glyphName="uni0306" x="125" y="104" flags="0x4"/>
    </TTGlyph>
    <TTGlyph name="acircumflex" xMin="38" yMin="-12" xMax="1008" yMax="1517">
      <component glyphName="a" x="0" y="0" flags="0x204"/>
      <component glyphName="uni0302" x="125" y="104" flags="0x4"/>
    </TTGlyph>
    <TTGlyph name="acute" xMin="273" yMin="1072" xMax="661" yMax="1436">
      <component glyphName="acutecomb" x="0" y="0" flags="0x4"/>
    </TTGlyph>
    <TTGlyph name="acutecomb" xMin="273" yMin="1072" xMax="661" yMax="1436">
      <contour>
        <pt x="544" y="1436" on="1"/>
        <pt x="583" y="1424" on="0"/>
        <pt x="646" y="1364" on="0"/>
        <pt x="661" y="1330" on="1"/>
        <pt x="338" y="1072" on="1"/>
        <pt x="317" y="1078" on="0"/>
        <pt x="282" y="1112" on="0"/>
        <pt x="273" y="1131" on="1"/>
      </contour>
    </TTGlyph>
    <TTGlyph name="adieresis" xMin="38" yMin="-12" xMax="1008" yMax="1397">
      <component glyphName="a" x="0" y="0" flags="0x204"/>
      <component glyphName="uni0308" x="125" y="104" flags="0x4"/>
    </TTGlyph>
    <TTGlyph name="ae" xMin="30" yMin="-8" xMax="1443" yMax="1084">
      <contour>
        <pt x="654" y="1070" on="1"/>
        <pt x="670" y="1077" on="0"/>
        <pt x="720" y="1084" on="0"/>
        <pt x="736" y="1084" on="1"/>
        <pt x="843" y="1084" on="1"/>
        <pt x="722" y="963" on="1"/>
        <pt x="712" y="963" on="1"/>
        <pt x="691" y="924" on="0"/>
        <pt x="633" y="813" on="0"/>
        <pt x="573" y="701" on="0"/>
        <pt x="550" y="660" on="1"/>
        <pt x="168" y="-2" on="1"/>
        <pt x="153" y="-5" on="0"/>
        <pt x="117" y="-8" on="0"/>
        <pt x="101" y="-8" on="1"/>
        <pt x="85" y="-8" on="0"/>
        <pt x="49" y="-4" on="0"/>
        <pt x="34" y="2" on="1"/>
        <pt x="30" y="10" on="1"/>
      </contour>
      <contour>
        <pt x="445" y="275" on="1"/>
        <pt x="440" y="275" on="0"/>
        <pt x="385" y="276" on="0"/>
        <pt x="330" y="277" on="0"/>
        <pt x="323" y="277" on="1"/>
        <pt x="268" y="277" on="1"/>
        <pt x="330" y="391" on="1"/>
        <pt x="378" y="391" on="1"/>
        <pt x="385" y="391" on="0"/>
        <pt x="430" y="392" on="0"/>
        <pt x="475" y="393" on="0"/>
        <pt x="481" y="393" on="1"/>
        <pt x="607" y="393" on="1"/>
        <pt x="613" y="393" on="0"/>
        <pt x="671" y="392" on="0"/>
        <pt x="729" y="391" on="0"/>
        <pt x="736" y="391" on="1"/>
        <pt x="785" y="391" on="1"/>
        <pt x="785" y="277" on="1"/>
        <pt x="736" y="277" on="1"/>
        <pt x="729" y="277" on="0"/>
        <pt x="671" y="276" on="0"/>
        <pt x="613" y="275" on="0"/>
        <pt x="607" y="275" on="1"/>
      </contour>
      <contour>
        <pt x="722" y="1074" on="1"/>
        <pt x="736" y="1084" on="1"/>
        <pt x="860" y="1084" on="1"/>
        <pt x="858" y="970" on="1"/>
        <pt x="858" y="952" on="0"/>
        <pt x="860" y="898" on="0"/>
        <pt x="860" y="866" on="1"/>
        <pt x="860" y="185" on="1"/>
        <pt x="860" y="167" on="0"/>
        <pt x="858" y="125" on="0"/>
        <pt x="858" y="116" on="1"/>
        <pt x="858" y="0" on="1"/>
        <pt x="803" y="0" on="1"/>
        <pt x="766" y="0" on="0"/>
        <pt x="722" y="47" on="0"/>
        <pt x="722" y="89" on="1"/>
      </contour>
      <contour>
        <pt x="1319" y="611" on="1"/>
        <pt x="1323" y="596" on="0"/>
        <pt x="1325" y="562" on="0"/>
        <pt x="1325" y="552" on="1"/>
        <pt x="1325" y="540" on="0"/>
        <pt x="1323" y="508" on="0"/>
        <pt x="1319" y="493" on="1"/>
        <pt x="965" y="493" on="1"/>
        <pt x="946" y="493" on="0"/>
        <pt x="893" y="493" on="0"/>
        <pt x="837" y="494" on="0"/>
        <pt x="811" y="495" on="1"/>
        <pt x="811" y="609" on="1"/>
        <pt x="837" y="609" on="0"/>
        <pt x="893" y="610" on="0"/>
        <pt x="946" y="611" on="0"/>
        <pt x="965" y="611" on="1"/>
      </contour>
      <contour>
        <pt x="1413" y="1084" on="1"/>
        <pt x="1416" y="1069" on="0"/>
        <pt x="1417" y="1041" on="0"/>
        <pt x="1417" y="1029" on="1"/>
        <pt x="1417" y="1017" on="0"/>
        <pt x="1413" y="982" on="0"/>
        <pt x="1407" y="966" on="1"/>
        <pt x="965" y="966" on="1"/>
        <pt x="946" y="966" on="0"/>
        <pt x="893" y="966" on="0"/>
        <pt x="837" y="967" on="0"/>
        <pt x="811" y="968" on="1"/>
        <pt x="811" y="1084" on="1"/>
      </contour>
      <contour>
        <pt x="1443" y="120" on="1"/>
        <pt x="1443" y="54" on="0"/>
        <pt x="1398" y="0" on="0"/>
        <pt x="1350" y="0" on="1"/>
        <pt x="813" y="0" on="1"/>
        <pt x="813" y="114" on="1"/>
        <pt x="832" y="116" on="0"/>
        <pt x="875" y="119" on="0"/>
        <pt x="930" y="120" on="0"/>
        <pt x="967" y="120" on="1"/>
      </contour>
    </TTGlyph>
    <TTGlyph name="agrave" xMin="38" yMin="-12" xMax="1008" yMax="1540">
      <component glyphName="a" x="0" y="0" flags="0x204"/>
      <component glyphName="gravecomb" x="133" y="104" flags="0x4"/>
    </TTGlyph>
    <TTGlyph name="amacron" xMin="38" yMin="-12" xMax="1008" yMax="1387">
      <component glyphName="a" x="0" y="0" flags="0x204"/>
      <component glyphName="uni0304" x="125" y="104" flags="0x4"/>
    </TTGlyph>
    <TTGlyph name="ampersand" xMin="115" yMin="-24" xMax="1150" yMax="1390">
      <contour>
        <pt x="954" y="789" on="1"/>
        <pt x="1005" y="789" on="0"/>
        <pt x="1102" y="801" on="0"/>
        <pt x="1130" y="815" on="1"/>
        <pt x="1140" y="801" on="0"/>
        <pt x="1150" y="762" on="0"/>
        <pt x="1150" y="746" on="1"/>
        <pt x="1150" y="696" on="0"/>
        <pt x="1075" y="667" on="0"/>
        <pt x="1025" y="667" on="1"/>
        <pt x="581" y="667" on="1"/>
        <pt x="462" y="667" on="0"/>
        <pt x="323" y="568" on="0"/>
        <pt x="264" y="426" on="0"/>
        <pt x="264" y="360" on="1"/>
        <pt x="264" y="239" on="0"/>
        <pt x="395" y="96" on="0"/>
        <pt x="513" y="96" on="1"/>
        <pt x="602" y="96" on="0"/>
        <pt x="765" y="158" on="0"/>
        <pt x="815" y="201" on="1"/>
        <pt x="815" y="539" on="1"/>
        <pt x="815" y="576" on="0"/>
        <pt x="817" y="689" on="0"/>
        <pt x="819" y="728" on="1"/>
        <pt x="948" y="728" on="1"/>
        <pt x="950" y="689" on="0"/>
        <pt x="952" y="575" on="0"/>
        <pt x="952" y="541" on="1"/>
        <pt x="952" y="292" on="1"/>
        <pt x="952" y="220" on="0"/>
        <pt x="958" y="65" on="0"/>
        <pt x="964" y="0" on="1"/>
        <pt x="951" y="-3" on="0"/>
        <pt x="918" y="-6" on="0"/>
        <pt x="897" y="-6" on="1"/>
        <pt x="857" y="-6" on="0"/>
        <pt x="830" y="0" on="1"/>
        <pt x="819" y="78" on="1"/>
        <pt x="748" y="31" on="0"/>
        <pt x="578" y="-24" on="0"/>
        <pt x="492" y="-24" on="1"/>
        <pt x="368" y="-24" on="0"/>
        <pt x="200" y="75" on="0"/>
        <pt x="115" y="248" on="0"/>
        <pt x="115" y="360" on="1"/>
        <pt x="115" y="468" on="0"/>
        <pt x="217" y="641" on="0"/>
        <pt x="376" y="744" on="0"/>
        <pt x="461" y="746" on="1"/>
        <pt x="461" y="718" on="1"/>
        <pt x="384" y="721" on="0"/>
        <pt x="251" y="809" on="0"/>
        <pt x="171" y="952" on="0"/>
        <pt x="171" y="1038" on="1"/>
        <pt x="171" y="1132" on="0"/>
        <pt x="264" y="1292" on="0"/>
        <pt x="446" y="1390" on="0"/>
        <pt x="578" y="1390" on="1"/>
        <pt x="669" y="1390" on="0"/>
        <pt x="847" y="1359" on="0"/>
        <pt x="907" y="1336" on="1"/>
        <pt x="906" y="1307" on="0"/>
        <pt x="886" y="1241" on="0"/>
        <pt x="867" y="1220" on="1"/>
        <pt x="801" y="1239" on="0"/>
        <pt x="659" y="1270" on="0"/>
        <pt x="573" y="1270" on="1"/>
        <pt x="454" y="1270" on="0"/>
        <pt x="320" y="1137" on="0"/>
        <pt x="320" y="1032" on="1"/>
        <pt x="320" y="929" on="0"/>
        <pt x="453" y="789" on="0"/>
        <pt x="599" y="789" on="1"/>
      </contour>
    </TTGlyph>
    <TTGlyph name="aogonek" xMin="38" yMin="-434" xMax="1098" yMax="1092">
      <contour>
        <pt x="1063" y="-295" on="1"/>
        <pt x="1077" y="-307" on="0"/>
        <pt x="1098" y="-345" on="0"/>
        <pt x="1098" y="-370" on="1"/>
        <pt x="1065" y="-397" on="0"/>
        <pt x="958" y="-434" on="0"/>
        <pt x="903" y="-434" on="1"/>
        <pt x="818" y="-434" on="0"/>
        <pt x="703" y="-341" on="0"/>
        <pt x="703" y="-254" on="1"/>
        <pt x="703" y="-196" on="0"/>
        <pt x="759" y="-86" on="0"/>
        <pt x="853" y="10" on="0"/>
        <pt x="911" y="46" on="1"/>
        <pt x="1008" y="6" on="1"/>
        <pt x="934" y="-44" on="0"/>
        <pt x="828" y="-160" on="0"/>
        <pt x="828" y="-229" on="1"/>
        <pt x="828" y="-279" on="0"/>
        <pt x="887" y="-331" on="0"/>
        <pt x="934" y="-331" on="1"/>
        <pt x="970" y="-331" on="0"/>
        <pt x="1038" y="-309" on="0"/>
      </contour>
      <contour>
        <pt x="443" y="1084" on="1"/>
        <pt x="453" y="1087" on="0"/>
        <pt x="507" y="1092" on="0"/>
        <pt x="525" y="1092" on="1"/>
        <pt x="541" y="1092" on="0"/>
        <pt x="593" y="1087" on="0"/>
        <pt x="601" y="1084" on="1"/>
        <pt x="1008" y="6" on="1"/>
        <pt x="992" y="-3" on="0"/>
        <pt x="951" y="-12" on="0"/>
        <pt x="925" y="-12" on="1"/>
        <pt x="891" y="-12" on="0"/>
        <pt x="859" y="18" on="0"/>
        <pt x="843" y="61" on="1"/>
        <pt x="619" y="667" on="1"/>
        <pt x="605" y="704" on="0"/>
        <pt x="568" y="809" on="0"/>
        <pt x="532" y="915" on="0"/>
        <pt x="519" y="956" on="1"/>
        <pt x="511" y="956" on="1"/>
        <pt x="495" y="897" on="0"/>
        <pt x="451" y="765" on="0"/>
        <pt x="438" y="730" on="1"/>
        <pt x="168" y="-2" on="1"/>
        <pt x="155" y="-5" on="0"/>
        <pt x="122" y="-8" on="0"/>
        <pt x="107" y="-8" on="1"/>
        <pt x="88" y="-8" on="0"/>
        <pt x="54" y="-3" on="0"/>
        <pt x="42" y="2" on="1"/>
        <pt x="38" y="8" on="1"/>
      </contour>
      <contour>
        <pt x="406" y="275" on="1"/>
        <pt x="400" y="275" on="0"/>
        <pt x="335" y="276" on="0"/>
        <pt x="270" y="277" on="0"/>
        <pt x="263" y="277" on="1"/>
        <pt x="208" y="277" on="1"/>
        <pt x="255" y="393" on="1"/>
        <pt x="304" y="393" on="1"/>
        <pt x="311" y="393" on="0"/>
        <pt x="365" y="394" on="0"/>
        <pt x="419" y="395" on="0"/>
        <pt x="425" y="395" on="1"/>
        <pt x="622" y="395" on="1"/>
        <pt x="628" y="395" on="0"/>
        <pt x="675" y="394" on="0"/>
        <pt x="724" y="393" on="0"/>
        <pt x="730" y="393" on="1"/>
        <pt x="781" y="393" on="1"/>
        <pt x="826" y="277" on="1"/>
        <pt x="770" y="277" on="1"/>
        <pt x="764" y="277" on="0"/>
        <pt x="705" y="276" on="0"/>
        <pt x="645" y="275" on="0"/>
        <pt x="639" y="275" on="1"/>
      </contour>
    </TTGlyph>
    <TTGlyph name="approxequal" xMin="90" yMin="291" xMax="983" yMax="869">
      <component glyphName="asciitilde" x="4" y="170" scalex="0.9606" scaley="0.9815" flags="0x4"/>
      <component glyphName="asciitilde" x="4" y="-148" scalex="0.9606" scaley="0.9815" flags="0x4"/>
    </TTGlyph>
    <TTGlyph name="aring" xMin="38" yMin="-12" xMax="1008" yMax="1590">
      <component glyphName="a" x="0" y="0" flags="0x204"/>
      <component glyphName="uni030A" x="125" y="104" flags="0x4"/>
    </TTGlyph>
    <TTGlyph name="asciicircum" xMin="109" yMin="604" xMax="951" yMax="1304">
      <contour>
        <pt x="951" y="612" on="1"/>
        <pt x="929" y="604" on="0"/>
        <pt x="881" y="604" on="1"/>
        <pt x="862" y="604" on="0"/>
        <pt x="823" y="608" on="0"/>
        <pt x="810" y="612" on="1"/>
        <pt x="600" y="1039" on="1"/>
        <pt x="588" y="1064" on="0"/>
        <pt x="566" y="1110" on="0"/>
        <pt x="546" y="1155" on="0"/>
        <pt x="536" y="1178" on="1"/>
        <pt x="524" y="1178" on="1"/>
        <pt x="514" y="1155" on="0"/>
        <pt x="494" y="1110" on="0"/>
        <pt x="472" y="1064" on="0"/>
        <pt x="460" y="1039" on="1"/>
        <pt x="250" y="612" on="1"/>
        <pt x="237" y="608" on="0"/>
        <pt x="198" y="604" on="0"/>
        <pt x="179" y="604" on="1"/>
        <pt x="131" y="604" on="0"/>
        <pt x="109" y="612" on="1"/>
        <pt x="455" y="1296" on="1"/>
        <pt x="470" y="1300" on="0"/>
        <pt x="509" y="1304" on="0"/>
        <pt x="530" y="1304" on="1"/>
        <pt x="551" y="1304" on="0"/>
        <pt x="590" y="1300" on="0"/>
        <pt x="605" y="1296" on="1"/>
      </contour>
    </TTGlyph>
    <TTGlyph name="asciitilde" xMin="90" yMin="447" xMax="1019" yMax="712">
      <contour>
        <pt x="668" y="605" on="1"/>
        <pt x="697" y="593" on="0"/>
        <pt x="754" y="579" on="0"/>
        <pt x="781" y="579" on="1"/>
        <pt x="820" y="579" on="0"/>
        <pt x="884" y="618" on="0"/>
        <pt x="909" y="651" on="1"/>
        <pt x="939" y="689" on="1"/>
        <pt x="962" y="687" on="0"/>
        <pt x="1010" y="658" on="0"/>
        <pt x="1019" y="636" on="1"/>
        <pt x="1001" y="602" on="1"/>
        <pt x="961" y="524" on="0"/>
        <pt x="839" y="447" on="0"/>
        <pt x="757" y="447" on="1"/>
        <pt x="716" y="447" on="0"/>
        <pt x="632" y="469" on="0"/>
        <pt x="593" y="487" on="1"/>
        <pt x="441" y="555" on="1"/>
        <pt x="413" y="567" on="0"/>
        <pt x="356" y="581" on="0"/>
        <pt x="329" y="581" on="1"/>
        <pt x="290" y="581" on="0"/>
        <pt x="226" y="542" on="0"/>
        <pt x="200" y="509" on="1"/>
        <pt x="171" y="471" on="1"/>
        <pt x="147" y="472" on="0"/>
        <pt x="99" y="502" on="0"/>
        <pt x="90" y="524" on="1"/>
        <pt x="108" y="557" on="1"/>
        <pt x="148" y="635" on="0"/>
        <pt x="271" y="712" on="0"/>
        <pt x="353" y="712" on="1"/>
        <pt x="393" y="712" on="0"/>
        <pt x="478" y="690" on="0"/>
        <pt x="517" y="672" on="1"/>
      </contour>
    </TTGlyph>
    <TTGlyph name="asterisk" xMin="98" yMin="716" xMax="889" yMax="1475">
      <contour>
        <pt x="427" y="1462" on="1"/>
        <pt x="443" y="1470" on="0"/>
        <pt x="493" y="1475" on="0"/>
        <pt x="543" y="1470" on="0"/>
        <pt x="561" y="1462" on="1"/>
        <pt x="563" y="1363" on="1"/>
        <pt x="564" y="1293" on="0"/>
        <pt x="538" y="1149" on="0"/>
        <pt x="527" y="1093" on="1"/>
        <pt x="509" y="1071" on="0"/>
        <pt x="494" y="1071" on="1"/>
        <pt x="476" y="1071" on="0"/>
        <pt x="460" y="1093" on="1"/>
        <pt x="448" y="1149" on="0"/>
        <pt x="423" y="1293" on="0"/>
        <pt x="424" y="1363" on="1"/>
      </contour>
      <contour>
        <pt x="100" y="1129" on="1"/>
        <pt x="98" y="1147" on="0"/>
        <pt x="109" y="1195" on="0"/>
        <pt x="130" y="1241" on="0"/>
        <pt x="144" y="1256" on="1"/>
        <pt x="237" y="1228" on="1"/>
        <pt x="304" y="1207" on="0"/>
        <pt x="433" y="1136" on="0"/>
        <pt x="484" y="1110" on="1"/>
        <pt x="499" y="1085" on="0"/>
        <pt x="494" y="1071" on="1"/>
        <pt x="491" y="1063" on="0"/>
        <pt x="477" y="1050" on="0"/>
        <pt x="462" y="1047" on="1"/>
        <pt x="405" y="1053" on="0"/>
        <pt x="260" y="1071" on="0"/>
        <pt x="194" y="1095" on="1"/>
      </contour>
      <contour>
        <pt x="317" y="716" on="1"/>
        <pt x="299" y="720" on="0"/>
        <pt x="257" y="744" on="0"/>
        <pt x="220" y="777" on="0"/>
        <pt x="209" y="795" on="1"/>
        <pt x="264" y="874" on="1"/>
        <pt x="305" y="931" on="0"/>
        <pt x="411" y="1034" on="0"/>
        <pt x="452" y="1073" on="1"/>
        <pt x="480" y="1081" on="0"/>
        <pt x="494" y="1071" on="1"/>
        <pt x="499" y="1066" on="0"/>
        <pt x="509" y="1048" on="0"/>
        <pt x="507" y="1035" on="1"/>
        <pt x="483" y="981" on="0"/>
        <pt x="421" y="849" on="0"/>
        <pt x="377" y="793" on="1"/>
      </contour>
      <contour>
        <pt x="776" y="793" on="1"/>
        <pt x="768" y="777" on="0"/>
        <pt x="732" y="744" on="0"/>
        <pt x="689" y="720" on="0"/>
        <pt x="668" y="716" on="1"/>
        <pt x="610" y="793" on="1"/>
        <pt x="567" y="849" on="0"/>
        <pt x="505" y="981" on="0"/>
        <pt x="480" y="1033" on="1"/>
        <pt x="480" y="1060" on="0"/>
        <pt x="494" y="1071" on="1"/>
        <pt x="499" y="1075" on="0"/>
        <pt x="520" y="1079" on="0"/>
        <pt x="533" y="1073" on="1"/>
        <pt x="577" y="1034" on="0"/>
        <pt x="684" y="931" on="0"/>
        <pt x="723" y="874" on="1"/>
      </contour>
      <contour>
        <pt x="845" y="1254" on="1"/>
        <pt x="857" y="1242" on="0"/>
        <pt x="878" y="1198" on="0"/>
        <pt x="889" y="1148" on="0"/>
        <pt x="887" y="1127" on="1"/>
        <pt x="793" y="1095" on="1"/>
        <pt x="727" y="1073" on="0"/>
        <pt x="583" y="1054" on="0"/>
        <pt x="528" y="1047" on="1"/>
        <pt x="500" y="1054" on="0"/>
        <pt x="494" y="1071" on="1"/>
        <pt x="486" y="1088" on="0"/>
        <pt x="504" y="1108" on="1"/>
        <pt x="555" y="1138" on="0"/>
        <pt x="684" y="1209" on="0"/>
        <pt x="750" y="1228" on="1"/>
      </contour>
    </TTGlyph>
    <TTGlyph name="at" xMin="117" yMin="-357" xMax="1760" yMax="1344">
      <contour>
        <pt x="1280" y="306" on="1"/>
        <pt x="1280" y="215" on="0"/>
        <pt x="1332" y="141" on="0"/>
        <pt x="1385" y="141" on="1"/>
        <pt x="1441" y="141" on="0"/>
        <pt x="1552" y="225" on="0"/>
        <pt x="1625" y="416" on="0"/>
        <pt x="1625" y="578" on="1"/>
        <pt x="1625" y="774" on="0"/>
        <pt x="1461" y="1072" on="0"/>
        <pt x="1163" y="1240" on="0"/>
        <pt x="961" y="1240" on="1"/>
        <pt x="800" y="1240" on="0"/>
        <pt x="540" y="1120" on="0"/>
        <pt x="354" y="906" on="0"/>
        <pt x="254" y="621" on="0"/>
        <pt x="254" y="456" on="1"/>
        <pt x="254" y="232" on="0"/>
        <pt x="414" y="-82" on="0"/>
        <pt x="696" y="-247" on="0"/>
        <pt x="879" y="-247" on="1"/>
        <pt x="995" y="-247" on="0"/>
        <pt x="1203" y="-213" on="0"/>
        <pt x="1293" y="-175" on="1"/>
        <pt x="1309" y="-188" on="0"/>
        <pt x="1335" y="-247" on="0"/>
        <pt x="1335" y="-276" on="1"/>
        <pt x="1260" y="-303" on="0"/>
        <pt x="1108" y="-339" on="0"/>
        <pt x="953" y="-357" on="0"/>
        <pt x="873" y="-357" on="1"/>
        <pt x="655" y="-357" on="0"/>
        <pt x="313" y="-167" on="0"/>
        <pt x="117" y="197" on="0"/>
        <pt x="117" y="456" on="1"/>
        <pt x="117" y="644" on="0"/>
        <pt x="239" y="967" on="0"/>
        <pt x="464" y="1209" on="0"/>
        <pt x="774" y="1344" on="0"/>
        <pt x="961" y="1344" on="1"/>
        <pt x="1140" y="1344" on="0"/>
        <pt x="1434" y="1232" on="0"/>
        <pt x="1645" y="1027" on="0"/>
        <pt x="1760" y="744" on="0"/>
        <pt x="1760" y="572" on="1"/>
        <pt x="1760" y="400" on="0"/>
        <pt x="1651" y="158" on="0"/>
        <pt x="1475" y="30" on="0"/>
        <pt x="1375" y="30" on="1"/>
        <pt x="1301" y="30" on="0"/>
        <pt x="1199" y="88" on="0"/>
        <pt x="1147" y="192" on="0"/>
        <pt x="1147" y="263" on="1"/>
        <pt x="1147" y="773" on="1"/>
        <pt x="1120" y="801" on="0"/>
        <pt x="1016" y="850" on="0"/>
        <pt x="955" y="850" on="1"/>
        <pt x="874" y="850" on="0"/>
        <pt x="759" y="741" on="0"/>
        <pt x="699" y="560" on="0"/>
        <pt x="699" y="452" on="1"/>
        <pt x="699" y="320" on="0"/>
        <pt x="795" y="137" on="0"/>
        <pt x="901" y="137" on="1"/>
        <pt x="951" y="137" on="0"/>
        <pt x="1059" y="196" on="0"/>
        <pt x="1147" y="288" on="0"/>
        <pt x="1166" y="337" on="1"/>
        <pt x="1221" y="258" on="1"/>
        <pt x="1197" y="199" on="0"/>
        <pt x="1092" y="90" on="0"/>
        <pt x="951" y="20" on="0"/>
        <pt x="876" y="20" on="1"/>
        <pt x="733" y="20" on="0"/>
        <pt x="562" y="251" on="0"/>
        <pt x="562" y="452" on="1"/>
        <pt x="562" y="586" on="0"/>
        <pt x="653" y="815" on="0"/>
        <pt x="828" y="956" on="0"/>
        <pt x="955" y="956" on="1"/>
        <pt x="1054" y="956" on="0"/>
        <pt x="1219" y="882" on="0"/>
        <pt x="1280" y="826" on="1"/>
      </contour>
    </TTGlyph>
    <TTGlyph name="atilde" xMin="38" yMin="-12" xMax="1008" yMax="1453">
      <component glyphName="a" x="0" y="0" flags="0x204"/>
      <component glyphName="tildecomb" x="125" y="104" flags="0x4"/>
    </TTGlyph>
    <TTGlyph name="b" xMin="185" yMin="-6" xMax="973" yMax="1090">
      <contour>
        <pt x="195" y="1084" on="1"/>
        <pt x="258" y="1085" on="0"/>
        <pt x="369" y="1087" on="0"/>
        <pt x="476" y="1090" on="0"/>
        <pt x="533" y="1090" on="1"/>
        <pt x="671" y="1090" on="0"/>
        <pt x="837" y="1019" on="0"/>
        <pt x="913" y="891" on="0"/>
        <pt x="913" y="806" on="1"/>
        <pt x="913" y="745" on="0"/>
        <pt x="852" y="641" on="0"/>
        <pt x="742" y="574" on="0"/>
        <pt x="668" y="568" on="1"/>
        <pt x="668" y="590" on="1"/>
        <pt x="743" y="590" on="0"/>
        <pt x="883" y="515" on="0"/>
        <pt x="973" y="385" on="0"/>
        <pt x="973" y="302" on="1"/>
        <pt x="973" y="221" on="0"/>
        <pt x="893" y="81" on="0"/>
        <pt x="711" y="-6" on="0"/>
        <pt x="555" y="-6" on="1"/>
        <pt x="480" y="-6" on="0"/>
        <pt x="365" y="-4" on="0"/>
        <pt x="258" y="-1" on="0"/>
        <pt x="195" y="0" on="1"/>
        <pt x="185" y="10" on="1"/>
        <pt x="185" y="1074" on="1"/>
      </contour>
      <contour>
        <pt x="324" y="106" on="1"/>
        <pt x="387" y="106" on="0"/>
        <pt x="502" y="108" on="0"/>
        <pt x="566" y="108" on="1"/>
        <pt x="675" y="108" on="0"/>
        <pt x="788" y="174" on="0"/>
        <pt x="827" y="267" on="0"/>
        <pt x="827" y="310" on="1"/>
        <pt x="827" y="352" on="0"/>
        <pt x="779" y="447" on="0"/>
        <pt x="657" y="515" on="0"/>
        <pt x="547" y="515" on="1"/>
        <pt x="267" y="515" on="1"/>
        <pt x="267" y="631" on="1"/>
        <pt x="532" y="631" on="1"/>
        <pt x="629" y="631" on="0"/>
        <pt x="732" y="684" on="0"/>
        <pt x="769" y="764" on="0"/>
        <pt x="769" y="804" on="1"/>
        <pt x="769" y="846" on="0"/>
        <pt x="733" y="925" on="0"/>
        <pt x="632" y="975" on="0"/>
        <pt x="536" y="975" on="1"/>
        <pt x="492" y="975" on="0"/>
        <pt x="372" y="976" on="0"/>
        <pt x="324" y="977" on="1"/>
      </contour>
    </TTGlyph>
    <TTGlyph name="backslash" xMin="28" yMin="-210" xMax="784" yMax="1514">
      <contour>
        <pt x="662" y="-210" on="1"/>
        <pt x="690" y="-208" on="0"/>
        <pt x="759" y="-184" on="0"/>
        <pt x="784" y="-164" on="1"/>
        <pt x="150" y="1514" on="1"/>
        <pt x="121" y="1514" on="0"/>
        <pt x="55" y="1489" on="0"/>
        <pt x="28" y="1469" on="1"/>
      </contour>
    </TTGlyph>
    <TTGlyph name="bar" xMin="181" yMin="-286" xMax="310" yMax="1556">
      <contour>
        <pt x="181" y="1550" on="1"/>
        <pt x="194" y="1553" on="0"/>
        <pt x="227" y="1556" on="0"/>
        <pt x="244" y="1556" on="1"/>
        <pt x="263" y="1556" on="0"/>
        <pt x="296" y="1553" on="0"/>
        <pt x="310" y="1550" on="1"/>
        <pt x="310" y="-280" on="1"/>
        <pt x="296" y="-283" on="0"/>
        <pt x="263" y="-286" on="0"/>
        <pt x="244" y="-286" on="1"/>
        <pt x="227" y="-286" on="0"/>
        <pt x="194" y="-283" on="0"/>
        <pt x="181" y="-280" on="1"/>
      </contour>
    </TTGlyph>
    <TTGlyph name="braceleft" xMin="74" yMin="-321" xMax="609" yMax="1615">
      <contour>
        <pt x="82" y="695" on="1"/>
        <pt x="148" y="722" on="0"/>
        <pt x="242" y="845" on="0"/>
        <pt x="242" y="941" on="1"/>
        <pt x="242" y="1294" on="1"/>
        <pt x="242" y="1429" on="0"/>
        <pt x="389" y="1582" on="0"/>
        <pt x="501" y="1601" on="1"/>
        <pt x="582" y="1615" on="1"/>
        <pt x="592" y="1604" on="0"/>
        <pt x="605" y="1570" on="0"/>
        <pt x="609" y="1531" on="0"/>
        <pt x="605" y="1513" on="1"/>
        <pt x="520" y="1487" on="1"/>
        <pt x="450" y="1466" on="0"/>
        <pt x="383" y="1367" on="0"/>
        <pt x="383" y="1292" on="1"/>
        <pt x="383" y="945" on="1"/>
        <pt x="383" y="856" on="0"/>
        <pt x="297" y="692" on="0"/>
        <pt x="223" y="656" on="1"/>
        <pt x="223" y="640" on="1"/>
        <pt x="297" y="604" on="0"/>
        <pt x="383" y="440" on="0"/>
        <pt x="383" y="350" on="1"/>
        <pt x="383" y="2" on="1"/>
        <pt x="383" y="-74" on="0"/>
        <pt x="450" y="-172" on="0"/>
        <pt x="520" y="-193" on="1"/>
        <pt x="605" y="-219" on="1"/>
        <pt x="609" y="-237" on="0"/>
        <pt x="605" y="-276" on="0"/>
        <pt x="592" y="-311" on="0"/>
        <pt x="582" y="-321" on="1"/>
        <pt x="501" y="-307" on="1"/>
        <pt x="389" y="-288" on="0"/>
        <pt x="242" y="-135" on="0"/>
        <pt x="242" y="0" on="1"/>
        <pt x="242" y="354" on="1"/>
        <pt x="242" y="449" on="0"/>
        <pt x="148" y="573" on="0"/>
        <pt x="82" y="601" on="1"/>
        <pt x="74" y="617" on="0"/>
        <pt x="74" y="679" on="0"/>
      </contour>
    </TTGlyph>
    <TTGlyph name="braceright" xMin="14" yMin="-321" xMax="549" yMax="1615">
      <contour>
        <pt x="541" y="695" on="1"/>
        <pt x="475" y="722" on="0"/>
        <pt x="381" y="845" on="0"/>
        <pt x="381" y="941" on="1"/>
        <pt x="381" y="1294" on="1"/>
        <pt x="381" y="1429" on="0"/>
        <pt x="235" y="1582" on="0"/>
        <pt x="123" y="1601" on="1"/>
        <pt x="41" y="1615" on="1"/>
        <pt x="32" y="1604" on="0"/>
        <pt x="18" y="1570" on="0"/>
        <pt x="14" y="1531" on="0"/>
        <pt x="18" y="1513" on="1"/>
        <pt x="103" y="1487" on="1"/>
        <pt x="173" y="1466" on="0"/>
        <pt x="240" y="1367" on="0"/>
        <pt x="240" y="1292" on="1"/>
        <pt x="240" y="945" on="1"/>
        <pt x="240" y="856" on="0"/>
        <pt x="327" y="692" on="0"/>
        <pt x="400" y="656" on="1"/>
        <pt x="400" y="640" on="1"/>
        <pt x="327" y="604" on="0"/>
        <pt x="240" y="440" on="0"/>
        <pt x="240" y="350" on="1"/>
        <pt x="240" y="2" on="1"/>
        <pt x="240" y="-74" on="0"/>
        <pt x="173" y="-172" on="0"/>
        <pt x="103" y="-193" on="1"/>
        <pt x="18" y="-219" on="1"/>
        <pt x="14" y="-237" on="0"/>
        <pt x="18" y="-276" on="0"/>
        <pt x="32" y="-311" on="0"/>
        <pt x="41" y="-321" on="1"/>
        <pt x="123" y="-307" on="1"/>
        <pt x="235" y="-288" on="0"/>
        <pt x="381" y="-135" on="0"/>
        <pt x="381" y="0" on="1"/>
        <pt x="381" y="354" on="1"/>
        <pt x="381" y="449" on="0"/>
        <pt x="475" y="573" on="0"/>
        <pt x="541" y="601" on="1"/>
        <pt x="549" y="617" on="0"/>
        <pt x="549" y="679" on="0"/>
      </contour>
    </TTGlyph>
    <TTGlyph name="bracketleft" xMin="200" yMin="-279" xMax="559" yMax="1613">
      <contour>
        <pt x="200" y="1601" on="1"/>
        <pt x="341" y="1550" on="1"/>
        <pt x="341" y="-220" on="1"/>
        <pt x="200" y="-267" on="1"/>
      </contour>
      <contour>
        <pt x="212" y="-279" on="1"/>
        <pt x="200" y="-267" on="1"/>
        <pt x="212" y="-151" on="1"/>
        <pt x="548" y="-159" on="1"/>
        <pt x="552" y="-172" on="0"/>
        <pt x="559" y="-207" on="0"/>
        <pt x="559" y="-222" on="1"/>
        <pt x="559" y="-232" on="0"/>
        <pt x="558" y="-253" on="0"/>
        <pt x="555" y="-265" on="1"/>
      </contour>
      <contour>
        <pt x="555" y="1599" on="1"/>
        <pt x="558" y="1587" on="0"/>
        <pt x="559" y="1566" on="0"/>
        <pt x="559" y="1556" on="1"/>
        <pt x="559" y="1541" on="0"/>
        <pt x="552" y="1507" on="0"/>
        <pt x="548" y="1493" on="1"/>
        <pt x="212" y="1485" on="1"/>
        <pt x="200" y="1601" on="1"/>
        <pt x="212" y="1613" on="1"/>
      </contour>
    </TTGlyph>
    <TTGlyph name="bracketright" xMin="60" yMin="-279" xMax="419" yMax="1613">
      <contour>
        <pt x="419" y="1601" on="1"/>
        <pt x="278" y="1550" on="1"/>
        <pt x="278" y="-220" on="1"/>
        <pt x="419" y="-267" on="1"/>
      </contour>
      <contour>
        <pt x="407" y="-279" on="1"/>
        <pt x="419" y="-267" on="1"/>
        <pt x="407" y="-151" on="1"/>
        <pt x="72" y="-159" on="1"/>
        <pt x="67" y="-172" on="0"/>
        <pt x="60" y="-207" on="0"/>
        <pt x="60" y="-222" on="1"/>
        <pt x="60" y="-232" on="0"/>
        <pt x="61" y="-253" on="0"/>
        <pt x="64" y="-265" on="1"/>
      </contour>
      <contour>
        <pt x="64" y="1599" on="1"/>
        <pt x="61" y="1587" on="0"/>
        <pt x="60" y="1566" on="0"/>
        <pt x="60" y="1556" on="1"/>
        <pt x="60" y="1541" on="0"/>
        <pt x="67" y="1507" on="0"/>
        <pt x="72" y="1493" on="1"/>
        <pt x="407" y="1485" on="1"/>
        <pt x="419" y="1601" on="1"/>
        <pt x="407" y="1613" on="1"/>
      </contour>
    </TTGlyph>
    <TTGlyph name="breve" xMin="101" yMin="1102" xMax="695" yMax="1367">
      <component glyphName="uni0306" x="0" y="0" flags="0x4"/>
    </TTGlyph>
    <TTGlyph name="brokenbar" xMin="175" yMin="-286" xMax="304" yMax="1556">
      <contour>
        <pt x="175" y="494" on="1"/>
        <pt x="188" y="497" on="0"/>
        <pt x="221" y="500" on="0"/>
        <pt x="238" y="500" on="1"/>
        <pt x="257" y="500" on="0"/>
        <pt x="290" y="497" on="0"/>
        <pt x="304" y="494" on="1"/>
        <pt x="304" y="-280" on="1"/>
        <pt x="290" y="-283" on="0"/>
        <pt x="257" y="-286" on="0"/>
        <pt x="238" y="-286" on="1"/>
        <pt x="221" y="-286" on="0"/>
        <pt x="188" y="-283" on="0"/>
        <pt x="175" y="-280" on="1"/>
      </contour>
      <contour>
        <pt x="175" y="1550" on="1"/>
        <pt x="188" y="1553" on="0"/>
        <pt x="221" y="1556" on="0"/>
        <pt x="238" y="1556" on="1"/>
        <pt x="257" y="1556" on="0"/>
        <pt x="290" y="1553" on="0"/>
        <pt x="304" y="1550" on="1"/>
        <pt x="304" y="776" on="1"/>
        <pt x="290" y="773" on="0"/>
        <pt x="257" y="770" on="0"/>
        <pt x="238" y="770" on="1"/>
        <pt x="221" y="770" on="0"/>
        <pt x="188" y="773" on="0"/>
        <pt x="175" y="776" on="1"/>
      </contour>
    </TTGlyph>
    <TTGlyph name="bullet" xMin="241" yMin="354" xMax="632" yMax="732">
      <component glyphName="period" x="16" y="379" scalex="1.703" scaley="1.80286" flags="0x4"/>
    </TTGlyph>
    <TTGlyph name="c" xMin="92" yMin="-24" xMax="981" yMax="1108">
      <contour>
        <pt x="845" y="704" on="1"/>
        <pt x="844" y="772" on="0"/>
        <pt x="794" y="905" on="0"/>
        <pt x="673" y="992" on="0"/>
        <pt x="566" y="992" on="1"/>
        <pt x="410" y="992" on="0"/>
        <pt x="240" y="764" on="0"/>
        <pt x="240" y="540" on="1"/>
        <pt x="240" y="401" on="0"/>
        <pt x="319" y="203" on="0"/>
        <pt x="465" y="98" on="0"/>
        <pt x="565" y="98" on="1"/>
        <pt x="645" y="98" on="0"/>
        <pt x="808" y="161" on="0"/>
        <pt x="894" y="226" on="1"/>
        <pt x="911" y="215" on="0"/>
        <pt x="941" y="184" on="0"/>
        <pt x="964" y="150" on="0"/>
        <pt x="969" y="134" on="1"/>
        <pt x="897" y="68" on="0"/>
        <pt x="679" y="-24" on="0"/>
        <pt x="546" y="-24" on="1"/>
        <pt x="423" y="-24" on="0"/>
        <pt x="250" y="70" on="0"/>
        <pt x="143" y="230" on="0"/>
        <pt x="92" y="432" on="0"/>
        <pt x="92" y="540" on="1"/>
        <pt x="92" y="739" on="0"/>
        <pt x="224" y="990" on="0"/>
        <pt x="441" y="1108" on="0"/>
        <pt x="568" y="1108" on="1"/>
        <pt x="710" y="1108" on="0"/>
        <pt x="893" y="1004" on="0"/>
        <pt x="981" y="852" on="0"/>
        <pt x="981" y="778" on="1"/>
        <pt x="981" y="748" on="0"/>
        <pt x="956" y="694" on="0"/>
        <pt x="907" y="694" on="1"/>
        <pt x="889" y="694" on="0"/>
        <pt x="862" y="699" on="0"/>
      </contour>
    </TTGlyph>
    <TTGlyph name="cacute" xMin="92" yMin="-24" xMax="981" yMax="1540">
      <component glyphName="c" x="0" y="0" flags="0x204"/>
      <component glyphName="acutecomb" x="170" y="104" flags="0x4"/>
    </TTGlyph>
    <TTGlyph name="caron" xMin="134" yMin="1094" xMax="664" yMax="1421">
      <component glyphName="uni030C" x="0" y="0" flags="0x4"/>
    </TTGlyph>
    <TTGlyph name="ccaron" xMin="92" yMin="-24" xMax="981" yMax="1525">
      <component glyphName="c" x="0" y="0" flags="0x204"/>
      <component glyphName="uni030C" x="170" y="104" flags="0x4"/>
    </TTGlyph>
    <TTGlyph name="ccedilla" xMin="92" yMin="-436" xMax="981" yMax="1108">
      <component glyphName="c" x="0" y="0" flags="0x204"/>
      <component glyphName="uni0327" x="160" y="0" flags="0x4"/>
    </TTGlyph>
    <TTGlyph name="ccircumflex" xMin="92" yMin="-24" xMax="981" yMax="1517">
      <component glyphName="c" x="0" y="0" flags="0x204"/>
      <component glyphName="uni0302" x="170" y="104" flags="0x4"/>
    </TTGlyph>
    <TTGlyph name="cdotaccent" xMin="92" yMin="-24" xMax="981" yMax="1443">
      <component glyphName="c" x="0" y="0" flags="0x204"/>
      <component glyphName="uni0307" x="170" y="104" flags="0x4"/>
    </TTGlyph>
    <TTGlyph name="cedilla" xMin="243" yMin="-436" xMax="605" yMax="0">
      <component glyphName="uni0327" x="0" y="0" flags="0x4"/>
    </TTGlyph>
    <TTGlyph name="cent" xMin="107" yMin="-64" xMax="850" yMax="1366">
      <contour>
        <pt x="718" y="804" on="1"/>
        <pt x="722" y="860" on="0"/>
        <pt x="686" y="977" on="0"/>
        <pt x="589" y="1056" on="0"/>
        <pt x="502" y="1056" on="1"/>
        <pt x="391" y="1056" on="0"/>
        <pt x="254" y="848" on="0"/>
        <pt x="254" y="646" on="1"/>
        <pt x="254" y="452" on="0"/>
        <pt x="389" y="258" on="0"/>
        <pt x="511" y="258" on="1"/>
        <pt x="587" y="258" on="0"/>
        <pt x="715" y="327" on="0"/>
        <pt x="766" y="375" on="1"/>
        <pt x="788" y="365" on="0"/>
        <pt x="833" y="318" on="0"/>
        <pt x="842" y="294" on="1"/>
        <pt x="778" y="221" on="0"/>
        <pt x="599" y="138" on="0"/>
        <pt x="494" y="138" on="1"/>
        <pt x="387" y="138" on="0"/>
        <pt x="239" y="226" on="0"/>
        <pt x="148" y="373" on="0"/>
        <pt x="107" y="553" on="0"/>
        <pt x="107" y="646" on="1"/>
        <pt x="107" y="826" on="0"/>
        <pt x="221" y="1057" on="0"/>
        <pt x="403" y="1168" on="0"/>
        <pt x="506" y="1168" on="1"/>
        <pt x="602" y="1168" on="0"/>
        <pt x="734" y="1109" on="0"/>
        <pt x="814" y="1019" on="0"/>
        <pt x="850" y="923" on="0"/>
        <pt x="850" y="886" on="1"/>
        <pt x="850" y="851" on="0"/>
        <pt x="825" y="798" on="0"/>
        <pt x="777" y="798" on="1"/>
        <pt x="762" y="798" on="0"/>
        <pt x="734" y="801" on="0"/>
      </contour>
      <contour>
        <pt x="437" y="200" on="1"/>
        <pt x="447" y="202" on="0"/>
        <pt x="487" y="205" on="0"/>
        <pt x="500" y="205" on="1"/>
        <pt x="517" y="205" on="0"/>
        <pt x="552" y="202" on="0"/>
        <pt x="564" y="200" on="1"/>
        <pt x="564" y="-60" on="1"/>
        <pt x="552" y="-61" on="0"/>
        <pt x="517" y="-64" on="0"/>
        <pt x="500" y="-64" on="1"/>
        <pt x="487" y="-64" on="0"/>
        <pt x="447" y="-61" on="0"/>
        <pt x="437" y="-60" on="1"/>
      </contour>
      <contour>
        <pt x="443" y="1360" on="1"/>
        <pt x="453" y="1363" on="0"/>
        <pt x="493" y="1366" on="0"/>
        <pt x="506" y="1366" on="1"/>
        <pt x="523" y="1366" on="0"/>
        <pt x="558" y="1363" on="0"/>
        <pt x="570" y="1360" on="1"/>
        <pt x="570" y="1107" on="1"/>
        <pt x="558" y="1105" on="0"/>
        <pt x="523" y="1103" on="0"/>
        <pt x="506" y="1103" on="1"/>
        <pt x="493" y="1103" on="0"/>
        <pt x="453" y="1105" on="0"/>
        <pt x="443" y="1107" on="1"/>
      </contour>
    </TTGlyph>
    <TTGlyph name="circumflex" xMin="133" yMin="1086" xMax="663" yMax="1413">
      <component glyphName="uni0302" x="0" y="0" flags="0x4"/>
    </TTGlyph>
    <TTGlyph name="colon" xMin="136" yMin="-14" xMax="366" yMax="881">
      <component glyphName="period" x="4" y="0" flags="0x4"/>
      <component glyphName="period" x="4" y="685" flags="0x4"/>
    </TTGlyph>
    <TTGlyph name="comma" xMin="81" yMin="-297" xMax="376" yMax="196">
      <contour>
        <pt x="357" y="177" on="1"/>
        <pt x="365" y="159" on="0"/>
        <pt x="376" y="93" on="0"/>
        <pt x="376" y="61" on="1"/>
        <pt x="376" y="-15" on="0"/>
        <pt x="320" y="-155" on="0"/>
        <pt x="208" y="-265" on="0"/>
        <pt x="122" y="-297" on="1"/>
        <pt x="103" y="-287" on="0"/>
        <pt x="81" y="-241" on="0"/>
        <pt x="83" y="-220" on="1"/>
        <pt x="150" y="-187" on="0"/>
        <pt x="234" y="-81" on="0"/>
        <pt x="234" y="-18" on="1"/>
        <pt x="218" y="-15" on="0"/>
        <pt x="170" y="-1" on="0"/>
        <pt x="158" y="8" on="1"/>
        <pt x="152" y="18" on="0"/>
        <pt x="142" y="67" on="0"/>
        <pt x="142" y="89" on="1"/>
        <pt x="142" y="112" on="0"/>
        <pt x="151" y="166" on="0"/>
        <pt x="158" y="177" on="1"/>
        <pt x="170" y="183" on="0"/>
        <pt x="234" y="196" on="0"/>
        <pt x="259" y="196" on="1"/>
        <pt x="283" y="196" on="0"/>
        <pt x="345" y="186" on="0"/>
      </contour>
    </TTGlyph>
    <TTGlyph name="copyright" xMin="92" yMin="-36" xMax="1530" yMax="1402">
      <contour>
        <pt x="92" y="682" on="1"/>
        <pt x="92" y="834" on="0"/>
        <pt x="202" y="1096" on="0"/>
        <pt x="397" y="1292" on="0"/>
        <pt x="658" y="1402" on="0"/>
        <pt x="810" y="1402" on="1"/>
        <pt x="963" y="1402" on="0"/>
        <pt x="1224" y="1292" on="0"/>
        <pt x="1421" y="1096" on="0"/>
        <pt x="1530" y="834" on="0"/>
        <pt x="1530" y="682" on="1"/>
        <pt x="1530" y="530" on="0"/>
        <pt x="1421" y="269" on="0"/>
        <pt x="1224" y="73" on="0"/>
        <pt x="963" y="-36" on="0"/>
        <pt x="810" y="-36" on="1"/>
        <pt x="658" y="-36" on="0"/>
        <pt x="397" y="73" on="0"/>
        <pt x="202" y="269" on="0"/>
        <pt x="92" y="530" on="0"/>
      </contour>
      <contour>
        <pt x="225" y="682" on="1"/>
        <pt x="225" y="556" on="0"/>
        <pt x="312" y="336" on="0"/>
        <pt x="470" y="168" on="0"/>
        <pt x="684" y="73" on="0"/>
        <pt x="810" y="73" on="1"/>
        <pt x="937" y="73" on="0"/>
        <pt x="1151" y="168" on="0"/>
        <pt x="1310" y="336" on="0"/>
        <pt x="1398" y="556" on="0"/>
        <pt x="1398" y="682" on="1"/>
        <pt x="1398" y="808" on="0"/>
        <pt x="1310" y="1029" on="0"/>
        <pt x="1151" y="1198" on="0"/>
        <pt x="937" y="1293" on="0"/>
        <pt x="810" y="1293" on="1"/>
        <pt x="684" y="1293" on="0"/>
        <pt x="470" y="1198" on="0"/>
        <pt x="312" y="1029" on="0"/>
        <pt x="225" y="808" on="0"/>
      </contour>
      <contour>
        <pt x="990" y="781" on="1"/>
        <pt x="994" y="827" on="0"/>
        <pt x="962" y="919" on="0"/>
        <pt x="881" y="981" on="0"/>
        <pt x="812" y="981" on="1"/>
        <pt x="717" y="981" on="0"/>
        <pt x="601" y="828" on="0"/>
        <pt x="601" y="682" on="1"/>
        <pt x="601" y="540" on="0"/>
        <pt x="719" y="386" on="0"/>
        <pt x="820" y="386" on="1"/>
        <pt x="879" y="386" on="0"/>
        <pt x="997" y="440" on="0"/>
        <pt x="1041" y="479" on="1"/>
        <pt x="1062" y="470" on="0"/>
        <pt x="1097" y="427" on="0"/>
        <pt x="1106" y="406" on="1"/>
        <pt x="1054" y="352" on="0"/>
        <pt x="891" y="280" on="0"/>
        <pt x="804" y="280" on="1"/>
        <pt x="702" y="280" on="0"/>
        <pt x="548" y="379" on="0"/>
        <pt x="462" y="560" on="0"/>
        <pt x="462" y="682" on="1"/>
        <pt x="462" y="819" on="0"/>
        <pt x="566" y="999" on="0"/>
        <pt x="728" y="1088" on="0"/>
        <pt x="816" y="1088" on="1"/>
        <pt x="923" y="1088" on="0"/>
        <pt x="1054" y="1005" on="0"/>
        <pt x="1114" y="892" on="0"/>
        <pt x="1114" y="846" on="1"/>
        <pt x="1114" y="818" on="0"/>
        <pt x="1086" y="771" on="0"/>
        <pt x="1047" y="771" on="1"/>
        <pt x="1029" y="771" on="0"/>
        <pt x="1002" y="776" on="0"/>
      </contour>
    </TTGlyph>
    <TTGlyph name="currency" xMin="77" yMin="185" xMax="1053" yMax="1159">
      <contour>
        <pt x="144" y="670" on="1"/>
        <pt x="144" y="789" on="0"/>
        <pt x="253" y="980" on="0"/>
        <pt x="443" y="1092" on="0"/>
        <pt x="564" y="1092" on="1"/>
        <pt x="685" y="1092" on="0"/>
        <pt x="876" y="980" on="0"/>
        <pt x="985" y="789" on="0"/>
        <pt x="985" y="670" on="1"/>
        <pt x="985" y="552" on="0"/>
        <pt x="876" y="362" on="0"/>
        <pt x="685" y="250" on="0"/>
        <pt x="564" y="250" on="1"/>
        <pt x="443" y="250" on="0"/>
        <pt x="253" y="362" on="0"/>
        <pt x="144" y="552" on="0"/>
      </contour>
      <contour>
        <pt x="288" y="670" on="1"/>
        <pt x="288" y="587" on="0"/>
        <pt x="356" y="445" on="0"/>
        <pt x="480" y="358" on="0"/>
        <pt x="564" y="358" on="1"/>
        <pt x="648" y="358" on="0"/>
        <pt x="773" y="445" on="0"/>
        <pt x="842" y="587" on="0"/>
        <pt x="842" y="670" on="1"/>
        <pt x="842" y="753" on="0"/>
        <pt x="773" y="896" on="0"/>
        <pt x="648" y="984" on="0"/>
        <pt x="564" y="984" on="1"/>
        <pt x="480" y="984" on="0"/>
        <pt x="356" y="896" on="0"/>
        <pt x="288" y="753" on="0"/>
      </contour>
      <contour>
        <pt x="77" y="1074" on="1"/>
        <pt x="90" y="1098" on="0"/>
        <pt x="134" y="1142" on="0"/>
        <pt x="159" y="1157" on="1"/>
        <pt x="356" y="972" on="1"/>
        <pt x="340" y="950" on="0"/>
        <pt x="286" y="895" on="0"/>
        <pt x="262" y="877" on="1"/>
      </contour>
      <contour>
        <pt x="159" y="185" on="1"/>
        <pt x="136" y="198" on="0"/>
        <pt x="91" y="241" on="0"/>
        <pt x="77" y="268" on="1"/>
        <pt x="270" y="473" on="1"/>
        <pt x="292" y="455" on="0"/>
        <pt x="347" y="402" on="0"/>
        <pt x="365" y="377" on="1"/>
      </contour>
      <contour>
        <pt x="1053" y="268" on="1"/>
        <pt x="1024" y="217" on="0"/>
        <pt x="970" y="185" on="1"/>
        <pt x="773" y="370" on="1"/>
        <pt x="789" y="393" on="0"/>
        <pt x="844" y="447" on="0"/>
        <pt x="867" y="465" on="1"/>
      </contour>
      <contour>
        <pt x="968" y="1159" on="1"/>
        <pt x="991" y="1146" on="0"/>
        <pt x="1037" y="1102" on="0"/>
        <pt x="1051" y="1076" on="1"/>
        <pt x="859" y="871" on="1"/>
        <pt x="835" y="889" on="0"/>
        <pt x="782" y="942" on="0"/>
        <pt x="763" y="966" on="1"/>
      </contour>
    </TTGlyph>
    <TTGlyph name="d" xMin="185" yMin="-6" xMax="1038" yMax="1090">
      <contour>
        <pt x="1038" y="540" on="1"/>
        <pt x="1038" y="275" on="0"/>
        <pt x="808" y="-6" on="0"/>
        <pt x="543" y="-6" on="1"/>
        <pt x="472" y="-6" on="0"/>
        <pt x="372" y="-5" on="0"/>
        <pt x="270" y="-2" on="0"/>
        <pt x="195" y="0" on="1"/>
        <pt x="185" y="10" on="1"/>
        <pt x="185" y="1074" on="1"/>
        <pt x="195" y="1084" on="1"/>
        <pt x="271" y="1086" on="0"/>
        <pt x="373" y="1088" on="0"/>
        <pt x="472" y="1090" on="0"/>
        <pt x="543" y="1090" on="1"/>
        <pt x="808" y="1090" on="0"/>
        <pt x="1038" y="801" on="0"/>
      </contour>
      <contour>
        <pt x="891" y="540" on="1"/>
        <pt x="891" y="616" on="0"/>
        <pt x="865" y="769" on="0"/>
        <pt x="793" y="897" on="0"/>
        <pt x="654" y="974" on="0"/>
        <pt x="541" y="974" on="1"/>
        <pt x="479" y="974" on="0"/>
        <pt x="378" y="976" on="0"/>
        <pt x="324" y="976" on="1"/>
        <pt x="324" y="106" on="1"/>
        <pt x="378" y="106" on="0"/>
        <pt x="479" y="108" on="0"/>
        <pt x="541" y="108" on="1"/>
        <pt x="654" y="108" on="0"/>
        <pt x="793" y="185" on="0"/>
        <pt x="865" y="312" on="0"/>
        <pt x="891" y="465" on="0"/>
      </contour>
    </TTGlyph>
    <TTGlyph name="dagger" xMin="40" yMin="-226" xMax="664" yMax="1374">
      <contour>
        <pt x="277" y="551" on="1"/>
        <pt x="276" y="604" on="0"/>
        <pt x="282" y="736" on="0"/>
        <pt x="291" y="867" on="0"/>
        <pt x="294" y="917" on="1"/>
        <pt x="293" y="968" on="0"/>
        <pt x="281" y="1104" on="0"/>
        <pt x="273" y="1240" on="0"/>
        <pt x="277" y="1291" on="1"/>
        <pt x="283" y="1366" on="1"/>
        <pt x="299" y="1370" on="0"/>
        <pt x="333" y="1374" on="0"/>
        <pt x="349" y="1374" on="1"/>
        <pt x="388" y="1374" on="0"/>
        <pt x="419" y="1366" on="1"/>
        <pt x="426" y="1289" on="1"/>
        <pt x="429" y="1240" on="0"/>
        <pt x="420" y="1104" on="0"/>
        <pt x="409" y="968" on="0"/>
        <pt x="408" y="917" on="1"/>
        <pt x="412" y="866" on="0"/>
        <pt x="421" y="733" on="0"/>
        <pt x="427" y="600" on="0"/>
        <pt x="426" y="548" on="1"/>
        <pt x="406" y="-220" on="1"/>
        <pt x="398" y="-223" on="0"/>
        <pt x="366" y="-226" on="0"/>
        <pt x="351" y="-226" on="1"/>
        <pt x="336" y="-226" on="0"/>
        <pt x="306" y="-223" on="0"/>
        <pt x="296" y="-220" on="1"/>
      </contour>
      <contour>
        <pt x="599" y="847" on="1"/>
        <pt x="577" y="846" on="0"/>
        <pt x="479" y="854" on="0"/>
        <pt x="378" y="863" on="0"/>
        <pt x="353" y="863" on="1"/>
        <pt x="329" y="863" on="0"/>
        <pt x="232" y="854" on="0"/>
        <pt x="132" y="846" on="0"/>
        <pt x="105" y="847" on="1"/>
        <pt x="46" y="850" on="1"/>
        <pt x="43" y="863" on="0"/>
        <pt x="40" y="893" on="0"/>
        <pt x="40" y="913" on="1"/>
        <pt x="40" y="934" on="0"/>
        <pt x="43" y="965" on="0"/>
        <pt x="46" y="980" on="1"/>
        <pt x="105" y="982" on="1"/>
        <pt x="129" y="983" on="0"/>
        <pt x="228" y="975" on="0"/>
        <pt x="327" y="966" on="0"/>
        <pt x="353" y="966" on="1"/>
        <pt x="377" y="966" on="0"/>
        <pt x="476" y="975" on="0"/>
        <pt x="575" y="983" on="0"/>
        <pt x="599" y="982" on="1"/>
        <pt x="658" y="980" on="1"/>
        <pt x="661" y="965" on="0"/>
        <pt x="664" y="934" on="0"/>
        <pt x="664" y="913" on="1"/>
        <pt x="664" y="893" on="0"/>
        <pt x="661" y="863" on="0"/>
        <pt x="658" y="850" on="1"/>
      </contour>
    </TTGlyph>
    <TTGlyph name="daggerdbl" xMin="40" yMin="-226" xMax="664" yMax="1374">
      <contour>
        <pt x="276" y="560" on="1"/>
        <pt x="275" y="614" on="0"/>
        <pt x="281" y="746" on="0"/>
        <pt x="291" y="877" on="0"/>
        <pt x="293" y="927" on="1"/>
        <pt x="293" y="978" on="0"/>
        <pt x="281" y="1109" on="0"/>
        <pt x="272" y="1240" on="0"/>
        <pt x="276" y="1291" on="1"/>
        <pt x="282" y="1366" on="1"/>
        <pt x="298" y="1370" on="0"/>
        <pt x="332" y="1374" on="0"/>
        <pt x="349" y="1374" on="1"/>
        <pt x="388" y="1374" on="0"/>
        <pt x="419" y="1366" on="1"/>
        <pt x="425" y="1289" on="1"/>
        <pt x="428" y="1240" on="0"/>
        <pt x="420" y="1109" on="0"/>
        <pt x="409" y="978" on="0"/>
        <pt x="408" y="927" on="1"/>
        <pt x="412" y="876" on="0"/>
        <pt x="421" y="743" on="0"/>
        <pt x="426" y="609" on="0"/>
        <pt x="425" y="558" on="1"/>
        <pt x="406" y="-220" on="1"/>
        <pt x="397" y="-223" on="0"/>
        <pt x="365" y="-226" on="0"/>
        <pt x="351" y="-226" on="1"/>
        <pt x="336" y="-226" on="0"/>
        <pt x="306" y="-223" on="0"/>
        <pt x="296" y="-220" on="1"/>
      </contour>
      <contour>
        <pt x="598" y="857" on="1"/>
        <pt x="566" y="856" on="0"/>
        <pt x="470" y="865" on="0"/>
        <pt x="378" y="875" on="0"/>
        <pt x="353" y="875" on="1"/>
        <pt x="329" y="875" on="0"/>
        <pt x="240" y="865" on="0"/>
        <pt x="142" y="856" on="0"/>
        <pt x="105" y="857" on="1"/>
        <pt x="45" y="860" on="1"/>
        <pt x="43" y="873" on="0"/>
        <pt x="40" y="903" on="0"/>
        <pt x="40" y="923" on="1"/>
        <pt x="40" y="944" on="0"/>
        <pt x="43" y="975" on="0"/>
        <pt x="45" y="990" on="1"/>
        <pt x="105" y="992" on="1"/>
        <pt x="139" y="993" on="0"/>
        <pt x="236" y="984" on="0"/>
        <pt x="327" y="974" on="0"/>
        <pt x="353" y="974" on="1"/>
        <pt x="376" y="974" on="0"/>
        <pt x="467" y="984" on="0"/>
        <pt x="564" y="993" on="0"/>
        <pt x="598" y="992" on="1"/>
        <pt x="658" y="990" on="1"/>
        <pt x="661" y="975" on="0"/>
        <pt x="664" y="944" on="0"/>
        <pt x="664" y="923" on="1"/>
        <pt x="664" y="903" on="0"/>
        <pt x="661" y="873" on="0"/>
        <pt x="658" y="860" on="1"/>
      </contour>
      <contour>
        <pt x="598" y="308" on="1"/>
        <pt x="566" y="307" on="0"/>
        <pt x="470" y="317" on="0"/>
        <pt x="378" y="328" on="0"/>
        <pt x="353" y="328" on="1"/>
        <pt x="329" y="328" on="0"/>
        <pt x="240" y="317" on="0"/>
        <pt x="142" y="307" on="0"/>
        <pt x="105" y="308" on="1"/>
        <pt x="45" y="310" on="1"/>
        <pt x="43" y="323" on="0"/>
        <pt x="40" y="354" on="0"/>
        <pt x="40" y="373" on="1"/>
        <pt x="40" y="394" on="0"/>
        <pt x="43" y="425" on="0"/>
        <pt x="45" y="440" on="1"/>
        <pt x="105" y="442" on="1"/>
        <pt x="139" y="443" on="0"/>
        <pt x="236" y="433" on="0"/>
        <pt x="327" y="423" on="0"/>
        <pt x="353" y="423" on="1"/>
        <pt x="376" y="423" on="0"/>
        <pt x="467" y="433" on="0"/>
        <pt x="564" y="443" on="0"/>
        <pt x="598" y="442" on="1"/>
        <pt x="658" y="440" on="1"/>
        <pt x="661" y="425" on="0"/>
        <pt x="664" y="394" on="0"/>
        <pt x="664" y="373" on="1"/>
        <pt x="664" y="354" on="0"/>
        <pt x="661" y="323" on="0"/>
        <pt x="658" y="310" on="1"/>
      </contour>
    </TTGlyph>
    <TTGlyph name="dcaron" xMin="185" yMin="-6" xMax="1038" yMax="1525">
      <component glyphName="d" x="0" y="0" flags="0x204"/>
      <component glyphName="uni030C" x="139" y="104" flags="0x4"/>
    </TTGlyph>
    <TTGlyph name="dcroat" xMin="63" yMin="-6" xMax="1048" yMax="1090">
      <component glyphName="eth" x="0" y="0" flags="0x204"/>
    </TTGlyph>
    <TTGlyph name="degree" xMin="40" yMin="789" xMax="583" yMax="1340">
      <contour>
        <pt x="40" y="1065" on="1"/>
        <pt x="40" y="1142" on="0"/>
        <pt x="112" y="1267" on="0"/>
        <pt x="235" y="1340" on="0"/>
        <pt x="311" y="1340" on="1"/>
        <pt x="388" y="1340" on="0"/>
        <pt x="511" y="1267" on="0"/>
        <pt x="583" y="1142" on="0"/>
        <pt x="583" y="1065" on="1"/>
        <pt x="583" y="987" on="0"/>
        <pt x="511" y="862" on="0"/>
        <pt x="388" y="789" on="0"/>
        <pt x="311" y="789" on="1"/>
        <pt x="235" y="789" on="0"/>
        <pt x="112" y="862" on="0"/>
        <pt x="40" y="987" on="0"/>
      </contour>
      <contour>
        <pt x="159" y="1065" on="1"/>
        <pt x="159" y="992" on="0"/>
        <pt x="241" y="896" on="0"/>
        <pt x="311" y="896" on="1"/>
        <pt x="381" y="896" on="0"/>
        <pt x="462" y="992" on="0"/>
        <pt x="462" y="1065" on="1"/>
        <pt x="462" y="1135" on="0"/>
        <pt x="381" y="1233" on="0"/>
        <pt x="311" y="1233" on="1"/>
        <pt x="241" y="1233" on="0"/>
        <pt x="159" y="1135" on="0"/>
      </contour>
    </TTGlyph>
    <TTGlyph name="dieresis" xMin="133" yMin="1126" xMax="663" yMax="1293">
      <component glyphName="uni0308" x="0" y="0" flags="0x4"/>
    </TTGlyph>
    <TTGlyph name="divide" xMin="112" yMin="130" xMax="948" yMax="1025">
      <contour>
        <pt x="431" y="934" on="1"/>
        <pt x="431" y="977" on="0"/>
        <pt x="445" y="1005" on="1"/>
        <pt x="458" y="1014" on="0"/>
        <pt x="508" y="1025" on="0"/>
        <pt x="530" y="1025" on="1"/>
        <pt x="549" y="1025" on="0"/>
        <pt x="603" y="1014" on="0"/>
        <pt x="615" y="1005" on="1"/>
        <pt x="621" y="993" on="0"/>
        <pt x="629" y="952" on="0"/>
        <pt x="629" y="934" on="1"/>
        <pt x="629" y="916" on="0"/>
        <pt x="621" y="874" on="0"/>
        <pt x="615" y="862" on="1"/>
        <pt x="605" y="853" on="0"/>
        <pt x="549" y="842" on="0"/>
        <pt x="530" y="842" on="1"/>
        <pt x="508" y="842" on="0"/>
        <pt x="458" y="853" on="0"/>
        <pt x="445" y="862" on="1"/>
        <pt x="431" y="890" on="0"/>
      </contour>
      <contour>
        <pt x="431" y="222" on="1"/>
        <pt x="431" y="265" on="0"/>
        <pt x="445" y="293" on="1"/>
        <pt x="458" y="302" on="0"/>
        <pt x="508" y="313" on="0"/>
        <pt x="530" y="313" on="1"/>
        <pt x="549" y="313" on="0"/>
        <pt x="603" y="302" on="0"/>
        <pt x="615" y="293" on="1"/>
        <pt x="621" y="281" on="0"/>
        <pt x="629" y="240" on="0"/>
        <pt x="629" y="222" on="1"/>
        <pt x="629" y="204" on="0"/>
        <pt x="621" y="162" on="0"/>
        <pt x="615" y="150" on="1"/>
        <pt x="605" y="141" on="0"/>
        <pt x="549" y="130" on="0"/>
        <pt x="530" y="130" on="1"/>
        <pt x="508" y="130" on="0"/>
        <pt x="458" y="141" on="0"/>
        <pt x="445" y="150" on="1"/>
        <pt x="431" y="178" on="0"/>
      </contour>
      <contour>
        <pt x="118" y="517" on="1"/>
        <pt x="115" y="530" on="0"/>
        <pt x="112" y="560" on="0"/>
        <pt x="112" y="580" on="1"/>
        <pt x="112" y="601" on="0"/>
        <pt x="115" y="632" on="0"/>
        <pt x="118" y="647" on="1"/>
        <pt x="942" y="647" on="1"/>
        <pt x="945" y="632" on="0"/>
        <pt x="948" y="601" on="0"/>
        <pt x="948" y="580" on="1"/>
        <pt x="948" y="560" on="0"/>
        <pt x="945" y="530" on="0"/>
        <pt x="942" y="517" on="1"/>
      </contour>
    </TTGlyph>
    <TTGlyph name="dollar" xMin="81" yMin="-80" xMax="889" yMax="1380">
      <contour>
        <pt x="404" y="143" on="1"/>
        <pt x="415" y="146" on="0"/>
        <pt x="454" y="149" on="0"/>
        <pt x="467" y="149" on="1"/>
        <pt x="484" y="149" on="0"/>
        <pt x="519" y="146" on="0"/>
        <pt x="531" y="143" on="1"/>
        <pt x="531" y="-76" on="1"/>
        <pt x="519" y="-77" on="0"/>
        <pt x="484" y="-80" on="0"/>
        <pt x="467" y="-80" on="1"/>
        <pt x="454" y="-80" on="0"/>
        <pt x="415" y="-77" on="0"/>
        <pt x="404" y="-76" on="1"/>
      </contour>
      <contour>
        <pt x="412" y="1374" on="1"/>
        <pt x="423" y="1377" on="0"/>
        <pt x="462" y="1380" on="0"/>
        <pt x="475" y="1380" on="1"/>
        <pt x="492" y="1380" on="0"/>
        <pt x="527" y="1377" on="0"/>
        <pt x="539" y="1374" on="1"/>
        <pt x="539" y="1153" on="1"/>
        <pt x="527" y="1151" on="0"/>
        <pt x="492" y="1149" on="0"/>
        <pt x="475" y="1149" on="1"/>
        <pt x="462" y="1149" on="0"/>
        <pt x="423" y="1151" on="0"/>
        <pt x="412" y="1153" on="1"/>
      </contour>
      <contour>
        <pt x="81" y="202" on="1"/>
        <pt x="82" y="223" on="0"/>
        <pt x="100" y="266" on="0"/>
        <pt x="127" y="303" on="0"/>
        <pt x="142" y="314" on="1"/>
        <pt x="209" y="274" on="0"/>
        <pt x="392" y="200" on="0"/>
        <pt x="508" y="200" on="1"/>
        <pt x="605" y="200" on="0"/>
        <pt x="748" y="284" on="0"/>
        <pt x="748" y="368" on="1"/>
        <pt x="748" y="437" on="0"/>
        <pt x="643" y="541" on="0"/>
        <pt x="564" y="569" on="1"/>
        <pt x="358" y="643" on="1"/>
        <pt x="241" y="687" on="0"/>
        <pt x="127" y="818" on="0"/>
        <pt x="127" y="915" on="1"/>
        <pt x="127" y="996" on="0"/>
        <pt x="213" y="1131" on="0"/>
        <pt x="377" y="1212" on="0"/>
        <pt x="494" y="1212" on="1"/>
        <pt x="595" y="1212" on="0"/>
        <pt x="781" y="1159" on="0"/>
        <pt x="849" y="1126" on="1"/>
        <pt x="849" y="1095" on="0"/>
        <pt x="819" y="1033" on="0"/>
        <pt x="795" y="1014" on="1"/>
        <pt x="725" y="1048" on="0"/>
        <pt x="561" y="1090" on="0"/>
        <pt x="487" y="1090" on="1"/>
        <pt x="388" y="1090" on="0"/>
        <pt x="264" y="1003" on="0"/>
        <pt x="264" y="924" on="1"/>
        <pt x="264" y="862" on="0"/>
        <pt x="348" y="796" on="0"/>
        <pt x="431" y="767" on="1"/>
        <pt x="631" y="695" on="1"/>
        <pt x="737" y="658" on="0"/>
        <pt x="889" y="503" on="0"/>
        <pt x="889" y="394" on="1"/>
        <pt x="889" y="302" on="0"/>
        <pt x="802" y="161" on="0"/>
        <pt x="633" y="80" on="0"/>
        <pt x="508" y="80" on="1"/>
        <pt x="415" y="80" on="0"/>
        <pt x="253" y="117" on="0"/>
        <pt x="125" y="173" on="0"/>
      </contour>
    </TTGlyph>
    <TTGlyph name="dotaccent" xMin="299" yMin="1156" xMax="497" yMax="1339">
      <component glyphName="uni0307" x="0" y="0" flags="0x4"/>
    </TTGlyph>
    <TTGlyph name="dotlessi" xMin="89" yMin="-6" xMax="330" yMax="986">
      <contour>
        <pt x="330" y="0" on="1"/>
        <pt x="316" y="-3" on="0"/>
        <pt x="282" y="-6" on="0"/>
        <pt x="263" y="-6" on="1"/>
        <pt x="242" y="-6" on="0"/>
        <pt x="208" y="-3" on="0"/>
        <pt x="194" y="0" on="1"/>
        <pt x="194" y="780" on="1"/>
        <pt x="194" y="835" on="0"/>
        <pt x="159" y="876" on="0"/>
        <pt x="113" y="876" on="1"/>
        <pt x="95" y="876" on="1"/>
        <pt x="89" y="902" on="0"/>
        <pt x="89" y="927" on="1"/>
        <pt x="89" y="940" on="0"/>
        <pt x="92" y="963" on="0"/>
        <pt x="95" y="978" on="1"/>
        <pt x="128" y="982" on="0"/>
        <pt x="175" y="986" on="0"/>
        <pt x="190" y="986" on="1"/>
        <pt x="205" y="986" on="1"/>
        <pt x="264" y="986" on="0"/>
        <pt x="330" y="913" on="0"/>
        <pt x="330" y="849" on="1"/>
      </contour>
    </TTGlyph>
    <TTGlyph name="e" xMin="185" yMin="0" xMax="905" yMax="1084">
      <contour>
        <pt x="185" y="1074" on="1"/>
        <pt x="195" y="1084" on="1"/>
        <pt x="320" y="1084" on="1"/>
        <pt x="320" y="970" on="1"/>
        <pt x="320" y="952" on="0"/>
        <pt x="322" y="897" on="0"/>
        <pt x="322" y="866" on="1"/>
        <pt x="322" y="185" on="1"/>
        <pt x="322" y="167" on="0"/>
        <pt x="320" y="124" on="0"/>
        <pt x="320" y="116" on="1"/>
        <pt x="320" y="0" on="1"/>
        <pt x="265" y="0" on="1"/>
        <pt x="228" y="0" on="0"/>
        <pt x="185" y="47" on="0"/>
        <pt x="185" y="89" on="1"/>
      </contour>
      <contour>
        <pt x="781" y="611" on="1"/>
        <pt x="786" y="596" on="0"/>
        <pt x="787" y="562" on="0"/>
        <pt x="787" y="552" on="1"/>
        <pt x="787" y="540" on="0"/>
        <pt x="786" y="508" on="0"/>
        <pt x="781" y="493" on="1"/>
        <pt x="428" y="493" on="1"/>
        <pt x="408" y="493" on="0"/>
        <pt x="355" y="493" on="0"/>
        <pt x="299" y="494" on="0"/>
        <pt x="273" y="495" on="1"/>
        <pt x="273" y="609" on="1"/>
        <pt x="299" y="609" on="0"/>
        <pt x="355" y="610" on="0"/>
        <pt x="408" y="611" on="0"/>
        <pt x="428" y="611" on="1"/>
      </contour>
      <contour>
        <pt x="875" y="1084" on="1"/>
        <pt x="878" y="1069" on="0"/>
        <pt x="879" y="1041" on="0"/>
        <pt x="879" y="1029" on="1"/>
        <pt x="879" y="1017" on="0"/>
        <pt x="875" y="982" on="0"/>
        <pt x="869" y="966" on="1"/>
        <pt x="428" y="966" on="1"/>
        <pt x="408" y="966" on="0"/>
        <pt x="355" y="966" on="0"/>
        <pt x="299" y="967" on="0"/>
        <pt x="273" y="968" on="1"/>
        <pt x="273" y="1084" on="1"/>
      </contour>
      <contour>
        <pt x="905" y="120" on="1"/>
        <pt x="905" y="51" on="0"/>
        <pt x="862" y="0" on="0"/>
        <pt x="812" y="0" on="1"/>
        <pt x="275" y="0" on="1"/>
        <pt x="275" y="114" on="1"/>
        <pt x="294" y="116" on="0"/>
        <pt x="338" y="119" on="0"/>
        <pt x="393" y="120" on="0"/>
        <pt x="429" y="120" on="1"/>
      </contour>
    </TTGlyph>
    <TTGlyph name="eacute" xMin="185" yMin="0" xMax="905" yMax="1540">
      <component glyphName="e" x="0" y="0" flags="0x204"/>
      <component glyphName="acutecomb" x="142" y="104" flags="0x4"/>
    </TTGlyph>
    <TTGlyph name="ebreve" xMin="185" yMin="0" xMax="905" yMax="1471">
      <component glyphName="e" x="0" y="0" flags="0x204"/>
      <component glyphName="uni0306" x="142" y="104" flags="0x4"/>
    </TTGlyph>
    <TTGlyph name="ecaron" xMin="185" yMin="0" xMax="905" yMax="1525">
      <component glyphName="e" x="0" y="0" flags="0x204"/>
      <component glyphName="uni030C" x="142" y="104" flags="0x4"/>
    </TTGlyph>
    <TTGlyph name="ecircumflex" xMin="185" yMin="0" xMax="905" yMax="1517">
      <component glyphName="e" x="0" y="0" flags="0x204"/>
      <component glyphName="uni0302" x="142" y="104" flags="0x4"/>
    </TTGlyph>
    <TTGlyph name="edieresis" xMin="185" yMin="0" xMax="905" yMax="1397">
      <component glyphName="e" x="0" y="0" flags="0x204"/>
      <component glyphName="uni0308" x="142" y="104" flags="0x4"/>
    </TTGlyph>
    <TTGlyph name="edotaccent" xMin="185" yMin="0" xMax="905" yMax="1443">
      <component glyphName="e" x="0" y="0" flags="0x204"/>
      <component glyphName="uni0307" x="142" y="104" flags="0x4"/>
    </TTGlyph>
    <TTGlyph name="egrave" xMin="185" yMin="0" xMax="905" yMax="1540">
      <component glyphName="e" x="0" y="0" flags="0x204"/>
      <component glyphName="gravecomb" x="150" y="104" flags="0x4"/>
    </TTGlyph>
    <TTGlyph name="eight" xMin="113" yMin="-24" xMax="945" yMax="1320">
      <contour>
        <pt x="113" y="324" on="1"/>
        <pt x="113" y="419" on="0"/>
        <pt x="204" y="576" on="0"/>
        <pt x="349" y="684" on="0"/>
        <pt x="429" y="706" on="1"/>
        <pt x="558" y="663" on="1"/>
        <pt x="416" y="633" on="0"/>
        <pt x="256" y="446" on="0"/>
        <pt x="256" y="336" on="1"/>
        <pt x="256" y="209" on="0"/>
        <pt x="417" y="84" on="0"/>
        <pt x="526" y="84" on="1"/>
        <pt x="597" y="84" on="0"/>
        <pt x="722" y="144" on="0"/>
        <pt x="800" y="259" on="0"/>
        <pt x="800" y="342" on="1"/>
        <pt x="800" y="428" on="0"/>
        <pt x="709" y="543" on="0"/>
        <pt x="571" y="613" on="0"/>
        <pt x="500" y="631" on="1"/>
        <pt x="476" y="637" on="1"/>
        <pt x="390" y="658" on="0"/>
        <pt x="241" y="750" on="0"/>
        <pt x="149" y="890" on="0"/>
        <pt x="149" y="984" on="1"/>
        <pt x="149" y="1084" on="0"/>
        <pt x="251" y="1235" on="0"/>
        <pt x="423" y="1320" on="0"/>
        <pt x="528" y="1320" on="1"/>
        <pt x="638" y="1320" on="0"/>
        <pt x="810" y="1238" on="0"/>
        <pt x="909" y="1092" on="0"/>
        <pt x="909" y="996" on="1"/>
        <pt x="909" y="913" on="0"/>
        <pt x="834" y="778" on="0"/>
        <pt x="708" y="684" on="0"/>
        <pt x="633" y="662" on="1"/>
        <pt x="510" y="705" on="1"/>
        <pt x="626" y="732" on="0"/>
        <pt x="765" y="890" on="0"/>
        <pt x="765" y="988" on="1"/>
        <pt x="765" y="1096" on="0"/>
        <pt x="624" y="1212" on="0"/>
        <pt x="528" y="1212" on="1"/>
        <pt x="431" y="1212" on="0"/>
        <pt x="292" y="1091" on="0"/>
        <pt x="292" y="988" on="1"/>
        <pt x="292" y="887" on="0"/>
        <pt x="442" y="769" on="0"/>
        <pt x="566" y="739" on="1"/>
        <pt x="590" y="733" on="1"/>
        <pt x="687" y="709" on="0"/>
        <pt x="849" y="604" on="0"/>
        <pt x="945" y="445" on="0"/>
        <pt x="945" y="340" on="1"/>
        <pt x="945" y="226" on="0"/>
        <pt x="828" y="63" on="0"/>
        <pt x="636" y="-24" on="0"/>
        <pt x="522" y="-24" on="1"/>
        <pt x="341" y="-24" on="0"/>
        <pt x="113" y="156" on="0"/>
      </contour>
    </TTGlyph>
    <TTGlyph name="ellipsis" xMin="132" yMin="-14" xMax="1360" yMax="196">
      <component glyphName="period" x="0" y="0" flags="0x4"/>
      <component glyphName="period" x="499" y="0" flags="0x4"/>
      <component glyphName="period" x="998" y="0" flags="0x4"/>
    </TTGlyph>
    <TTGlyph name="emacron" xMin="185" yMin="0" xMax="905" yMax="1387">
      <component glyphName="e" x="0" y="0" flags="0x204"/>
      <component glyphName="uni0304" x="142" y="104" flags="0x4"/>
    </TTGlyph>
    <TTGlyph name="emdash" xMin="160" yMin="467" xMax="1415" yMax="589">
      <contour>
        <pt x="166" y="467" on="1"/>
        <pt x="163" y="480" on="0"/>
        <pt x="160" y="506" on="0"/>
        <pt x="160" y="526" on="1"/>
        <pt x="160" y="547" on="0"/>
        <pt x="163" y="574" on="0"/>
        <pt x="166" y="589" on="1"/>
        <pt x="1409" y="589" on="1"/>
        <pt x="1412" y="574" on="0"/>
        <pt x="1415" y="547" on="0"/>
        <pt x="1415" y="526" on="1"/>
        <pt x="1415" y="506" on="0"/>
        <pt x="1412" y="480" on="0"/>
        <pt x="1409" y="467" on="1"/>
      </contour>
    </TTGlyph>
    <TTGlyph name="endash" xMin="128" yMin="467" xMax="900" yMax="589">
      <contour>
        <pt x="134" y="467" on="1"/>
        <pt x="131" y="480" on="0"/>
        <pt x="128" y="506" on="0"/>
        <pt x="128" y="526" on="1"/>
        <pt x="128" y="547" on="0"/>
        <pt x="131" y="574" on="0"/>
        <pt x="134" y="589" on="1"/>
        <pt x="895" y="589" on="1"/>
        <pt x="897" y="574" on="0"/>
        <pt x="900" y="547" on="0"/>
        <pt x="900" y="526" on="1"/>
        <pt x="900" y="506" on="0"/>
        <pt x="897" y="480" on="0"/>
        <pt x="895" y="467" on="1"/>
      </contour>
    </TTGlyph>
    <TTGlyph name="eng" xMin="185" yMin="-382" xMax="1032" yMax="1090">
      <contour>
        <pt x="600" y="-240" on="1"/>
        <pt x="634" y="-253" on="0"/>
        <pt x="700" y="-270" on="0"/>
        <pt x="732" y="-270" on="1"/>
        <pt x="771" y="-270" on="0"/>
        <pt x="851" y="-234" on="0"/>
        <pt x="905" y="-128" on="0"/>
        <pt x="905" y="-22" on="1"/>
        <pt x="905" y="70" on="1"/>
        <pt x="918" y="73" on="0"/>
        <pt x="956" y="76" on="0"/>
        <pt x="973" y="76" on="1"/>
        <pt x="988" y="76" on="0"/>
        <pt x="1022" y="73" on="0"/>
        <pt x="1032" y="70" on="1"/>
        <pt x="1032" y="4" on="1"/>
        <pt x="1032" y="-122" on="0"/>
        <pt x="968" y="-294" on="0"/>
        <pt x="838" y="-382" on="0"/>
        <pt x="740" y="-382" on="1"/>
        <pt x="698" y="-382" on="0"/>
        <pt x="599" y="-361" on="0"/>
        <pt x="558" y="-342" on="1"/>
        <pt x="564" y="-312" on="0"/>
        <pt x="583" y="-260" on="0"/>
      </contour>
      <contour>
        <pt x="185" y="1084" on="1"/>
        <pt x="202" y="1087" on="0"/>
        <pt x="255" y="1090" on="0"/>
        <pt x="267" y="1090" on="1"/>
        <pt x="282" y="1090" on="0"/>
        <pt x="331" y="1087" on="0"/>
        <pt x="348" y="1084" on="1"/>
        <pt x="326" y="906" on="1"/>
        <pt x="310" y="904" on="1"/>
        <pt x="313" y="856" on="0"/>
        <pt x="318" y="726" on="0"/>
        <pt x="320" y="603" on="0"/>
        <pt x="320" y="564" on="1"/>
        <pt x="320" y="0" on="1"/>
        <pt x="301" y="-3" on="0"/>
        <pt x="266" y="-6" on="0"/>
        <pt x="251" y="-6" on="1"/>
        <pt x="240" y="-6" on="0"/>
        <pt x="202" y="-3" on="0"/>
        <pt x="185" y="0" on="1"/>
      </contour>
      <contour>
        <pt x="441" y="697" on="1"/>
        <pt x="418" y="733" on="0"/>
        <pt x="377" y="803" on="0"/>
        <pt x="337" y="871" on="0"/>
        <pt x="318" y="906" on="1"/>
        <pt x="251" y="985" on="1"/>
        <pt x="348" y="1084" on="1"/>
        <pt x="781" y="382" on="1"/>
        <pt x="797" y="355" on="0"/>
        <pt x="829" y="301" on="0"/>
        <pt x="859" y="248" on="0"/>
        <pt x="888" y="195" on="0"/>
        <pt x="903" y="169" on="1"/>
        <pt x="963" y="105" on="1"/>
        <pt x="870" y="0" on="1"/>
      </contour>
      <contour>
        <pt x="1032" y="1080" on="1"/>
        <pt x="1032" y="0" on="1"/>
        <pt x="1015" y="-3" on="0"/>
        <pt x="963" y="-6" on="0"/>
        <pt x="950" y="-6" on="1"/>
        <pt x="937" y="-6" on="0"/>
        <pt x="886" y="-3" on="0"/>
        <pt x="870" y="0" on="1"/>
        <pt x="897" y="169" on="1"/>
        <pt x="913" y="171" on="1"/>
        <pt x="909" y="217" on="0"/>
        <pt x="902" y="349" on="0"/>
        <pt x="897" y="478" on="0"/>
        <pt x="897" y="518" on="1"/>
        <pt x="897" y="1001" on="1"/>
        <pt x="897" y="1046" on="0"/>
        <pt x="923" y="1090" on="0"/>
        <pt x="969" y="1090" on="1"/>
        <pt x="1022" y="1090" on="1"/>
      </contour>
    </TTGlyph>
    <TTGlyph name="eogonek" xMin="185" yMin="-434" xMax="915" yMax="1084">
      <contour>
        <pt x="185" y="1074" on="1"/>
        <pt x="195" y="1084" on="1"/>
        <pt x="320" y="1084" on="1"/>
        <pt x="320" y="970" on="1"/>
        <pt x="320" y="952" on="0"/>
        <pt x="322" y="898" on="0"/>
        <pt x="322" y="866" on="1"/>
        <pt x="322" y="185" on="1"/>
        <pt x="322" y="167" on="0"/>
        <pt x="320" y="124" on="0"/>
        <pt x="320" y="116" on="1"/>
        <pt x="320" y="0" on="1"/>
        <pt x="265" y="0" on="1"/>
        <pt x="228" y="0" on="0"/>
        <pt x="185" y="47" on="0"/>
        <pt x="185" y="89" on="1"/>
      </contour>
      <contour>
        <pt x="781" y="611" on="1"/>
        <pt x="786" y="596" on="0"/>
        <pt x="787" y="562" on="0"/>
        <pt x="787" y="552" on="1"/>
        <pt x="787" y="540" on="0"/>
        <pt x="786" y="508" on="0"/>
        <pt x="781" y="493" on="1"/>
        <pt x="428" y="493" on="1"/>
        <pt x="408" y="493" on="0"/>
        <pt x="355" y="493" on="0"/>
        <pt x="299" y="494" on="0"/>
        <pt x="273" y="495" on="1"/>
        <pt x="273" y="609" on="1"/>
        <pt x="299" y="609" on="0"/>
        <pt x="355" y="610" on="0"/>
        <pt x="408" y="611" on="0"/>
        <pt x="428" y="611" on="1"/>
      </contour>
      <contour>
        <pt x="875" y="1084" on="1"/>
        <pt x="878" y="1069" on="0"/>
        <pt x="879" y="1041" on="0"/>
        <pt x="879" y="1029" on="1"/>
        <pt x="879" y="1017" on="0"/>
        <pt x="875" y="982" on="0"/>
        <pt x="869" y="966" on="1"/>
        <pt x="428" y="966" on="1"/>
        <pt x="408" y="966" on="0"/>
        <pt x="355" y="966" on="0"/>
        <pt x="299" y="967" on="0"/>
        <pt x="273" y="968" on="1"/>
        <pt x="273" y="1084" on="1"/>
      </contour>
      <contour>
        <pt x="905" y="120" on="1"/>
        <pt x="905" y="65" on="0"/>
        <pt x="880" y="17" on="0"/>
        <pt x="852" y="6" on="1"/>
        <pt x="834" y="0" on="0"/>
        <pt x="812" y="0" on="1"/>
        <pt x="275" y="0" on="1"/>
        <pt x="275" y="114" on="1"/>
        <pt x="294" y="116" on="0"/>
        <pt x="338" y="119" on="0"/>
        <pt x="393" y="120" on="0"/>
        <pt x="429" y="120" on="1"/>
      </contour>
      <contour>
        <pt x="880" y="-295" on="1"/>
        <pt x="895" y="-307" on="0"/>
        <pt x="915" y="-345" on="0"/>
        <pt x="915" y="-370" on="1"/>
        <pt x="882" y="-397" on="0"/>
        <pt x="775" y="-434" on="0"/>
        <pt x="720" y="-434" on="1"/>
        <pt x="635" y="-434" on="0"/>
        <pt x="520" y="-341" on="0"/>
        <pt x="520" y="-254" on="1"/>
        <pt x="520" y="-168" on="0"/>
        <pt x="643" y="-11" on="0"/>
        <pt x="737" y="34" on="1"/>
        <pt x="852" y="6" on="1"/>
        <pt x="760" y="-33" on="0"/>
        <pt x="645" y="-166" on="0"/>
        <pt x="645" y="-229" on="1"/>
        <pt x="645" y="-279" on="0"/>
        <pt x="705" y="-331" on="0"/>
        <pt x="751" y="-331" on="1"/>
        <pt x="787" y="-331" on="0"/>
        <pt x="854" y="-309" on="0"/>
      </contour>
    </TTGlyph>
    <TTGlyph name="equal" xMin="112" yMin="350" xMax="948" yMax="816">
      <contour>
        <pt x="118" y="350" on="1"/>
        <pt x="115" y="363" on="0"/>
        <pt x="112" y="393" on="0"/>
        <pt x="112" y="413" on="1"/>
        <pt x="112" y="434" on="0"/>
        <pt x="115" y="465" on="0"/>
        <pt x="118" y="480" on="1"/>
        <pt x="942" y="480" on="1"/>
        <pt x="945" y="465" on="0"/>
        <pt x="948" y="434" on="0"/>
        <pt x="948" y="413" on="1"/>
        <pt x="948" y="393" on="0"/>
        <pt x="945" y="363" on="0"/>
        <pt x="942" y="350" on="1"/>
      </contour>
      <contour>
        <pt x="118" y="686" on="1"/>
        <pt x="115" y="699" on="0"/>
        <pt x="112" y="729" on="0"/>
        <pt x="112" y="749" on="1"/>
        <pt x="112" y="770" on="0"/>
        <pt x="115" y="801" on="0"/>
        <pt x="118" y="816" on="1"/>
        <pt x="942" y="816" on="1"/>
        <pt x="945" y="801" on="0"/>
        <pt x="948" y="770" on="0"/>
        <pt x="948" y="749" on="1"/>
        <pt x="948" y="729" on="0"/>
        <pt x="945" y="699" on="0"/>
        <pt x="942" y="686" on="1"/>
      </contour>
    </TTGlyph>
    <TTGlyph name="estimated" xMin="124" yMin="-16" xMax="1212" yMax="964">
      <contour>
        <pt x="330" y="460" on="1"/>
        <pt x="324" y="460" on="0"/>
        <pt x="324" y="456" on="1"/>
        <pt x="324" y="188" on="1"/>
        <pt x="324" y="179" on="0"/>
        <pt x="332" y="164" on="0"/>
        <pt x="336" y="158" on="1"/>
        <pt x="399" y="91" on="0"/>
        <pt x="571" y="12" on="0"/>
        <pt x="670" y="12" on="1"/>
        <pt x="775" y="12" on="0"/>
        <pt x="955" y="101" on="0"/>
        <pt x="1018" y="176" on="1"/>
        <pt x="1100" y="176" on="1"/>
        <pt x="1027" y="89" on="0"/>
        <pt x="801" y="-16" on="0"/>
        <pt x="670" y="-16" on="1"/>
        <pt x="519" y="-16" on="0"/>
        <pt x="271" y="117" on="0"/>
        <pt x="124" y="339" on="0"/>
        <pt x="124" y="474" on="1"/>
        <pt x="124" y="610" on="0"/>
        <pt x="271" y="832" on="0"/>
        <pt x="519" y="964" on="0"/>
        <pt x="670" y="964" on="1"/>
        <pt x="820" y="964" on="0"/>
        <pt x="1066" y="832" on="0"/>
        <pt x="1212" y="610" on="0"/>
        <pt x="1212" y="474" on="1"/>
        <pt x="1212" y="460" on="1"/>
      </contour>
      <contour>
        <pt x="1014" y="764" on="1"/>
        <pt x="1014" y="782" on="0"/>
        <pt x="1000" y="796" on="1"/>
        <pt x="937" y="859" on="0"/>
        <pt x="766" y="934" on="0"/>
        <pt x="670" y="934" on="1"/>
        <pt x="571" y="934" on="0"/>
        <pt x="403" y="858" on="0"/>
        <pt x="338" y="792" on="1"/>
        <pt x="324" y="778" on="0"/>
        <pt x="324" y="758" on="1"/>
        <pt x="324" y="496" on="1"/>
        <pt x="324" y="490" on="0"/>
        <pt x="330" y="490" on="1"/>
        <pt x="1008" y="490" on="1"/>
        <pt x="1014" y="490" on="0"/>
        <pt x="1014" y="496" on="1"/>
      </contour>
    </TTGlyph>
    <TTGlyph name="eth" xMin="63" yMin="-6" xMax="1048" yMax="1090">
      <contour>
        <pt x="69" y="483" on="1"/>
        <pt x="66" y="496" on="0"/>
        <pt x="63" y="523" on="0"/>
        <pt x="63" y="542" on="1"/>
        <pt x="63" y="563" on="0"/>
        <pt x="66" y="590" on="0"/>
        <pt x="69" y="605" on="1"/>
        <pt x="623" y="605" on="1"/>
        <pt x="626" y="590" on="0"/>
        <pt x="629" y="563" on="0"/>
        <pt x="629" y="542" on="1"/>
        <pt x="629" y="509" on="0"/>
        <pt x="623" y="483" on="1"/>
      </contour>
      <contour>
        <pt x="1048" y="540" on="1"/>
        <pt x="1048" y="276" on="0"/>
        <pt x="808" y="-6" on="0"/>
        <pt x="553" y="-6" on="1"/>
        <pt x="482" y="-6" on="0"/>
        <pt x="382" y="-5" on="0"/>
        <pt x="279" y="-2" on="0"/>
        <pt x="204" y="0" on="1"/>
        <pt x="195" y="10" on="1"/>
        <pt x="195" y="1074" on="1"/>
        <pt x="204" y="1084" on="1"/>
        <pt x="280" y="1086" on="0"/>
        <pt x="383" y="1088" on="0"/>
        <pt x="482" y="1090" on="0"/>
        <pt x="553" y="1090" on="1"/>
        <pt x="812" y="1090" on="0"/>
        <pt x="1048" y="795" on="0"/>
      </contour>
      <contour>
        <pt x="901" y="540" on="1"/>
        <pt x="901" y="684" on="0"/>
        <pt x="827" y="877" on="0"/>
        <pt x="673" y="974" on="0"/>
        <pt x="551" y="974" on="1"/>
        <pt x="489" y="974" on="0"/>
        <pt x="388" y="976" on="0"/>
        <pt x="334" y="976" on="1"/>
        <pt x="334" y="106" on="1"/>
        <pt x="388" y="106" on="0"/>
        <pt x="489" y="108" on="0"/>
        <pt x="551" y="108" on="1"/>
        <pt x="660" y="108" on="0"/>
        <pt x="816" y="192" on="0"/>
        <pt x="901" y="382" on="0"/>
      </contour>
    </TTGlyph>
    <TTGlyph name="exclam" xMin="171" yMin="-14" xMax="377" yMax="1374">
      <contour>
        <pt x="219" y="369" on="1"/>
        <pt x="211" y="573" on="0"/>
        <pt x="195" y="977" on="0"/>
        <pt x="195" y="1180" on="1"/>
        <pt x="195" y="1366" on="1"/>
        <pt x="215" y="1371" on="0"/>
        <pt x="274" y="1374" on="0"/>
        <pt x="332" y="1370" on="0"/>
        <pt x="352" y="1364" on="1"/>
        <pt x="352" y="1180" on="1"/>
        <pt x="352" y="977" on="0"/>
        <pt x="338" y="572" on="0"/>
        <pt x="329" y="369" on="1"/>
        <pt x="317" y="365" on="0"/>
        <pt x="288" y="361" on="0"/>
        <pt x="274" y="361" on="1"/>
        <pt x="259" y="361" on="0"/>
        <pt x="230" y="365" on="0"/>
      </contour>
      <contour>
        <pt x="274" y="180" on="1"/>
        <pt x="297" y="180" on="0"/>
        <pt x="348" y="170" on="0"/>
        <pt x="363" y="161" on="1"/>
        <pt x="369" y="150" on="0"/>
        <pt x="377" y="100" on="0"/>
        <pt x="377" y="83" on="1"/>
        <pt x="377" y="67" on="0"/>
        <pt x="369" y="16" on="0"/>
        <pt x="363" y="6" on="1"/>
        <pt x="348" y="-3" on="0"/>
        <pt x="297" y="-14" on="0"/>
        <pt x="274" y="-14" on="1"/>
        <pt x="248" y="-14" on="0"/>
        <pt x="199" y="-3" on="0"/>
        <pt x="185" y="6" on="1"/>
        <pt x="179" y="16" on="0"/>
        <pt x="171" y="67" on="0"/>
        <pt x="171" y="83" on="1"/>
        <pt x="171" y="100" on="0"/>
        <pt x="179" y="150" on="0"/>
        <pt x="185" y="161" on="1"/>
        <pt x="199" y="170" on="0"/>
        <pt x="248" y="180" on="0"/>
      </contour>
    </TTGlyph>
    <TTGlyph name="exclamdown" xMin="172" yMin="-394" xMax="378" yMax="994">
      <component glyphName="exclam" x="549" y="980" scale="-1.0" flags="0x4"/>
    </TTGlyph>
    <TTGlyph name="f" xMin="185" yMin="-6" xMax="871" yMax="1084">
      <contour>
        <pt x="324" y="0" on="1"/>
        <pt x="309" y="-3" on="0"/>
        <pt x="273" y="-6" on="0"/>
        <pt x="253" y="-6" on="1"/>
        <pt x="234" y="-6" on="0"/>
        <pt x="198" y="-3" on="0"/>
        <pt x="185" y="0" on="1"/>
        <pt x="185" y="1076" on="1"/>
        <pt x="195" y="1084" on="1"/>
        <pt x="322" y="1084" on="1"/>
        <pt x="322" y="997" on="1"/>
        <pt x="322" y="938" on="0"/>
        <pt x="324" y="816" on="0"/>
        <pt x="324" y="758" on="1"/>
      </contour>
      <contour>
        <pt x="861" y="1084" on="1"/>
        <pt x="865" y="1072" on="0"/>
        <pt x="871" y="1041" on="0"/>
        <pt x="871" y="1029" on="1"/>
        <pt x="871" y="998" on="0"/>
        <pt x="839" y="964" on="0"/>
        <pt x="790" y="964" on="1"/>
        <pt x="517" y="964" on="1"/>
        <pt x="440" y="964" on="0"/>
        <pt x="317" y="967" on="0"/>
        <pt x="271" y="970" on="1"/>
        <pt x="271" y="1084" on="1"/>
      </contour>
      <contour>
        <pt x="773" y="605" on="1"/>
        <pt x="776" y="590" on="0"/>
        <pt x="779" y="558" on="0"/>
        <pt x="779" y="546" on="1"/>
        <pt x="779" y="534" on="0"/>
        <pt x="776" y="504" on="0"/>
        <pt x="773" y="489" on="1"/>
        <pt x="423" y="489" on="1"/>
        <pt x="393" y="489" on="0"/>
        <pt x="310" y="491" on="0"/>
        <pt x="271" y="491" on="1"/>
        <pt x="271" y="603" on="1"/>
        <pt x="310" y="603" on="0"/>
        <pt x="393" y="605" on="0"/>
        <pt x="423" y="605" on="1"/>
      </contour>
    </TTGlyph>
    <TTGlyph name="five" xMin="137" yMin="-24" xMax="929" yMax="1296">
      <contour>
        <pt x="322" y="870" on="1"/>
        <pt x="321" y="832" on="0"/>
        <pt x="311" y="746" on="0"/>
        <pt x="302" y="712" on="1"/>
        <pt x="277" y="702" on="0"/>
        <pt x="225" y="690" on="0"/>
        <pt x="179" y="682" on="1"/>
        <pt x="205" y="1284" on="1"/>
        <pt x="328" y="1269" on="1"/>
        <pt x="330" y="1242" on="0"/>
        <pt x="332" y="1154" on="0"/>
        <pt x="331" y="1067" on="0"/>
        <pt x="330" y="1041" on="1"/>
      </contour>
      <contour>
        <pt x="137" y="96" on="1"/>
        <pt x="141" y="121" on="0"/>
        <pt x="178" y="176" on="0"/>
        <pt x="200" y="192" on="1"/>
        <pt x="262" y="150" on="0"/>
        <pt x="402" y="92" on="0"/>
        <pt x="493" y="92" on="1"/>
        <pt x="566" y="92" on="0"/>
        <pt x="698" y="163" on="0"/>
        <pt x="782" y="316" on="0"/>
        <pt x="782" y="438" on="1"/>
        <pt x="782" y="560" on="0"/>
        <pt x="695" y="692" on="0"/>
        <pt x="567" y="742" on="0"/>
        <pt x="507" y="742" on="1"/>
        <pt x="441" y="742" on="0"/>
        <pt x="302" y="688" on="0"/>
        <pt x="243" y="637" on="1"/>
        <pt x="224" y="640" on="0"/>
        <pt x="188" y="669" on="0"/>
        <pt x="179" y="682" on="1"/>
        <pt x="216" y="731" on="0"/>
        <pt x="329" y="811" on="0"/>
        <pt x="465" y="858" on="0"/>
        <pt x="538" y="858" on="1"/>
        <pt x="708" y="858" on="0"/>
        <pt x="929" y="645" on="0"/>
        <pt x="929" y="448" on="1"/>
        <pt x="929" y="285" on="0"/>
        <pt x="803" y="76" on="0"/>
        <pt x="605" y="-24" on="0"/>
        <pt x="496" y="-24" on="1"/>
        <pt x="376" y="-24" on="0"/>
        <pt x="195" y="50" on="0"/>
      </contour>
      <contour>
        <pt x="861" y="1296" on="1"/>
        <pt x="866" y="1283" on="0"/>
        <pt x="871" y="1251" on="0"/>
        <pt x="871" y="1239" on="1"/>
        <pt x="871" y="1172" on="0"/>
        <pt x="806" y="1172" on="1"/>
        <pt x="448" y="1172" on="1"/>
        <pt x="395" y="1172" on="0"/>
        <pt x="304" y="1175" on="0"/>
        <pt x="233" y="1180" on="0"/>
        <pt x="209" y="1182" on="1"/>
        <pt x="205" y="1284" on="1"/>
        <pt x="217" y="1296" on="1"/>
      </contour>
    </TTGlyph>
    <TTGlyph name="florin" xMin="-120" yMin="-329" xMax="792" yMax="1320">
      <contour>
        <pt x="361" y="774" on="1"/>
        <pt x="648" y="778" on="1"/>
        <pt x="654" y="748" on="0"/>
        <pt x="654" y="725" on="1"/>
        <pt x="654" y="710" on="0"/>
        <pt x="651" y="685" on="0"/>
        <pt x="648" y="672" on="1"/>
        <pt x="364" y="676" on="1"/>
        <pt x="137" y="672" on="1"/>
        <pt x="134" y="685" on="0"/>
        <pt x="131" y="710" on="0"/>
        <pt x="131" y="725" on="1"/>
        <pt x="131" y="748" on="0"/>
        <pt x="137" y="778" on="1"/>
      </contour>
      <contour>
        <pt x="327" y="1013" on="1"/>
        <pt x="347" y="1171" on="0"/>
        <pt x="467" y="1320" on="0"/>
        <pt x="592" y="1320" on="1"/>
        <pt x="638" y="1320" on="0"/>
        <pt x="753" y="1295" on="0"/>
        <pt x="792" y="1278" on="1"/>
        <pt x="792" y="1253" on="0"/>
        <pt x="775" y="1202" on="0"/>
        <pt x="759" y="1184" on="1"/>
        <pt x="720" y="1198" on="0"/>
        <pt x="636" y="1216" on="0"/>
        <pt x="598" y="1216" on="1"/>
        <pt x="538" y="1216" on="0"/>
        <pt x="476" y="1123" on="0"/>
        <pt x="461" y="1012" on="1"/>
        <pt x="338" y="55" on="1"/>
        <pt x="319" y="-89" on="0"/>
        <pt x="241" y="-257" on="0"/>
        <pt x="119" y="-329" on="0"/>
        <pt x="34" y="-329" on="1"/>
        <pt x="-12" y="-329" on="0"/>
        <pt x="-97" y="-312" on="0"/>
        <pt x="-119" y="-304" on="1"/>
        <pt x="-120" y="-279" on="0"/>
        <pt x="-101" y="-220" on="0"/>
        <pt x="-87" y="-204" on="1"/>
        <pt x="-71" y="-211" on="0"/>
        <pt x="-7" y="-223" on="0"/>
        <pt x="20" y="-223" on="1"/>
        <pt x="75" y="-223" on="0"/>
        <pt x="146" y="-171" on="0"/>
        <pt x="193" y="-22" on="0"/>
        <pt x="212" y="121" on="1"/>
      </contour>
    </TTGlyph>
    <TTGlyph name="four" xMin="101" yMin="-6" xMax="967" yMax="1311">
      <contour>
        <pt x="134" y="307" on="1"/>
        <pt x="119" y="329" on="0"/>
        <pt x="101" y="369" on="0"/>
        <pt x="101" y="390" on="1"/>
        <pt x="101" y="406" on="0"/>
        <pt x="123" y="464" on="0"/>
        <pt x="143" y="509" on="1"/>
        <pt x="491" y="1306" on="1"/>
        <pt x="510" y="1311" on="0"/>
        <pt x="560" y="1307" on="0"/>
        <pt x="607" y="1294" on="0"/>
        <pt x="623" y="1285" on="1"/>
        <pt x="328" y="613" on="1"/>
        <pt x="315" y="581" on="0"/>
        <pt x="284" y="513" on="0"/>
        <pt x="254" y="451" on="0"/>
        <pt x="243" y="427" on="1"/>
        <pt x="247" y="421" on="1"/>
        <pt x="283" y="423" on="0"/>
        <pt x="360" y="425" on="0"/>
        <pt x="427" y="425" on="0"/>
        <pt x="452" y="425" on="1"/>
        <pt x="744" y="425" on="1"/>
        <pt x="759" y="425" on="0"/>
        <pt x="807" y="427" on="0"/>
        <pt x="822" y="427" on="1"/>
        <pt x="963" y="427" on="1"/>
        <pt x="966" y="411" on="0"/>
        <pt x="967" y="382" on="0"/>
        <pt x="967" y="370" on="1"/>
        <pt x="967" y="358" on="0"/>
        <pt x="963" y="323" on="0"/>
        <pt x="957" y="307" on="1"/>
        <pt x="822" y="307" on="1"/>
        <pt x="807" y="307" on="0"/>
        <pt x="759" y="309" on="0"/>
        <pt x="744" y="309" on="1"/>
        <pt x="613" y="309" on="1"/>
        <pt x="598" y="309" on="0"/>
        <pt x="549" y="307" on="0"/>
        <pt x="534" y="307" on="1"/>
      </contour>
      <contour>
        <pt x="611" y="228" on="1"/>
        <pt x="611" y="243" on="0"/>
        <pt x="613" y="295" on="0"/>
        <pt x="613" y="309" on="1"/>
        <pt x="613" y="426" on="1"/>
        <pt x="613" y="441" on="0"/>
        <pt x="611" y="493" on="0"/>
        <pt x="611" y="508" on="1"/>
        <pt x="611" y="726" on="1"/>
        <pt x="611" y="775" on="0"/>
        <pt x="659" y="824" on="0"/>
        <pt x="695" y="824" on="1"/>
        <pt x="741" y="824" on="1"/>
        <pt x="746" y="818" on="1"/>
        <pt x="746" y="506" on="1"/>
        <pt x="746" y="491" on="0"/>
        <pt x="744" y="440" on="0"/>
        <pt x="744" y="425" on="1"/>
        <pt x="744" y="309" on="1"/>
        <pt x="744" y="295" on="0"/>
        <pt x="746" y="243" on="0"/>
        <pt x="746" y="228" on="1"/>
        <pt x="746" y="0" on="1"/>
        <pt x="732" y="-3" on="0"/>
        <pt x="699" y="-6" on="0"/>
        <pt x="678" y="-6" on="1"/>
        <pt x="658" y="-6" on="0"/>
        <pt x="624" y="-3" on="0"/>
        <pt x="611" y="0" on="1"/>
      </contour>
    </TTGlyph>
    <TTGlyph name="fraction" xMin="-260" yMin="-12" xMax="629" yMax="1378">
      <contour>
        <pt x="492" y="1366" on="1"/>
        <pt x="506" y="1373" on="0"/>
        <pt x="560" y="1378" on="0"/>
        <pt x="614" y="1373" on="0"/>
        <pt x="629" y="1366" on="1"/>
        <pt x="-123" y="0" on="1"/>
        <pt x="-137" y="-7" on="0"/>
        <pt x="-191" y="-12" on="0"/>
        <pt x="-245" y="-7" on="0"/>
        <pt x="-260" y="0" on="1"/>
      </contour>
    </TTGlyph>
    <TTGlyph name="g" xMin="97" yMin="-24" xMax="974" yMax="1108">
      <contour>
        <pt x="973" y="989" on="1"/>
        <pt x="963" y="957" on="0"/>
        <pt x="919" y="900" on="0"/>
        <pt x="897" y="885" on="1"/>
        <pt x="834" y="932" on="0"/>
        <pt x="672" y="986" on="0"/>
        <pt x="579" y="986" on="1"/>
        <pt x="491" y="986" on="0"/>
        <pt x="338" y="902" on="0"/>
        <pt x="244" y="705" on="0"/>
        <pt x="244" y="536" on="1"/>
        <pt x="244" y="318" on="0"/>
        <pt x="418" y="94" on="0"/>
        <pt x="591" y="94" on="1"/>
        <pt x="704" y="94" on="0"/>
        <pt x="862" y="138" on="0"/>
        <pt x="904" y="155" on="1"/>
        <pt x="974" y="48" on="1"/>
        <pt x="920" y="29" on="0"/>
        <pt x="787" y="-4" on="0"/>
        <pt x="639" y="-24" on="0"/>
        <pt x="563" y="-24" on="1"/>
        <pt x="429" y="-24" on="0"/>
        <pt x="249" y="73" on="0"/>
        <pt x="143" y="235" on="0"/>
        <pt x="97" y="435" on="0"/>
        <pt x="97" y="538" on="1"/>
        <pt x="97" y="696" on="0"/>
        <pt x="180" y="915" on="0"/>
        <pt x="321" y="1048" on="0"/>
        <pt x="496" y="1108" on="0"/>
        <pt x="587" y="1108" on="1"/>
        <pt x="690" y="1108" on="0"/>
        <pt x="899" y="1045" on="0"/>
      </contour>
      <contour>
        <pt x="837" y="335" on="1"/>
        <pt x="837" y="375" on="0"/>
        <pt x="848" y="490" on="0"/>
        <pt x="865" y="528" on="1"/>
        <pt x="974" y="462" on="1"/>
        <pt x="974" y="48" on="1"/>
        <pt x="837" y="44" on="1"/>
      </contour>
      <contour>
        <pt x="590" y="553" on="1"/>
        <pt x="653" y="554" on="0"/>
        <pt x="777" y="557" on="0"/>
        <pt x="843" y="557" on="1"/>
        <pt x="921" y="557" on="0"/>
        <pt x="974" y="512" on="0"/>
        <pt x="974" y="466" on="1"/>
        <pt x="974" y="439" on="1"/>
        <pt x="896" y="434" on="0"/>
        <pt x="717" y="433" on="0"/>
        <pt x="647" y="433" on="1"/>
        <pt x="580" y="433" on="0"/>
        <pt x="580" y="498" on="1"/>
        <pt x="580" y="508" on="0"/>
        <pt x="585" y="541" on="0"/>
      </contour>
    </TTGlyph>
    <TTGlyph name="gbreve" xMin="97" yMin="-24" xMax="974" yMax="1471">
      <component glyphName="g" x="0" y="0" flags="0x204"/>
      <component glyphName="uni0306" x="193" y="104" flags="0x4"/>
    </TTGlyph>
    <TTGlyph name="gcircumflex" xMin="97" yMin="-24" xMax="974" yMax="1517">
      <component glyphName="g" x="0" y="0" flags="0x204"/>
      <component glyphName="uni0302" x="193" y="104" flags="0x4"/>
    </TTGlyph>
    <TTGlyph name="gdotaccent" xMin="97" yMin="-24" xMax="974" yMax="1443">
      <component glyphName="g" x="0" y="0" flags="0x204"/>
      <component glyphName="uni0307" x="193" y="104" flags="0x4"/>
    </TTGlyph>
</ttFont>
